<?xml version="1.0" encoding="UTF-8" standalone="no"?>
<!-- Created with Inkscape (http://www.inkscape.org/) -->

<svg
   xmlns:dc="http://purl.org/dc/elements/1.1/"
   xmlns:cc="http://creativecommons.org/ns#"
   xmlns:rdf="http://www.w3.org/1999/02/22-rdf-syntax-ns#"
   xmlns:svg="http://www.w3.org/2000/svg"
   xmlns="http://www.w3.org/2000/svg"
   xmlns:sodipodi="http://sodipodi.sourceforge.net/DTD/sodipodi-0.dtd"
   xmlns:inkscape="http://www.inkscape.org/namespaces/inkscape"
   width="253.60312mm"
   height="252.41251mm"
   viewBox="0 0 253.60312 252.41251"
   version="1.1"
   id="svg4118"
   inkscape:version="0.92.4 (5da689c313, 2019-01-14)"
   sodipodi:docname="oben.svg">
  <defs
     id="defs4112" />
  <sodipodi:namedview
     id="base"
     pagecolor="#ffffff"
     bordercolor="#666666"
     borderopacity="1.0"
     inkscape:pageopacity="0.0"
     inkscape:pageshadow="2"
     inkscape:zoom="1.0597484"
     inkscape:cx="328.27076"
     inkscape:cy="477.00002"
     inkscape:document-units="mm"
     inkscape:current-layer="layer1"
     showgrid="false"
     inkscape:window-width="1920"
     inkscape:window-height="1178"
     inkscape:window-x="-8"
     inkscape:window-y="1192"
     inkscape:window-maximized="1" />
  <metadata
     id="metadata4115">
    <rdf:RDF>
      <cc:Work
         rdf:about="">
        <dc:format>image/svg+xml</dc:format>
        <dc:type
           rdf:resource="http://purl.org/dc/dcmitype/StillImage" />
        <dc:title></dc:title>
      </cc:Work>
    </rdf:RDF>
  </metadata>
  <g
     inkscape:label="Ebene 1"
     inkscape:groupmode="layer"
     id="layer1"
     transform="translate(15.251331,-29.65744)">
    <text
       xml:space="preserve"
       style="font-style:normal;font-weight:normal;font-size:6.3499999px;line-height:1.25;font-family:sans-serif;letter-spacing:0px;word-spacing:0px;fill:#000000;fill-opacity:1;stroke:none;stroke-width:0.26458332"
       x="11.213284"
       y="72.849686"
       id="text4198"><tspan
         sodipodi:role="line"
         id="tspan4196"
         x="11.213284"
         y="72.849686"
         style="font-size:6.3499999px;stroke-width:0.26458332">Schlafzimmer</tspan></text>
    <text
       xml:space="preserve"
       style="font-style:normal;font-weight:normal;font-size:7.05555534px;line-height:1.25;font-family:sans-serif;letter-spacing:0px;word-spacing:0px;fill:#000000;fill-opacity:1;stroke:none;stroke-width:0.26458332"
       x="150.02768"
       y="71.851021"
       id="text4202"><tspan
         sodipodi:role="line"
         id="tspan4200"
         x="150.02768"
         y="71.851021"
         style="stroke-width:0.26458332">Büro</tspan></text>
    <text
       xml:space="preserve"
       style="font-style:normal;font-weight:normal;font-size:7.05555534px;line-height:1.25;font-family:sans-serif;letter-spacing:0px;word-spacing:0px;fill:#000000;fill-opacity:1;stroke:none;stroke-width:0.26458332"
       x="142.78735"
       y="232.63603"
       id="text4206"><tspan
         sodipodi:role="line"
         id="tspan4204"
         x="142.78735"
         y="232.63603"
         style="stroke-width:0.26458332">Büro2</tspan></text>
    <text
       xml:space="preserve"
       style="font-style:normal;font-weight:normal;font-size:7.05555534px;line-height:1.25;font-family:sans-serif;letter-spacing:0px;word-spacing:0px;fill:#000000;fill-opacity:1;stroke:none;stroke-width:0.26458332"
       x="28.190582"
       y="198.43178"
       id="text4210"><tspan
         sodipodi:role="line"
         id="tspan4208"
         x="28.190582"
         y="198.43178"
         style="stroke-width:0.26458332">Bad</tspan></text>
    <text
       xml:space="preserve"
       style="font-style:normal;font-weight:normal;font-size:7.05555534px;line-height:1.25;font-family:sans-serif;letter-spacing:0px;word-spacing:0px;fill:#000000;fill-opacity:1;stroke:none;stroke-width:0.26458332"
       x="90.607132"
       y="153.9912"
       id="text4214"><tspan
         sodipodi:role="line"
         id="tspan4212"
         x="90.607132"
         y="153.9912"
         style="stroke-width:0.26458332">Flur</tspan></text>
    <path
       id="path4131"
       transform="matrix(0.26458333,0,0,0.26458333,-15.251331,29.65744)"
       style="fill:#000000;stroke-width:0.99999994"
       d="m 4.5,0 v 87.533203 87.531247 l -2.25,0.9043 -2.25,0.9043 2.25,0.0644 L 4.5,177 v 29.40625 c 0,28.91361 -0.033512,29.39706 -2,28.88281 -1.3909417,-0.36374 -2,-0.0305 -2,1.09375 0,0.94999 0.8247559,1.61719 2,1.61719 1.9538646,0 2,0.6667 2,29 0,29.0606 -0.062649,29.62242 -3.25,29.11914 C 0.83750244,296.05402 0.5,296.45 0.5,297 c 0,0.55 0.9000063,1 2,1 1.9810772,0 2,0.66768 2,66.5332 v 66.53125 l -2.25,0.9043 -2.25,0.9043 2.25,0.0645 L 4.5,433 v 40 40 l -2.25,0.13672 -2.25,0.13672 2.25,0.43164 2.25,0.43359 v 62.43164 C 4.5,638.33407 4.4786205,639 2.5,639 c -1.0999937,0 -2,0.45 -2,1 0,0.55 0.9000063,1 2,1 1.9659591,0 2,0.66668 2,40 v 40 l -2.25,0.13672 -2.25,0.13476 2.25,0.4336 2.25,0.43359 V 838.07031 954 h 477 477 V 477 0 h -477 z m 925.29688,2.1015625 25.71093,0.033203 v 7.7324219 c 0,4.8008696 -0.47387,8.2438956 -1.25,9.0800786 -0.89983,0.969486 -0.91286,1.15617 -0.0449,0.667968 1.55777,-0.876321 1.6865,25.781629 0.13867,28.673828 -0.74936,1.400051 -0.73194,1.759082 0.0566,1.271485 1.48226,-0.916082 1.48226,10.855362 0,13.625 -0.74245,1.388409 -0.75675,1.842701 -0.041,1.400391 1.57829,-0.975497 1.40847,42.374422 -0.17383,44.332032 -0.92667,1.14641 -0.91231,1.30192 0.0644,0.71484 1.74078,-1.04579 1.74078,12.43905 0,14.31446 -0.99998,1.07739 -0.99998,1.20521 0,0.64062 0.94727,-0.53473 1.25,0.95542 1.25,6.15234 0,4.1023 -0.50237,7.40162 -1.25,8.20704 -0.90021,0.96952 -0.91286,1.15617 -0.0449,0.66796 1.55781,-0.87632 1.68654,25.78162 0.13867,28.67383 -0.74933,1.40005 -0.73429,1.75908 0.0547,1.27149 1.48226,-0.91609 1.48226,10.85536 0,13.625 -0.79967,1.49427 -0.79967,1.86925 0,1.375 0.74449,-0.46001 1.10156,0.95687 1.10156,4.38086 0,4.39234 -0.26357,5.05859 -2,5.05859 -2.00466,0 -2.37659,-0.77535 -2.15625,-4.5 0.0896,-1.51204 0.12546,-28.37133 0.0508,-37.75 -0.0869,-10.89721 0.006,-50.89731 0.12305,-52.75 0.085,-1.374992 0.12422,-3.062504 0.082,-3.75 -0.042,-0.687534 -0.0923,-3.387515 -0.10742,-6 -0.017,-2.612523 -0.0617,-7.899984 -0.0957,-11.75 -0.0378,-3.849978 -0.0482,-7.562504 -0.0293,-8.25 0.0294,-1.059515 0.0518,-32.752844 0.0254,-38 -0.005,-0.962494 0.0281,-6.651876 0.0723,-12.642578 0.0443,-5.990665 -0.12121,-11.0958132 -0.36914,-11.3437502 -0.24809,-0.248126 -15.22256,-0.4369931 -33.2754,-0.421875 -26.95067,0.023244 -32.51205,-0.2016358 -31.08789,-1.2558594 0.95399,-0.7061669 1.44241,-1.5751678 1.08789,-1.9296875 -0.35455,-0.3545953 -1.2487,0.219504 -1.98828,1.2753906 C 884.52763,6.8052288 881.81533,6.8512979 773.5,6.8515625 706.04492,6.8517515 662.50586,6.4888175 662.50586,5.9257812 662.50586,5.4162261 662.98199,5 663.56445,5 c 0.58228,0 0.75926,-0.4838187 0.39453,-1.0742188 -0.41744,-0.6754385 -1.17989,-0.3345789 -2.05859,0.9199219 -1.36414,1.947515 -2.59292,1.9964739 -53.14648,2.0078125 -42.31979,0.010469 -51.43209,-0.2211659 -50.01368,-1.2695312 0.95403,-0.7050331 1.44241,-1.5732147 1.08789,-1.9277344 -0.35455,-0.3545953 -1.25448,0.2266251 -2,1.2910156 -1.29675,1.851704 -2.87359,1.9371199 -36.4375,1.9257813 -19.29535,-0.0054 -35.33738,0.2455855 -35.64843,0.5566406 -0.31181,0.3111685 -0.46665,3.3070475 -0.34571,6.6582035 0.15368,4.258885 -0.27274,6.845062 -1.41601,8.589843 -0.89957,1.372914 -1.37368,2.75718 -1.05469,3.076172 0.31873,0.318955 0.58008,0.0538 0.58008,-0.58789 0,-0.641651 0.45,-1.166016 1,-1.166016 1.30178,0 1.29909,10.570571 -0.004,13.003906 -0.67026,1.252422 -0.67026,2.079905 0,2.494141 0.55151,0.340838 1.00391,2.873265 1.00391,5.626953 0,2.753726 -0.4524,5.848456 -1.00391,6.878906 -0.67026,1.252422 -0.67026,2.079905 0,2.494141 1.31554,0.814035 1.29239,10.089493 -0.0332,12.566406 -0.71361,1.333342 -0.71361,1.935547 0,1.935547 1.71043,0 1.24831,11.248172 -0.56836,13.841797 -0.88093,1.25794 -1.33109,2.557585 -1,2.888672 0.33101,0.331086 0.60352,0.07724 0.60352,-0.564453 0,-0.641651 0.45,-1.166016 1,-1.166016 1.67652,0 1.18397,11.289784 -0.60352,13.841797 -0.88093,1.25794 -1.33109,2.557583 -1,2.888673 0.33101,0.33112 0.60352,0.0772 0.60352,-0.56445 0,-0.641687 0.45,-1.16602 1,-1.16602 1.67652,0 1.18397,11.28978 -0.60352,13.8418 -0.88093,1.25794 -1.33109,2.55758 -1,2.88867 0.33101,0.33112 0.60352,0.0511 0.60352,-0.62305 0,-0.67419 0.45,-0.9472 1,-0.60742 1.41263,0.87303 1.24631,11.85138 -0.20118,13.29883 -0.93331,0.93354 -0.93331,1.20117 0,1.20117 1.86596,0 1.60103,12.42326 -0.29882,14 -0.825,0.6847 -1.46534,1.7529 -1.42188,2.37305 0.0496,0.70847 0.26688,0.66237 0.58399,-0.12305 0.27741,-0.6875 0.91577,-1.25 1.41992,-1.25 1.24006,0 1.16945,10.65761 -0.0859,13.00391 -0.67026,1.25242 -0.67026,2.0799 0,2.49414 1.3005,0.80375 1.3005,10.07588 0,12.50586 -0.67026,1.25242 -0.67026,2.0799 0,2.49414 1.31554,0.81403 1.29239,10.08949 -0.0332,12.5664 -0.71362,1.33334 -0.71362,1.93555 0,1.93555 1.71042,0 1.25026,11.24817 -0.56641,13.8418 -0.88093,1.25794 -1.33109,2.55758 -1,2.88867 0.33101,0.33112 0.60156,0.0772 0.60156,-0.56445 0,-0.64165 0.45001,-1.16602 1,-1.16602 1.67653,0 1.18593,11.28978 -0.60156,13.8418 -0.88093,1.25794 -1.33109,2.55758 -1,2.88867 0.33101,0.33112 0.60156,0.0772 0.60156,-0.56445 0,-0.64165 0.45001,-1.16602 1,-1.16602 1.67653,0 1.18593,11.28978 -0.60156,13.8418 -0.88093,1.25794 -1.33109,2.55758 -1,2.88867 0.33101,0.33112 0.60156,0.0511 0.60156,-0.62305 0,-0.67419 0.45001,-0.9472 1,-0.60742 1.41264,0.87303 1.24631,11.85138 -0.20117,13.29883 -0.93332,0.93354 -0.93332,1.20117 0,1.20117 1.86595,0 1.60103,12.42326 -0.29883,14 -0.82499,0.6847 -1.46534,1.7529 -1.42187,2.37305 0.0496,0.70847 0.26688,0.66237 0.58398,-0.12305 0.27742,-0.6875 0.91577,-1.25 1.41992,-1.25 1.24007,0 1.16954,10.65761 -0.0859,13.00391 -0.67026,1.25242 -0.67026,2.0799 0,2.49414 0.55151,0.34083 1.0039,2.87326 1.0039,5.62695 0,2.75373 -0.45239,5.84846 -1.0039,6.87891 -0.67026,1.25242 -0.67026,2.0799 0,2.49414 1.31554,0.81403 1.29231,10.08949 -0.0332,12.5664 -0.71361,1.33334 -0.71361,1.93555 0,1.93555 1.71043,0 1.25027,11.24817 -0.5664,13.8418 -0.88093,1.25794 -1.33109,2.55758 -1,2.88867 0.33101,0.33112 0.60156,0.0772 0.60156,-0.56445 0,-0.64165 0.45,-1.16602 1,-1.16602 1.67652,0 1.18593,11.28978 -0.60156,13.8418 -0.88093,1.25794 -1.33109,2.55758 -1,2.88867 0.33101,0.33112 0.60156,0.0772 0.60156,-0.56445 0,-0.64165 0.45,-1.16602 1,-1.16602 1.67652,0 1.18597,11.28978 -0.60156,13.8418 -0.88093,1.25794 -1.33109,2.55758 -1,2.88867 0.33101,0.33112 0.60156,0.0511 0.60156,-0.62305 0,-0.67419 0.45,-0.9472 1,-0.60742 1.36528,0.8437 1.27154,12.21412 -0.10742,13.06641 -0.77428,0.47852 -0.78586,0.88156 -0.041,1.34179 0.58545,0.36182 1.17606,3.68413 1.3125,7.38282 0.15836,4.28983 0.55356,6.17857 1.0918,5.21679 1.25552,-2.24353 4.74414,-1.91752 4.74414,0.44336 l 0.008,0.002 c 0,1.89748 -0.94381,1.95029 -34.55859,1.92383 -34.44579,-0.0273 -34.55879,-0.0347 -34.25,-2.11133 0.17027,-1.14579 1.11444,-2.19968 2.09961,-2.34179 1.40625,-0.20262 1.6526,0.20842 1.14648,1.91015 -0.63364,2.13064 -0.61862,2.13249 0.86719,0.18164 1.22521,-1.60856 2.71358,-1.98866 7.85352,-2 4.27136,-0.0102 6.27082,0.36256 6.12304,1.14258 -0.15122,0.79843 0.66118,0.71892 2.61524,-0.25586 1.5863,-0.79135 5.09394,-1.31455 7.96679,-1.18945 4.64637,0.20217 5.076,0.41602 4.53125,2.25586 -0.59811,2.02004 -0.5915,2.01932 0.91211,0.0449 1.22691,-1.61091 2.71174,-1.98866 7.85352,-2 5.76926,-0.0123 6.31466,0.16848 6.06445,1.98828 -0.24136,1.75635 -0.14856,1.79755 0.75196,0.33789 0.5639,-0.91419 2.82375,-1.96636 5.02343,-2.33789 3.56875,-0.60291 4,-0.98291 4,-3.51757 0,-1.56239 0.78751,-3.63448 1.75,-4.60547 1.608,-1.62233 1.61167,-1.7135 0.0469,-1.1211 -1.58487,0.59985 -1.70224,-1.88619 -1.69922,-35.78515 0.003,-32.93934 0.16652,-36.59398 1.70312,-38.14454 1.59942,-1.61396 1.59646,-1.67643 -0.0508,-1.05273 -1.56177,0.59146 -1.75,-0.0806 -1.75,-6.25586 0,-5.49415 0.36038,-7.15144 1.75,-8.04492 1.61239,-1.03597 1.61379,-1.08249 0.0293,-0.5918 -1.5713,0.48662 -1.72045,-0.67816 -1.71289,-13.38867 0.005,-11.80392 0.26694,-14.18356 1.7207,-15.65039 1.6049,-1.61957 1.6062,-1.68945 0.0117,-1.08594 -1.58487,0.59985 -1.70416,-1.88619 -1.70117,-35.78515 0.003,-32.93934 0.16656,-36.59398 1.70312,-38.14454 1.59946,-1.61396 1.59813,-1.67643 -0.0488,-1.05273 -1.56178,0.59146 -1.75,-0.0806 -1.75,-6.25586 0,-5.49415 0.36038,-7.15144 1.75,-8.04492 1.61238,-1.03597 1.61367,-1.08249 0.0293,-0.5918 -1.5713,0.48662 -1.7224,-0.67816 -1.71484,-13.38867 0.005,-11.80392 0.26694,-14.18356 1.7207,-15.65039 1.6049,-1.61957 1.60616,-1.68945 0.0117,-1.08594 -1.58487,0.59985 -1.70224,-1.88619 -1.69922,-35.785154 0.003,-32.93933 0.16652,-36.59398 1.70313,-38.144531 1.59768,-1.61382 1.59614,-1.676649 -0.0156,-1.066406 -1.58736,0.600945 -1.70941,-1.051507 -1.66406,-22.556641 0.0423,-20.135509 0.26885,-23.4669833 1.71289,-25.1874999 1.3957,-1.6628409 1.40714,-1.78437 0.0723,-0.7578125 -0.87561,0.672 -1.83335,0.9826811 -2.12891,0.6875 -0.29533,-0.2954834 -6.55415,-0.5371094 -13.9082,-0.5371094 -11.20853,0 -13.09067,-0.2102997 -11.63672,-1.3027343 0.95399,-0.7167496 1.44436,-1.5946991 1.08984,-1.9492188 -0.35463,-0.3545953 -1.25061,0.222491 -1.99219,1.28125 -1.30129,1.8578268 -3.15381,1.9237534 -53.08984,1.9238281 -42.28362,7.56e-5 -51.42521,-0.2329724 -50.00781,-1.2792968 0.95399,-0.7041638 1.44436,-1.5712616 1.08984,-1.9257813 -0.35459,-0.3545953 -1.25289,0.2240539 -1.99609,1.2851563 -1.30534,1.8635716 -3.11323,1.929434 -53.08985,1.921875 -42.22945,-0.00552 -51.41956,-0.2403181 -50.0039,-1.2832032 0.95403,-0.7027645 1.44436,-1.5693084 1.08984,-1.9238281 -0.35463,-0.3545953 -1.25214,0.2218485 -1.99414,1.28125 -1.30239,1.8594142 -3.14301,1.9274821 -53.08984,1.9257813 -42.26918,-0.00144 -51.42285,-0.2358327 -50.00586,-1.28125 0.95399,-0.7038236 1.44436,-1.5712616 1.08984,-1.9257813 C 143.4754,3.3033678 142.58105,3.8793079 141.83984,4.9375 140.53946,6.7941551 138.67911,6.8607479 88.75,6.8574219 46.55918,6.8545494 37.327888,6.6203175 38.742188,5.5800781 39.69617,4.8784088 40.186551,4.0127228 39.832031,3.6582031 39.477436,3.3036078 38.540085,3.9395156 37.748047,5.0703125 36.505376,6.8445361 35.327715,7.1070218 29.158203,6.9902344 25.225907,6.9165334 19.648018,6.8872934 16.763672,6.9277344 l -5.244141,0.074219 -0.255859,83.2499996 c -0.253833,82.628257 -0.270814,83.246727 -2.2558595,82.904297 -2.9765669,-0.51356 -3.1090689,-1.03968 -0.6894531,-2.73437 1.2043464,-0.84352 2.1752746,-2.07029 2.1601566,-2.72657 -0.01674,-0.65635 -0.4954201,-0.39789 -1.0625004,0.57617 -0.5670803,0.97406 -1.4212721,1.53114 -1.8984375,1.23633 -1.3000819,-0.8036 -1.1331958,-28.50586 0.171875,-28.50586 0.7384819,0 0.7455008,-0.38428 0.025391,-1.25195 C 6.2730653,138.01459 6.278406,21.001953 7.71875,21.001953 c 0.6539339,0 0.6109007,-0.509452 -0.1171875,-1.386719 -0.6978142,-0.840793 -1.0713609,-4.551289 -0.9511719,-9.4375 L 6.8476562,2.1269531 454.75391,2.1191406 c 420.72211,-0.00544 447.8245,0.096848 446.5957,1.6875 -1.20102,1.5535748 -1.14223,1.5510341 0.71484,-0.023437 1.79883,-1.5249638 4.86976,-1.7118728 27.73243,-1.6816411 z M 782.5,3 c -0.55,0 -1,0.4500031 -1,1 0,0.5499969 0.45,1 1,1 0.55,0 1,-0.4500031 1,-1 0,-0.5499969 -0.45,-1 -1,-1 z M 24.111328,3.34375 C 23.752738,3.2834677 23.5,3.5045598 23.5,3.9414062 23.5,4.5238692 23.950003,5 24.5,5 c 0.549997,0 1,-0.1987614 1,-0.4414062 C 25.5,4.3160615 25.049997,3.8397795 24.5,3.5 24.362501,3.4150268 24.230858,3.3638441 24.111328,3.34375 Z m 30,0 C 53.752738,3.2834677 53.5,3.5045598 53.5,3.9414062 53.5,4.5238692 53.950003,5 54.5,5 c 0.549997,0 1,-0.1987614 1,-0.4414062 C 55.5,4.3160615 55.049997,3.8397795 54.5,3.5 54.362501,3.4150268 54.230858,3.3638441 54.111328,3.34375 Z m 44,0 C 97.752728,3.2834677 97.5,3.5045598 97.5,3.9414062 97.5,4.5238692 97.950003,5 98.5,5 c 0.549997,0 1,-0.1987614 1,-0.4414062 C 99.5,4.3160615 99.049997,3.8397795 98.5,3.5 98.362501,3.4150268 98.230862,3.3638441 98.111328,3.34375 Z m 30.000002,0 C 127.75273,3.2834677 127.5,3.5045598 127.5,3.9414062 127.5,4.5238692 127.95,5 128.5,5 c 0.55,0 1,-0.1987614 1,-0.4414062 0,-0.2425323 -0.45,-0.7188143 -1,-1.0585938 -0.1375,-0.084973 -0.26914,-0.1361559 -0.38867,-0.15625 z m 30,0 C 157.75273,3.2834677 157.5,3.5045598 157.5,3.9414062 157.5,4.5238692 157.95,5 158.5,5 c 0.55,0 1,-0.1987614 1,-0.4414062 0,-0.2425323 -0.45,-0.7188143 -1,-1.0585938 -0.1375,-0.084973 -0.26914,-0.1361559 -0.38867,-0.15625 z m 44,0 C 201.75274,3.2834677 201.5,3.5045598 201.5,3.9414062 201.5,4.5238692 201.95,5 202.5,5 c 0.55,0 1,-0.1987614 1,-0.4414062 0,-0.2425323 -0.45,-0.7188143 -1,-1.0585938 -0.1375,-0.084973 -0.26914,-0.1361559 -0.38867,-0.15625 z m 30,0 C 231.75274,3.2834677 231.5,3.5045598 231.5,3.9414062 231.5,4.5238692 231.95,5 232.5,5 c 0.55,0 1,-0.1987614 1,-0.4414062 0,-0.2425323 -0.45,-0.7188143 -1,-1.0585938 -0.1375,-0.084973 -0.26914,-0.1361559 -0.38867,-0.15625 z m 30,0 C 261.75274,3.2834677 261.5,3.5045598 261.5,3.9414062 261.5,4.5238692 261.95,5 262.5,5 c 0.55,0 1,-0.1987614 1,-0.4414062 0,-0.2425323 -0.45,-0.7188143 -1,-1.0585938 -0.1375,-0.084973 -0.26914,-0.1361559 -0.38867,-0.15625 z m 74,0 C 335.75274,3.2834677 335.5,3.5045598 335.5,3.9414062 335.5,4.5238692 335.95,5 336.5,5 c 0.55,0 1,-0.1987614 1,-0.4414062 0,-0.2425323 -0.45,-0.7188143 -1,-1.0585938 -0.1375,-0.084973 -0.26914,-0.1361559 -0.38867,-0.15625 z m 30,0 C 365.75274,3.2834677 365.5,3.5045598 365.5,3.9414062 365.5,4.5238692 365.95,5 366.5,5 c 0.55,0 1,-0.1987614 1,-0.4414062 0,-0.2425323 -0.45,-0.7188143 -1,-1.0585938 -0.1375,-0.084973 -0.26914,-0.1361559 -0.38867,-0.15625 z m 74,0 C 439.75273,3.2834677 439.5,3.5045598 439.5,3.9414062 439.5,4.5238692 439.95,5 440.5,5 c 0.55,0 1,-0.1987614 1,-0.4414062 0,-0.2425323 -0.45,-0.7188143 -1,-1.0585938 -0.1375,-0.084973 -0.26914,-0.1361559 -0.38867,-0.15625 z m 30,0 C 469.75273,3.2834677 469.5,3.5045598 469.5,3.9414062 469.5,4.5238692 469.95,5 470.5,5 c 0.55,0 1,-0.1987614 1,-0.4414062 0,-0.2425323 -0.45,-0.7188143 -1,-1.0585938 -0.1375,-0.084973 -0.26914,-0.1361559 -0.38867,-0.15625 z m 74,0 C 543.75274,3.2834677 543.5,3.5045598 543.5,3.9414062 543.5,4.5238692 543.95,5 544.5,5 c 0.55,0 1,-0.1987614 1,-0.4414062 0,-0.2425323 -0.45,-0.7188143 -1,-1.0585938 -0.1375,-0.084973 -0.26914,-0.1361559 -0.38867,-0.15625 z m 30,0 C 573.75274,3.2834677 573.5,3.5045598 573.5,3.9414062 573.5,4.5238692 573.95,5 574.5,5 c 0.55,0 1,-0.1987614 1,-0.4414062 0,-0.2425323 -0.45,-0.7188143 -1,-1.0585938 -0.1375,-0.084973 -0.26914,-0.1361559 -0.38867,-0.15625 z m 60,0 C 633.75274,3.2834677 633.5,3.5045598 633.5,3.9414062 633.5,4.5238692 633.95,5 634.5,5 c 0.55,0 1,-0.1987614 1,-0.4414062 0,-0.2425323 -0.45,-0.7188143 -1,-1.0585938 -0.1375,-0.084973 -0.26914,-0.1361559 -0.38867,-0.15625 z m 44,0 C 677.75274,3.2834677 677.5,3.5045598 677.5,3.9414062 677.5,4.5238692 677.95,5 678.5,5 c 0.55,0 1,-0.1987614 1,-0.4414062 0,-0.2425323 -0.45,-0.7188143 -1,-1.0585938 -0.1375,-0.084973 -0.26914,-0.1361559 -0.38867,-0.15625 z m 60,0 C 737.75274,3.2834677 737.5,3.5045598 737.5,3.9414062 737.5,4.5238692 737.95,5 738.5,5 c 0.55,0 1,-0.1987614 1,-0.4414062 0,-0.2425323 -0.45,-0.7188143 -1,-1.0585938 -0.1375,-0.084973 -0.26914,-0.1361559 -0.38867,-0.15625 z m 104,0 C 841.75273,3.2834677 841.5,3.5045598 841.5,3.9414062 841.5,4.5238692 841.95,5 842.5,5 c 0.55,0 1,-0.1987614 1,-0.4414062 0,-0.2425323 -0.45,-0.7188143 -1,-1.0585938 -0.1375,-0.084973 -0.26914,-0.1361559 -0.38867,-0.15625 z m 30,0 C 871.75273,3.2834677 871.5,3.5045598 871.5,3.9414062 871.5,4.5238692 871.95,5 872.5,5 c 0.55,0 1,-0.1987614 1,-0.4414062 0,-0.2425323 -0.45,-0.7188143 -1,-1.0585938 -0.1375,-0.084973 -0.26914,-0.1361559 -0.38867,-0.15625 z m 74,0 C 945.75274,3.2834677 945.5,3.5045598 945.5,3.9414062 945.5,4.5238692 945.95,5 946.5,5 c 0.55,0 1,-0.1987614 1,-0.4414062 0,-0.2425323 -0.45,-0.7188143 -1,-1.0585938 -0.1375,-0.084973 -0.26914,-0.1361559 -0.38867,-0.15625 z M 246.10547,9 h 231.39258 v 183 183 h -30 -30 v -37 -37 l -5.25,0.008 c -8.34085,0.0111 -21.16404,3.59837 -31.11524,8.70508 -7.46895,3.83286 -10.87404,6.43008 -18.66992,14.23828 -13.14297,13.16372 -19.36939,25.30214 -22.08789,43.06055 L 339.15234,375 H 176.32617 13.498047 V 193.58203 c 0,-99.779994 0.273689,-182.130027 0.607422,-182.999999 C 14.656562,9.1461155 36.027807,9 246.10547,9 Z M 487.5,9 H 718 948.5 v 93.5 93.5 h -39.83398 c -21.90834,0 -40.03937,0.20733 -40.29297,0.46094 -0.25361,0.25364 -0.12631,4.28223 0.2832,8.95312 1.35651,15.47131 8.4754,32.20199 19.10547,44.89844 12.90346,15.41174 33.25278,25.96965 54.48828,28.26953 l 6.25,0.67578 V 328.12891 377 H 761.63867 574.77539 l -0.64844,-6.33008 c -2.47933,-24.19963 -17.06016,-47.03679 -37.78906,-59.18554 -8.80074,-5.158 -22.69969,-9.59641 -32.06445,-10.23829 L 496.5,300.71484 V 338.85742 377 H 492 487.5 V 193 Z M 10.035156,32.398438 c -0.3047111,0.07243 -0.6889391,0.568921 -0.9707029,1.308593 -0.5427023,1.425185 -0.4270814,1.540805 0.5605469,0.560547 0.683414,-0.678312 0.989672,-1.48689 0.681641,-1.794922 -0.07697,-0.07697 -0.169913,-0.09836 -0.271485,-0.07422 z m 0,15 c -0.3047111,0.07243 -0.6889391,0.568921 -0.9707029,1.308593 -0.5427023,1.425185 -0.4270814,1.540805 0.5605469,0.560547 0.683414,-0.678312 0.989672,-1.48689 0.681641,-1.794922 -0.07697,-0.07697 -0.169913,-0.09836 -0.271485,-0.07422 z m 0,60.000002 c -0.3047111,0.0724 -0.6889391,0.56892 -0.9707029,1.30859 -0.5427023,1.42519 -0.4270814,1.54081 0.5605469,0.56055 0.683414,-0.67831 0.989672,-1.48689 0.681641,-1.79492 -0.07697,-0.077 -0.169913,-0.0984 -0.271485,-0.0742 z m 0,15 c -0.3047111,0.0724 -0.6889391,0.56892 -0.9707029,1.30859 -0.5427023,1.42519 -0.4270814,1.54081 0.5605469,0.56055 0.683414,-0.67831 0.989672,-1.48689 0.681641,-1.79492 -0.07697,-0.077 -0.169913,-0.0984 -0.271485,-0.0742 z m 277.777344,23.6914 c -0.004,10e-4 -0.018,0.006 -0.0234,0.008 0.002,4.3e-4 0.002,0.002 0.004,0.002 0.003,-0.001 0.021,-0.009 0.0234,-0.01 -5.3e-4,-1.4e-4 -0.003,1.5e-4 -0.004,0 z m -277.777344,6.3086 c -0.3047111,0.0724 -0.6889391,0.56892 -0.9707029,1.30859 -0.5427023,1.42519 -0.4270814,1.54081 0.5605469,0.56055 0.683414,-0.67831 0.989672,-1.48689 0.681641,-1.79492 -0.07697,-0.077 -0.169913,-0.0984 -0.271485,-0.0742 z m 638.730464,4.17187 c -0.0724,0.0338 -0.14248,0.0713 -0.21679,0.10157 -0.19623,0.7127 -0.42052,1.41943 -0.65625,2.125 0.52665,-0.10997 1.03068,-0.26293 1.5039,-0.45704 -0.30845,-0.61716 -0.51338,-1.20558 -0.63086,-1.76953 z m 14.08985,1.43164 c -0.42278,0.14911 -0.75071,0.51442 -1.17969,0.64453 -0.21525,0.0653 -0.32239,0.0999 -0.50586,0.15625 l 3.32813,-0.13085 v -0.25586 c -0.12676,-0.0178 -0.25435,-0.0233 -0.38086,-0.0449 -0.41632,-0.0547 -0.8699,0.0341 -1.25,-0.14453 -0.0677,-0.0318 0.0578,-0.24955 -0.0117,-0.22461 z m 118.02344,3.7461 c 0.21128,0.13602 0.63873,0.3538 0.5039,0.26757 -0.13593,-0.0869 -0.27202,-0.17337 -0.4082,-0.25976 -0.0317,-0.001 -0.0639,-0.006 -0.0957,-0.008 z m -37.71289,1.49804 c 0.76428,0.13645 1.53775,0.12802 2.27539,0 -0.5814,-5e-5 -1.16281,2.5e-4 -1.74414,0 -0.1771,-3e-5 -0.35416,6e-5 -0.53125,0 z M 6.5,175 H 9 11.5 V 236.5 298 H 9 6.5 v -61.5 z m 695,5 v 0.23438 c 1.26954,-8.9e-4 2.53907,-0.003 3.80859,0.006 0.0261,-0.0125 0.0298,-0.0124 0.0566,-0.0254 0.0386,-0.0185 -0.13815,-0.0616 -0.0996,-0.0801 0.11299,-0.0541 0.2236,-0.0861 0.33594,-0.13477 z m -478.96875,14.41211 c -0.008,0.0743 -0.0332,0.17535 -0.0332,0.23828 0,0.84872 0.74284,0.58931 1.53125,-0.23633 -0.005,-6.9e-4 -0.009,-6e-4 -0.0137,-0.002 -0.49454,0.0172 -0.98944,0.004 -1.48437,0 z M 950.5,196 h 3 3 v 42 42 h -3 -3 v -42 z m -81.27539,2 H 908.86133 948.5 v 40 c 0,37.47557 -0.11044,39.99261 -1.75,39.87695 -30.24911,-2.13346 -56.05854,-19.16396 -68.76758,-45.37695 -4.82638,-9.95456 -7.04407,-17.58027 -8.07422,-27.75 z m -175.27734,2.9707 c -0.043,9.9e-4 -0.0859,0.003 -0.12891,0.004 0.0158,0.008 0.0288,0.0254 0.0469,0.0254 0.0245,0 0.0551,-0.0213 0.082,-0.0293 z M 953.52539,282 c 2.2447,0 2.6495,2.86618 0.87305,6.18555 -0.79971,1.49427 -0.79971,1.8712 0,1.37695 0.75394,-0.46598 1.09961,1.24446 1.09961,5.44336 0,3.36865 -0.49474,7.04946 -1.09961,8.17969 -0.74245,1.38841 -0.75683,1.84271 -0.041,1.40039 1.57826,-0.9755 1.40652,42.37442 -0.17578,44.33203 -0.92666,1.14641 -0.91067,1.30192 0.0664,0.71484 0.95142,-0.57161 1.25,0.88635 1.25,6.10742 0,4.1023 -0.50237,7.40162 -1.25,8.20704 -0.99999,1.07739 -0.99999,1.20521 0,0.64062 0.94726,-0.53473 1.25,0.95542 1.25,6.15234 0,4.1023 -0.50237,7.40162 -1.25,8.20704 -0.91983,0.9925 -0.92998,1.16603 -0.0352,0.66211 0.92515,-0.5209 1.20614,2.30249 1.17969,11.85351 C 955.36005,402.97038 955.20559,404 953.51172,404 c -2.32936,0 -2.88265,-1.6237 -1.95508,-5.75 0.40328,-1.78753 0.41018,-3.25 0.0156,-3.25 -0.39421,0 -0.54369,-2.17204 -0.33204,-4.82617 0.28007,-3.51277 -0.0404,-5.17716 -1.17773,-6.1211 -0.85939,-0.71304 -1.57668,-0.90563 -1.5918,-0.42578 -0.0166,0.47985 -0.12905,42.27304 -0.25,92.87305 l -0.004,0.002 -0.22071,92 -125,0.0762 c -68.75002,0.0423 -126.91251,-0.095 -129.25,-0.30664 l -4.25,-0.38476 v -90.44336 -90.44141 h 4 c 2.88892,0 4,-0.41667 4,-1.5 0,-0.82499 -0.7875,-1.51846 -1.75,-1.54492 -0.96249,-0.0263 -14.92198,-0.0387 -31.02148,-0.0273 -28.49106,0.0197 -29.24353,-0.0303 -28.25,-1.88672 1.32858,-2.48247 3.77867,-3.1991 9.98242,-2.91602 4.60328,0.21007 5.00581,0.41883 4.44727,2.30274 -0.61036,2.05855 -0.60543,2.05869 0.9082,0.0703 1.22071,-1.60346 2.83742,-2.03714 8.15234,-2.18945 6.3893,-0.18293 6.60469,-0.11057 5.97657,2 -0.6395,2.14866 -0.62406,2.1527 0.85937,0.20507 1.22517,-1.60856 2.71359,-1.98866 7.85352,-2 4.27139,-0.0103 6.27082,0.3626 6.12304,1.14258 -0.15122,0.79843 0.66122,0.71896 2.61524,-0.25586 1.58634,-0.79135 5.09398,-1.3165 7.9668,-1.1914 4.61064,0.20058 5.08319,0.43042 4.63085,2.25586 -0.42939,1.7328 -0.33192,1.69992 0.65821,-0.22461 l 1.16015,-2.25781 126.4961,0.0234 c 69.57252,0.0125 126.66681,-0.14923 126.87695,-0.35937 0.21014,-0.21022 0.33838,-8.65505 0.2832,-18.76563 -0.0552,-10.11054 -0.0303,-19.50778 0.0547,-20.88281 0.0858,-1.37499 0.12032,-3.0625 0.0781,-3.75 -0.042,-0.68753 -0.0923,-3.38751 -0.10743,-6 -0.017,-2.61252 -0.0617,-7.89998 -0.0957,-11.75 -0.034,-3.84998 -0.0421,-7.675 -0.0156,-8.5 0.0268,-0.825 0.0773,-7.2375 0.11132,-14.25 0.0583,-12.00306 0.17824,-12.75 2.03516,-12.75 z M 6.7246094,300 H 9.1113281 C 10.424714,300 11.5,300.45 11.5,301 c 0,0.55 -0.401429,1 -0.892578,1 -0.49115,0 -1.1768549,0.73976 -1.5234376,1.64258 -0.5266772,1.3725 -0.3807447,1.43374 0.8925781,0.37695 C 11.335832,302.89142 11.5,306.85099 11.5,340.87891 V 379 l 4.25,0.11914 c 2.337487,0.0639 4.622213,0.0536 5.076172,-0.0254 0.453921,-0.079 0.521162,0.81041 0.15039,1.97852 l -0.673828,2.125 2.123047,-2.12305 c 1.709329,-1.70925 3.199138,-2.08849 7.636719,-1.94336 6.16165,0.20133 7.223864,0.9402 4.814453,3.34961 -1.245543,1.2455 -3.361134,1.60986 -8.759765,1.50781 -3.914419,-0.0726 -8.804662,-0.10256 -10.867188,-0.0625 L 11.5,384 v 22.78516 l -0.002,0.002 c 0,22.38799 -0.03502,22.78516 -2.0722658,22.78516 -1.1403582,0 -2.2037851,-0.24036 -2.3632812,-0.53516 C 6.9037201,428.74206 6.7262368,417.8125 6.6699219,404.75 6.5987534,388.2417 6.9000799,381 7.65625,381 c 0.7683402,0 0.7771283,-0.37513 0.033203,-1.27148 -0.7028031,-0.84673 -1.0400018,-14.38063 -1.0097656,-40.5 z m 490.7734406,1.76758 6.59375,0.70703 c 26.32369,2.81904 49.29877,18.64737 61.2539,42.20312 2.86451,5.64409 6.75194,19.52436 7.44336,26.57227 l 0.56446,5.75 h -37.92774 -37.92773 v -37.61523 z m -81,0.23242 v 36.5 36.5 h -37.82032 -37.82226 l 0.75586,-6.25 c 1.07157,-8.86613 5.20118,-21.17451 9.61133,-28.64648 4.90303,-8.30703 15.52969,-19.6623 23.25195,-24.84766 10.813,-7.26078 28.09533,-13.07897 39.27344,-13.2207 z M 10.035156,347.39844 c -0.3047111,0.0724 -0.6889391,0.56892 -0.9707029,1.30859 -0.5427023,1.42519 -0.4270814,1.53885 0.5605469,0.55859 0.683414,-0.67823 0.989672,-1.48493 0.681641,-1.79296 -0.07697,-0.077 -0.169913,-0.0984 -0.271485,-0.0742 z m 0,15 c -0.3047111,0.0724 -0.6889391,0.56892 -0.9707029,1.30859 -0.5427023,1.42519 -0.4270814,1.53885 0.5605469,0.55859 0.683414,-0.67823 0.989672,-1.48493 0.681641,-1.79296 -0.07697,-0.077 -0.169913,-0.0984 -0.271485,-0.0742 z m 593.812504,16.57617 c 2.79863,-0.066 2.6857,0.38233 2.15625,2.15234 -0.69075,2.30918 -0.66881,2.3189 0.8125,0.37305 1.22071,-1.60346 2.8355,-2.03714 8.15039,-2.18945 6.25428,-0.17904 6.59285,-0.0756 5.98242,1.84765 -0.63474,2.00009 -0.6066,1.99934 1.47656,-0.084 1.70933,-1.70929 3.19914,-2.08849 7.63672,-1.94336 6.09751,0.19926 7.22072,0.94334 4.91211,3.25195 v 0.002 c -1.31675,1.31663 -5.51093,1.54025 -28.50977,1.51757 L 579.5,383.87695 v -2.48828 c 0,-2.39758 0.21008,-2.47821 5.75,-2.18945 5.11442,0.26672 5.7132,0.52187 5.42188,2.30078 -0.32315,1.9731 -0.30811,1.97328 1.1289,0.0547 1.11942,-1.49462 3.01572,-2.04385 8.18555,-2.37305 1.67245,-0.10649 2.92845,-0.18502 3.86133,-0.20703 z M 336.5,378.97852 378.75,379.23828 421,379.5 v 2.5 2.5 l -42.25,0.26172 -42.25,0.25976 V 382 Z M 535.46875,379 H 577.5 v 3 3 h -42.03125 c -36.43877,0 -42.10841,-0.19958 -42.60742,-1.5 -0.31673,-0.825 -0.31673,-2.175 0,-3 0.49901,-1.30042 6.16865,-1.5 42.60742,-1.5 z m -491.158203,0.0703 c 0.662107,0.003 1.377137,0.0213 2.150391,0.0566 4.603267,0.21003 5.005766,0.41883 4.447265,2.30274 -0.610356,2.05855 -0.60546,2.05869 0.908203,0.0703 1.220712,-1.6035 2.835506,-2.03714 8.150391,-2.18945 6.389329,-0.18293 6.606635,-0.11057 5.978515,2 -0.639525,2.14866 -0.624013,2.1527 0.859376,0.20507 1.225201,-1.60856 2.713584,-1.98866 7.853515,-2 4.271358,-0.0102 6.270827,0.36256 6.123047,1.14258 -0.151219,0.79843 0.661181,0.71892 2.615234,-0.25586 1.586306,-0.79135 5.093941,-1.3165 7.966797,-1.1914 4.646362,0.2022 5.075994,0.41602 4.53125,2.25586 -0.59811,2.02004 -0.591462,2.02087 0.91211,0.0469 1.22691,-1.61091 2.711701,-1.98866 7.853519,-2 5.78653,-0.0123 6.3106,0.16108 6.01172,1.98633 l -0.32618,2 1.4961,-2 c 1.22097,-1.63185 2.66245,-2 7.82812,-2 5.7738,0 6.30046,0.17611 6.00196,2 l -0.32618,2 1.4961,-2 c 1.20226,-1.60653 2.79998,-2.03714 8.125,-2.18945 6.25428,-0.17904 6.59285,-0.0756 5.98242,1.84765 -0.63474,2.00009 -0.6066,1.99934 1.47656,-0.084 1.70933,-1.70929 3.19914,-2.08849 7.63672,-1.94336 6.08757,0.19895 7.21935,0.94276 4.92578,3.23633 -1.34042,1.33692 -8.92447,1.52934 -60.513671,1.52734 -57.403645,-0.002 -58.960752,-0.0528 -57.982421,-1.88086 1.149006,-2.14696 3.183607,-2.96209 7.818359,-2.94336 z m 120.000003,0 c 0.6621,0.003 1.37713,0.0213 2.15039,0.0566 4.60327,0.21003 5.00576,0.41883 4.44726,2.30274 -0.61035,2.05855 -0.60542,2.05869 0.90821,0.0703 1.22071,-1.6035 2.8355,-2.03714 8.15039,-2.18945 6.38933,-0.18293 6.60663,-0.11057 5.97851,2 -0.63953,2.14866 -0.62401,2.1527 0.85938,0.20507 1.22521,-1.60856 2.71358,-1.98866 7.85351,-2 4.27136,-0.0102 6.27083,0.36256 6.12305,1.14258 -0.15122,0.79843 0.66118,0.71892 2.61523,-0.25586 1.58631,-0.79135 5.09394,-1.3165 7.9668,-1.1914 4.64636,0.2022 5.07599,0.41602 4.53125,2.25586 -0.59811,2.02004 -0.59146,2.02087 0.91211,0.0469 1.22691,-1.61091 2.71173,-1.98866 7.85352,-2 5.78653,-0.0123 6.3106,0.16108 6.01172,1.98633 l -0.32618,2 1.4961,-2 c 1.22097,-1.63185 2.66245,-2 7.82812,-2 5.7738,0 6.30046,0.17611 6.00196,2 l -0.32618,2 1.4961,-2 c 1.20226,-1.60653 2.79998,-2.03714 8.125,-2.18945 6.25428,-0.17904 6.59285,-0.0756 5.98242,1.84765 -0.63474,2.00009 -0.6066,1.99934 1.47656,-0.084 1.70933,-1.70929 3.19914,-2.08849 7.63672,-1.94336 6.08757,0.19895 7.21935,0.94276 4.92578,3.23633 -1.34042,1.33692 -8.92447,1.52934 -60.51367,1.52734 -57.40365,-0.002 -58.96075,-0.0528 -57.98242,-1.88086 1.14901,-2.14696 3.18361,-2.96209 7.81836,-2.94336 z m 119.98828,0 c 0.66476,0.003 1.38412,0.0212 2.16211,0.0566 4.60327,0.21007 5.00381,0.41883 4.44531,2.30274 -0.61036,2.05855 -0.60347,2.05869 0.91016,0.0703 1.22071,-1.60346 2.8355,-2.03714 8.15039,-2.18945 6.38933,-0.18289 6.60663,-0.11057 5.97851,2 -0.63953,2.14866 -0.62401,2.15274 0.85938,0.20507 1.22521,-1.60856 2.71358,-1.98866 7.85351,-2 4.33554,-0.0104 6.26982,0.35655 6.11524,1.16211 -0.15844,0.82576 0.58975,0.75384 2.5,-0.24218 1.49937,-0.78172 4.66144,-1.35218 7.02539,-1.26563 3.74604,0.13686 4.25965,0.42608 4,2.24414 -0.27443,1.92038 -0.99865,2.09825 -9.12305,2.24414 -4.85371,0.087 -9.08114,0.41318 -9.39258,0.72461 -0.31143,0.31155 -0.54395,19.70287 -0.51758,43.0918 h -0.002 L 315.3125,470 h -2.40625 c -2.35094,0 -2.4082,-0.19401 -2.4082,-8.37695 0,-6.22677 0.38507,-8.69775 1.5,-9.62305 0.82499,-0.6847 1.5,-1.72475 1.5,-2.3125 0,-0.58779 -0.66122,-0.19651 -1.46875,0.87109 -1.30043,1.7192 -1.47355,-1.97474 -1.5,-32.30859 L 310.5,384 l -3.25,-0.0566 c -1.78753,-0.0329 -9.67976,-0.0327 -17.53906,0.006 -13.84403,0.0647 -14.25814,0.007 -13.25196,-1.87305 1.17812,-2.20129 3.18649,-3.02444 7.83985,-3.00586 z m 667.53906,1.31055 c -0.0901,-0.002 -0.2079,0.0394 -0.34961,0.12695 -0.54368,0.33604 -0.98828,1.03325 -0.98828,1.55078 0,1.43845 0.71608,1.1211 1.38086,-0.61132 0.25614,-0.66748 0.22756,-1.05961 -0.043,-1.06641 z M 14.5,387 H 161 307.5 v 44 44 h -38 -38 l 0.0352,3.75 c 0.11089,11.91923 5.72131,29.16465 13.0664,40.16406 12.76033,19.10873 36.63707,33.16162 58.14844,34.22461 l 4.75,0.23438 V 565.6875 578 h 84.9375 84.9375 l 0.35938,11.25 c 0.198,6.1875 0.43795,88.53751 0.5332,183 L 478.43945,944 H 246.46875 14.498047 l -0.01758,-17.25 c -0.02445,-20.46013 -0.0249,-122.51678 0.002,-254.5 L 14.5,577 h 42 42 v -4.5 -4.5 h -42 -42 l -0.02148,-9.25 c -0.0189,-8.01891 -0.0071,-132.77381 0.01563,-161.5 z m 303,0 h 185 185 v 90.5 90.5 h -185 -185 v -90.5 z m -4.46484,2.39844 c -0.30472,0.0724 -0.68894,0.56892 -0.97071,1.30859 -0.5427,1.42519 -0.42708,1.53885 0.56055,0.55859 0.68341,-0.67823 0.98967,-1.48493 0.68164,-1.79296 -0.077,-0.077 -0.16991,-0.0984 -0.27148,-0.0742 z M 950.5,406 h 3 3 v 61.5 61.5 h -3 -3 v -61.5 z m -940.464844,1.39844 c -0.3047111,0.0724 -0.6889391,0.56892 -0.9707029,1.30859 -0.5427023,1.42519 -0.4270814,1.53885 0.5605469,0.55859 0.683414,-0.67823 0.989672,-1.48493 0.681641,-1.79296 -0.07697,-0.077 -0.169913,-0.0984 -0.271485,-0.0742 z m 303.000004,12 c -0.30472,0.0724 -0.68894,0.56892 -0.97071,1.30859 -0.5427,1.42519 -0.42708,1.53885 0.56055,0.55859 0.68341,-0.67823 0.98967,-1.48493 0.68164,-1.79296 -0.077,-0.077 -0.16991,-0.0984 -0.27148,-0.0742 z M 6.5,431 H 9 11.5 V 473.5 516 H 9 6.5 v -42.5 z m 306.53516,3.39844 c -0.30472,0.0724 -0.68894,0.56892 -0.97071,1.30859 -0.5427,1.42519 -0.42708,1.53885 0.56055,0.55859 0.68341,-0.67823 0.98967,-1.48493 0.68164,-1.79296 -0.077,-0.077 -0.16991,-0.0984 -0.27148,-0.0742 z M 309.5,472 h 3 3 v 42.5 42.5 h -2.33398 c -1.28334,0 -2.63339,-0.2994 -3,-0.66602 -0.36658,-0.36665 -0.66602,-19.49167 -0.66602,-42.5 z m -76.28906,5 H 270.35547 307.5 v 37.5 37.5 l -3.25,-0.0937 c -4.97616,-0.14389 -15.65868,-2.48074 -21.44336,-4.68945 -26.61872,-10.16361 -47.03388,-36.35345 -49.04297,-62.91797 z M 6.6640625,517 H 9.0820312 11.5 v 27.53516 c 0,26.91333 0.043,27.51181 1.933594,26.5 C 14.497417,570.46581 17.883217,570 20.957031,570 h 5.589844 l -1.638672,2.5 c -1.440113,2.19802 -2.349604,2.5 -7.523437,2.5 H 11.5 v 31 31 H 9.2109375 c -2.1591307,0 -2.3030999,-0.42947 -2.5703125,-7.60547 -0.2509606,-6.73958 -0.048607,-7.77084 1.7871094,-9.05664 1.1394141,-0.79805 2.0561336,-1.98825 2.0410156,-2.64453 -0.01674,-0.65635 -0.4934666,-0.39594 -1.0605469,0.57812 -0.5670803,0.97425 -1.4164699,1.53284 -1.8867187,1.24219 C 7.0511978,619.22306 6.6670361,596.0381 6.6660156,567.99219 Z m 3.3710935,10.39844 c -0.3047111,0.0724 -0.6889391,0.56892 -0.9707029,1.30859 -0.5427023,1.42519 -0.4270814,1.54081 0.5605469,0.56055 0.683414,-0.67831 0.989672,-1.48689 0.681641,-1.79492 -0.07697,-0.077 -0.169913,-0.0984 -0.271485,-0.0742 z m 943.474614,3.59961 c 1.72388,0 1.99023,0.67652 1.99023,5.0664 0,2.7862 -0.49477,5.99087 -1.09961,7.1211 -0.74245,1.38841 -0.7544,1.84075 -0.0391,1.39843 1.57825,-0.97549 1.40652,42.37443 -0.17578,44.33204 -0.92667,1.1464 -0.91231,1.30191 0.0644,0.71484 0.95142,-0.57162 1.25,0.8883 1.25,6.10937 0,4.1023 -0.50237,7.39967 -1.25,8.20508 -0.99999,1.07739 -0.99999,1.20521 0,0.64063 0.94726,-0.53473 1.25,0.95737 1.25,6.15429 0,4.1023 -0.50237,7.39967 -1.25,8.20508 -0.89983,0.96953 -0.91286,1.15617 -0.0449,0.66797 1.55781,-0.87632 1.68849,25.78357 0.14062,28.67578 -0.74936,1.40005 -0.73429,1.75908 0.0547,1.27149 0.73089,-0.45158 1.09961,0.68206 1.09961,3.3789 0,3.68788 -0.23354,4.0586 -2.55859,4.0586 -1.45059,0 -2.29139,-0.43341 -1.94141,-1 0.51908,-0.84019 0.5929,-5.26332 0.4043,-24.25 -0.01,-0.9625 0.0313,-12.82607 0.0918,-26.36328 0.0606,-13.53718 -0.10942,-24.83404 -0.3789,-25.10352 -0.26937,-0.26937 -0.0794,-1.56827 0.42187,-2.88672 l 0.91211,-2.39648 h -14.03515 c -9.95029,0 -13.83545,-0.3199 -13.35352,-1.09961 0.48892,-0.79113 0.1253,-0.80413 -1.29297,-0.0449 -1.19633,0.64025 -10.27649,1.07323 -23.08984,1.0996 -19.66632,0.0419 -21.07914,-0.075 -20.57227,-1.70507 0.51833,-1.66693 0.48947,-1.66651 -0.58203,0 -0.89348,1.3898 -2.54882,1.75 -8.04297,1.75 -6.1299,0 -6.85708,-0.19953 -6.375,-1.75 0.51821,-1.66666 0.48958,-1.66666 -0.58203,0 -1.02985,1.60184 -3.62596,1.75 -30.63477,1.75 -21.20284,0 -29.31651,-0.30943 -28.82812,-1.09961 0.49028,-0.79401 0.12298,-0.80412 -1.31445,-0.0352 -1.13069,0.6051 -7.86855,1.06641 -15.57617,1.06641 -12.37622,0 -13.53686,-0.15276 -13.05274,-1.7168 0.48665,-1.57168 0.43685,-1.56806 -0.59375,0.0352 -0.89348,1.3898 -2.54882,1.75 -8.04297,1.75 -6.1299,0 -6.85708,-0.19953 -6.375,-1.75 0.51821,-1.66666 0.48958,-1.66666 -0.58203,0 -0.89348,1.3898 -2.54882,1.75 -8.04297,1.75 -6.1299,0 -6.85708,-0.19953 -6.375,-1.75 0.51821,-1.66666 0.48958,-1.66666 -0.58203,0 -1.01537,1.57916 -3.26311,1.75 -23.04297,1.75 -20.4158,0 -21.88179,-0.12001 -21.375,-1.75 0.50933,-1.63643 0.47203,-1.63951 -0.5625,-0.0352 -0.98895,1.53396 -3.41119,1.71264 -23.02539,1.70508 -20.1888,-0.009 -21.87941,-0.14543 -21.39453,-1.71485 0.47482,-1.53694 0.41516,-1.53309 -0.59961,0.0449 -0.89348,1.3898 -2.54882,1.75 -8.04297,1.75 -6.1299,0 -6.85708,-0.19953 -6.375,-1.75 0.51821,-1.66666 0.48958,-1.66666 -0.58203,0 -1.50421,2.33926 -13.02539,2.59172 -13.02539,0.28515 0,-0.80564 0.86977,-1.93061 1.93359,-2.5 2.52745,-1.35261 13.06641,-1.35261 13.06641,0 0,0.71362 0.60025,0.71362 1.93359,0 2.52745,-1.35261 13.06641,-1.35261 13.06641,0 0,0.71362 0.60025,0.71362 1.93359,0 2.52745,-1.35261 13.06641,-1.35261 13.06641,0 0,0.71362 0.60025,0.71362 1.93359,0 2.52745,-1.35261 13.06641,-1.35261 13.06641,0 0,0.71362 0.60025,0.71362 1.93359,0 2.75925,-1.4767 13.06641,-1.34545 13.06641,0.16602 0,0.93335 0.26586,0.93335 1.19922,0 1.48429,-1.48426 13.80078,-1.63255 13.80078,-0.16602 0,0.71362 0.60025,0.71362 1.93359,0 2.52745,-1.35261 13.06641,-1.35261 13.06641,0 0,0.71362 0.60025,0.71362 1.93359,0 1.06383,-0.56934 4.43885,-1.03515 7.5,-1.03515 3.16997,0 5.56641,0.44558 5.56641,1.03515 0,0.71362 0.60025,0.71362 1.93359,0 2.52745,-1.35261 13.06641,-1.35261 13.06641,0 0,0.71362 0.60025,0.71362 1.93359,0 2.52745,-1.35261 13.06641,-1.35261 13.06641,0 0,0.71362 0.60025,0.71362 1.93359,0 1.06383,-0.56934 4.43885,-1.03515 7.5,-1.03515 3.16997,0 5.56641,0.44558 5.56641,1.03515 0,0.71362 0.60025,0.71362 1.93359,0 2.75925,-1.4767 13.06641,-1.34545 13.06641,0.16602 0,0.93335 0.26586,0.93335 1.19922,0 1.48429,-1.48426 13.80078,-1.63255 13.80078,-0.16602 0,0.71362 0.60025,0.71362 1.93359,0 1.06383,-0.56934 4.43885,-1.03515 7.5,-1.03515 3.16997,0 5.56641,0.44558 5.56641,1.03515 0,0.71362 0.60025,0.71362 1.93359,0 1.06383,-0.56934 4.43885,-1.03515 7.5,-1.03515 3.16997,0 5.56641,0.44558 5.56641,1.03515 0,0.71362 0.60025,0.71362 1.93359,0 1.06383,-0.56934 4.43885,-1.03515 7.5,-1.03515 3.16997,0 5.56641,0.44558 5.56641,1.03515 0,0.71362 0.60025,0.71362 1.93359,0 2.52745,-1.35261 13.06641,-1.35261 13.06641,0 0,0.71362 0.60025,0.71362 1.93359,0 2.52745,-1.35261 13.06641,-1.35261 13.06641,0 0,0.71362 0.60025,0.71362 1.93359,0 1.06383,-0.56934 4.43885,-1.03515 7.5,-1.03515 3.16997,0 5.56641,0.44558 5.56641,1.03515 0,0.71362 0.60025,0.71362 1.93359,0 2.75925,-1.4767 13.06641,-1.34545 13.06641,0.16602 0,0.93335 0.26586,0.93335 1.19922,0 1.48429,-1.48426 13.80078,-1.63255 13.80078,-0.16602 0,0.71362 0.60025,0.71362 1.93359,0 1.06383,-0.56934 3.22461,-1.03515 4.80079,-1.03515 3.36305,0 3.12545,1.64168 3.2207,-22.25 0.0638,-16.03068 0.15094,-16.75 2.05469,-16.75 z m -640.50391,27.5039 c 1.75703,0 2.00208,0.66848 2.00586,5.5 l 0.004,5.5 5.74415,0.29883 c 3.48907,0.18214 5.74414,0.75264 5.74414,1.45117 0,0.8391 0.32381,0.82487 1.19921,-0.0508 1.4843,-1.48426 13.80079,-1.63059 13.80079,-0.16406 0,0.71361 0.60025,0.71361 1.93359,0 2.52745,-1.35262 13.06641,-1.35262 13.06641,0 0,0.71361 0.60025,0.71361 1.93359,0 1.06382,-0.56935 4.43885,-1.03516 7.5,-1.03516 3.16997,0 5.56641,0.44559 5.56641,1.03516 0,0.71361 0.60025,0.71361 1.93359,0 1.06382,-0.56935 4.43885,-1.03516 7.5,-1.03516 3.16997,0 5.56641,0.44559 5.56641,1.03516 0,0.71361 0.60025,0.71361 1.93359,0 2.52745,-1.35262 13.06641,-1.35262 13.06641,0 0,0.71361 0.60025,0.71361 1.93359,0 2.52745,-1.35262 13.06641,-1.35262 13.06641,0 0,0.71361 0.60025,0.71361 1.93359,0 2.52745,-1.35262 13.06641,-1.35262 13.06641,0 0,0.71361 0.60025,0.71361 1.93359,0 2.75925,-1.4767 13.06641,-1.34741 13.06641,0.16406 0,0.93336 0.26594,0.93336 1.19921,0 1.4843,-1.48426 13.80079,-1.63059 13.80079,-0.16406 0,0.71361 0.60025,0.71361 1.93359,0 2.52745,-1.35262 13.06641,-1.35262 13.06641,0 0,0.71361 0.60025,0.71361 1.93359,0 2.52745,-1.35262 13.06641,-1.35262 13.06641,0 0,0.71361 0.60025,0.71361 1.93359,0 1.06382,-0.56935 4.43885,-1.03516 7.5,-1.03516 3.16997,0 5.56641,0.44552 5.56641,1.03516 0,0.71357 0.60025,0.71357 1.93359,0 2.52745,-1.35266 13.06641,-1.35266 13.06641,0 0,0.71357 0.60025,0.71357 1.93359,0 2.56173,-1.37216 13.06641,-1.35435 13.06641,0.0215 0,0.58235 0.45,0.78119 1,0.44141 0.54999,-0.33993 1,0.30895 1,1.44141 0,1.38141 -0.648,2.05859 -1.96875,2.05859 -1.41695,0 -1.81505,-0.49172 -1.42383,-1.75 0.51821,-1.66666 0.48958,-1.66666 -0.58203,0 -0.89348,1.38981 -2.54882,1.75 -8.04297,1.75 -6.1299,0 -6.85708,-0.19952 -6.375,-1.75 0.51821,-1.66666 0.48958,-1.66666 -0.58203,0 -0.89348,1.38981 -2.54882,1.75 -8.04297,1.75 -6.1299,0 -6.85708,-0.19952 -6.375,-1.75 0.51821,-1.66666 0.48958,-1.66666 -0.58203,0 -0.93211,1.44952 -2.63974,1.75 -9.95899,1.75 -8.39985,0 -8.91985,0.12667 -10.53125,2.58594 -0.93207,1.42273 -1.43422,2.84897 -1.11523,3.16797 0.31873,0.31895 0.58008,0.0276 0.58008,-0.64649 0,-0.67419 0.45,-0.9472 1,-0.60742 1.62708,1.00562 1.18607,10.7896 -0.60157,13.3418 -0.88093,1.25794 -1.33108,2.55758 -1,2.88867 0.33101,0.33112 0.60157,0.0511 0.60157,-0.62305 0,-0.67419 0.45,-0.9472 1,-0.60742 1.41259,0.87303 1.24822,11.85334 -0.19922,13.30078 -0.93336,0.93354 -0.93336,1.19922 0,1.19922 1.86871,0 1.54721,11.05844 -0.40235,13.8418 -0.88093,1.25794 -1.33108,2.55758 -1,2.88867 0.33101,0.33112 0.60157,0.0772 0.60157,-0.56445 0,-0.64165 0.45,-1.16602 1,-1.16602 1.30178,0 1.30064,10.57252 -0.002,13.00586 -0.6703,1.25242 -0.6703,2.07795 0,2.49219 1.30046,0.80375 1.30046,10.07784 0,12.50781 -0.6703,1.25242 -0.6703,2.07795 0,2.49219 1.30046,0.80375 1.30046,10.07784 0,12.50781 -0.6703,1.25242 -0.6703,2.07795 0,2.49219 1.62921,1.0069 1.18955,10.78935 -0.59961,13.34375 -0.88093,1.25794 -1.33108,2.55758 -1,2.88867 0.33101,0.33112 0.60157,0.0772 0.60157,-0.56445 0,-0.64165 0.45,-1.16602 1,-1.16602 1.67652,0 1.18592,11.28978 -0.60157,13.8418 -0.88093,1.25794 -1.33108,2.55758 -1,2.88867 0.33101,0.33112 0.60157,0.0772 0.60157,-0.56445 0,-0.64165 0.45,-1.16602 1,-1.16602 1.67652,0 1.18592,11.28978 -0.60157,13.8418 -0.88093,1.25794 -1.33108,2.55758 -1,2.88867 0.33101,0.33112 0.60157,0.0511 0.60157,-0.62305 0,-0.67419 0.45,-0.9472 1,-0.60742 1.41259,0.87303 1.24822,11.85334 -0.19922,13.30078 -0.93336,0.93354 -0.93336,1.19922 0,1.19922 1.86871,0 1.54721,11.05844 -0.40235,13.8418 -0.88093,1.25794 -1.33108,2.55758 -1,2.88867 0.33101,0.33112 0.60157,0.0772 0.60157,-0.56445 0,-0.64165 0.45,-1.16602 1,-1.16602 1.30178,0 1.30064,10.57252 -0.002,13.00586 -0.6703,1.25242 -0.6703,2.07795 0,2.49219 1.30046,0.80375 1.30046,10.07784 0,12.50781 -0.6703,1.25242 -0.6703,2.07795 0,2.49219 1.30046,0.80375 1.30046,10.07784 0,12.50781 -0.6703,1.25242 -0.6703,2.07795 0,2.49219 1.62921,1.0069 1.18955,10.78935 -0.59961,13.34375 -0.88093,1.25794 -1.33108,2.55758 -1,2.88867 0.33101,0.33112 0.60157,0.0772 0.60157,-0.56445 0,-0.64165 0.45,-1.16602 1,-1.16602 1.67652,0 1.18592,11.28978 -0.60157,13.8418 -0.88093,1.25794 -1.33108,2.55758 -1,2.88867 0.33101,0.33112 0.60157,0.0772 0.60157,-0.56445 0,-0.64165 0.45,-1.16602 1,-1.16602 1.67652,0 1.18592,11.28978 -0.60157,13.8418 -0.88093,1.25794 -1.33108,2.55758 -1,2.88867 0.33101,0.33112 0.60157,0.0511 0.60157,-0.62305 0,-0.67415 0.45,-0.9472 1,-0.60742 1.41259,0.873 1.24822,11.85334 -0.19922,13.30078 -0.93336,0.93354 -0.93336,1.19922 0,1.19922 1.86871,0 1.54721,11.05844 -0.40235,13.8418 -0.88093,1.25794 -1.33108,2.55758 -1,2.88867 0.33101,0.33112 0.60157,0.0772 0.60157,-0.56445 0,-0.64165 0.45,-1.16602 1,-1.16602 1.30178,0 1.30064,10.57252 -0.002,13.00586 -0.6703,1.25242 -0.6703,2.07795 0,2.49219 1.30046,0.80375 1.30046,10.07784 0,12.50781 -0.6703,1.25242 -0.6703,2.07795 0,2.49219 1.30046,0.80375 1.30046,10.07784 0,12.50781 -0.6703,1.25242 -0.6703,2.07795 0,2.49219 1.62921,1.0069 1.18955,10.78935 -0.59961,13.34375 -0.88093,1.25794 -1.33108,2.55758 -1,2.88867 0.33101,0.33112 0.60157,0.0772 0.60157,-0.56445 0,-0.64165 0.45,-1.16602 1,-1.16602 1.67652,0 1.18592,11.28978 -0.60157,13.8418 -0.88093,1.25794 -1.33108,2.55758 -1,2.88867 0.33101,0.33112 0.60157,0.0772 0.60157,-0.56445 0,-0.64165 0.45,-1.16602 1,-1.16602 0.54999,0 1,1.79997 1,4 0,3.40105 0.31588,4.00004 2.10742,4 1.57202,0 1.95272,0.44421 1.49805,1.75 -0.58043,1.66666 -0.54587,1.66666 0.75195,0 1.0583,-1.35908 2.8697,-1.75 8.10937,-1.75 5.99105,0 6.67979,0.19605 6.13868,1.75 -0.58043,1.66666 -0.54587,1.66666 0.75195,0 1.0583,-1.35908 2.8697,-1.75 8.10937,-1.75 5.99105,0 6.67979,0.19605 6.13868,1.75 -0.58043,1.66666 -0.54587,1.66666 0.75195,0 1.22351,-1.57123 3.58399,-1.75 23.10937,-1.75 20.27671,0 21.70685,0.1183 21.13868,1.75 -0.58043,1.66666 -0.54587,1.66666 0.75195,0 1.0583,-1.35908 2.8697,-1.75 8.10937,-1.75 5.99105,0 6.67979,0.19605 6.13868,1.75 -0.58043,1.66666 -0.54587,1.66666 0.75195,0 1.0583,-1.35908 2.8697,-1.75 8.10937,-1.75 5.99105,0 6.67979,0.19605 6.13868,1.75 -0.58043,1.66666 -0.54587,1.66666 0.75195,0 1.0583,-1.35908 2.8697,-1.75 8.10937,-1.75 5.99105,0 6.67979,0.19605 6.13868,1.75 -0.58043,1.66666 -0.54587,1.66666 0.75195,0 1.0583,-1.35908 2.8697,-1.75 8.10937,-1.75 5.99105,0 6.67979,0.19605 6.13868,1.75 -0.58043,1.66666 -0.54587,1.66666 0.75195,0 1.0583,-1.35908 2.8697,-1.75 8.10937,-1.75 5.99105,0 6.67979,0.19605 6.13868,1.75 -0.58043,1.66666 -0.54587,1.66666 0.75195,0 1.22351,-1.57123 3.58399,-1.75 23.10937,-1.75 20.27671,0 21.70685,0.1183 21.13868,1.75 -0.58043,1.66666 -0.54587,1.66666 0.75195,0 1.0583,-1.35908 2.8697,-1.75 8.10937,-1.75 5.99105,0 6.67979,0.19605 6.13868,1.75 -0.58043,1.66666 -0.54587,1.66666 0.75195,0 1.0583,-1.35908 2.8697,-1.75 8.10937,-1.75 5.99105,0 6.67979,0.19605 6.13868,1.75 -0.58043,1.66666 -0.54587,1.66666 0.75195,0 1.0583,-1.35908 2.8697,-1.75 8.10937,-1.75 5.99105,0 6.67979,0.19605 6.13868,1.75 -0.58043,1.66666 -0.54587,1.66666 0.75195,0 1.0583,-1.35908 2.8697,-1.75 8.10937,-1.75 5.99105,0 6.67979,0.19605 6.13868,1.75 -0.58043,1.66666 -0.54587,1.66666 0.75195,0 1.0583,-1.35908 2.8697,-1.75 8.10937,-1.75 5.99105,0 6.67979,0.19605 6.13868,1.75 -0.58043,1.66666 -0.54587,1.66666 0.75195,0 1.22351,-1.57123 3.58399,-1.75 23.10937,-1.75 20.27671,0 21.70685,0.1183 21.13868,1.75 -0.58043,1.66666 -0.54587,1.66666 0.75195,0 1.0583,-1.35908 2.8697,-1.75 8.10937,-1.75 5.99105,0 6.67979,0.19605 6.13868,1.75 -0.58043,1.66666 -0.54587,1.66666 0.75195,0 1.0583,-1.35908 2.8697,-1.75 8.10937,-1.75 5.99105,0 6.67979,0.19605 6.13868,1.75 -0.58043,1.66666 -0.54587,1.66666 0.75195,0 1.0583,-1.35908 2.8697,-1.75 8.10937,-1.75 5.99105,0 6.67979,0.19605 6.13868,1.75 -0.58043,1.66666 -0.54587,1.66666 0.75195,0 1.0583,-1.35908 2.8697,-1.75 8.10937,-1.75 5.99105,0 6.67979,0.19605 6.13868,1.75 -0.58043,1.66666 -0.54587,1.66666 0.75195,0 1.0583,-1.35908 2.8697,-1.75 8.10937,-1.75 5.99105,0 6.67979,0.19605 6.13868,1.75 -0.58043,1.66666 -0.54587,1.66666 0.75195,0 1.22351,-1.57123 3.58399,-1.75 23.10937,-1.75 20.27671,0 21.70685,0.1183 21.13868,1.75 -0.58043,1.66666 -0.54587,1.66666 0.75195,0 1.0583,-1.35908 2.8697,-1.75 8.10937,-1.75 5.99105,0 6.67979,0.19605 6.13868,1.75 -0.5675,1.62951 -0.51939,1.63395 0.70703,0.0625 0.84094,-1.07751 3.10081,-1.80044 6.25195,-2 4.87533,-0.30856 4.93823,-0.35495 5.11133,-3.8125 0.41083,-8.2145 0.39765,-6.71786 0.22265,-25.5 -0.0378,-3.84998 -0.0503,-7.5625 -0.0312,-8.25 0.0302,-1.0766 0.0538,-34.01395 0.0274,-37.5 -0.0869,-10.89721 0.006,-50.89731 0.12304,-52.75 0.085,-1.37499 0.12431,-3.0625 0.082,-3.75 -0.042,-0.68753 -0.0904,-3.38751 -0.10547,-6 -0.017,-2.61252 -0.0617,-7.89998 -0.0957,-11.75 -0.0378,-3.84998 -0.0503,-7.5625 -0.0312,-8.25 0.15988,-5.557 0.0601,-36.64064 -0.1289,-40 -0.21116,-3.75568 0.0102,-4.25038 1.9082,-4.25 2.05739,4.2e-4 2.15066,0.44766 2.22852,10.60352 0.0448,5.84469 -0.40131,11.50972 -0.9961,12.62109 -0.78259,1.45912 -0.77836,1.82972 0.0176,1.33789 1.48226,-0.91608 1.48226,10.85341 0,13.62305 -0.74249,1.38841 -0.75443,1.84271 -0.0391,1.40039 1.57829,-0.9755 1.40652,42.37442 -0.17578,44.33203 -0.92667,1.14641 -0.91235,1.30192 0.0644,0.71484 1.74074,-1.04579 1.74074,12.43905 0,14.31446 -0.99999,1.07739 -0.99999,1.20521 0,0.64062 1.73911,-0.98185 1.73911,12.48575 0,14.35938 -0.90021,0.96952 -0.91286,1.15617 -0.0449,0.66796 1.55777,-0.87632 1.68845,25.78162 0.14062,28.67383 -0.74936,1.40005 -0.73429,1.76104 0.0547,1.27344 1.48226,-0.91608 1.48226,10.85341 0,13.62305 -0.74245,1.38841 -0.7544,1.84271 -0.0391,1.40039 1.57825,-0.9755 1.40652,42.37442 -0.17578,44.33203 -0.92667,1.14641 -0.91231,1.30192 0.0644,0.71484 0.78663,-0.47255 1.25,-0.17249 1.25,0.8086 0,0.85746 -0.675,1.55859 -1.5,1.55859 -0.825,0 -1.5,-0.46581 -1.5,-1.03516 0,-0.71361 -0.60025,-0.71361 -1.93359,0 -2.52745,1.35262 -13.06641,1.35262 -13.06641,0 0,-0.71361 -0.60025,-0.71361 -1.93359,0 -2.52745,1.35262 -13.06641,1.35262 -13.06641,0 0,-0.71361 -0.60025,-0.71361 -1.93359,0 -2.08759,1.11723 -13.06641,1.44853 -13.06641,0.39454 0,-0.35188 0.78751,-1.2905 1.75,-2.08594 0.96253,-0.79544 0.12273,-0.50669 -1.86719,0.64062 -3.88327,2.23896 -14.88281,3.01553 -14.88281,1.05078 0,-0.71361 -0.60025,-0.71361 -1.93359,0 -2.52745,1.35262 -13.06641,1.35262 -13.06641,0 0,-0.71361 -0.60025,-0.71361 -1.93359,0 -2.52745,1.35262 -13.06641,1.35262 -13.06641,0 0,-0.71361 -0.60025,-0.71361 -1.93359,0 -2.52745,1.35262 -13.06641,1.35262 -13.06641,0 0,-0.71361 -0.60025,-0.71361 -1.93359,0 -2.52745,1.35262 -13.06641,1.35262 -13.06641,0 0,-0.71361 -0.60025,-0.71361 -1.93359,0 -2.52745,1.35262 -13.06641,1.35262 -13.06641,0 0,-0.71361 -0.60025,-0.71361 -1.93359,0 -2.52745,1.35262 -13.06641,1.35262 -13.06641,0 0,-0.71361 -0.60025,-0.71361 -1.93359,0 -2.08759,1.11723 -13.06641,1.44853 -13.06641,0.39454 0,-0.35188 0.78751,-1.2905 1.75,-2.08594 0.96253,-0.79544 0.12273,-0.50669 -1.86719,0.64062 -3.88327,2.23896 -14.88281,3.01553 -14.88281,1.05078 0,-0.71361 -0.60025,-0.71361 -1.93359,0 -2.52745,1.35262 -13.06641,1.35262 -13.06641,0 0,-0.71361 -0.60025,-0.71361 -1.93359,0 -1.06383,0.56935 -4.43885,1.03516 -7.5,1.03516 -3.16997,0 -5.56641,-0.44559 -5.56641,-1.03516 0,-0.71361 -0.60025,-0.71361 -1.93359,0 -1.06383,0.56935 -4.43885,1.03516 -7.5,1.03516 -3.16997,0 -5.56641,-0.44559 -5.56641,-1.03516 0,-0.71361 -0.60025,-0.71361 -1.93359,0 -2.52745,1.35262 -13.06641,1.35262 -13.06641,0 0,-0.71361 -0.60025,-0.71361 -1.93359,0 -2.52745,1.35262 -13.06641,1.35262 -13.06641,0 0,-0.71361 -0.60025,-0.71361 -1.93359,0 -1.06383,0.56935 -4.43885,1.03516 -7.5,1.03516 -3.16997,0 -5.56641,-0.44559 -5.56641,-1.03516 0,-0.71361 -0.60025,-0.71361 -1.93359,0 -2.08759,1.11723 -13.06641,1.44853 -13.06641,0.39454 0,-0.35188 0.78751,-1.2905 1.75,-2.08594 0.96253,-0.79544 0.12273,-0.50669 -1.86719,0.64062 -3.88327,2.23896 -14.88281,3.01553 -14.88281,1.05078 0,-0.71361 -0.60025,-0.71361 -1.93359,0 -1.06383,0.56935 -4.43885,1.03516 -7.5,1.03516 -3.16997,0 -5.56641,-0.44559 -5.56641,-1.03516 0,-0.71361 -0.60025,-0.71361 -1.93359,0 -1.06383,0.56935 -4.43885,1.03516 -7.5,1.03516 -3.16997,0 -5.56641,-0.44559 -5.56641,-1.03516 0,-0.71361 -0.60025,-0.71361 -1.93359,0 -2.52745,1.35262 -13.06641,1.35262 -13.06641,0 0,-0.71361 -0.60025,-0.71361 -1.93359,0 -2.52745,1.35262 -13.06641,1.35262 -13.06641,0 0,-0.71361 -0.60025,-0.71361 -1.93359,0 -2.52745,1.35262 -13.06641,1.35262 -13.06641,0 0,-0.71361 -0.60025,-0.71361 -1.93359,0 -2.52745,1.35262 -13.06641,1.35262 -13.06641,0 0,-0.71361 -0.60025,-0.71361 -1.93359,0 -2.08759,1.11723 -13.06641,1.44853 -13.06641,0.39454 0,-0.35188 0.78751,-1.2905 1.75,-2.08594 0.96253,-0.79544 0.12273,-0.50669 -1.86719,0.64062 -3.88327,2.23896 -14.88281,3.01553 -14.88281,1.05078 0,-0.71361 -0.60025,-0.71361 -1.93359,0 -2.52745,1.35262 -13.06641,1.35262 -13.06641,0 0,-0.71361 -0.60025,-0.71361 -1.93359,0 -2.52745,1.35262 -13.06641,1.35262 -13.06641,0 0,-0.71361 -0.60025,-0.71361 -1.93359,0 -1.06383,0.56935 -4.43885,1.03516 -7.5,1.03516 -3.16997,0 -5.56641,-0.44559 -5.56641,-1.03516 0,-0.71361 -0.60025,-0.71361 -1.93359,0 -1.06383,0.56935 -4.43885,1.03516 -7.5,1.03516 -3.16997,0 -5.56641,-0.44559 -5.56641,-1.03516 0,-0.71361 -0.60025,-0.71361 -1.93359,0 -2.52745,1.35262 -13.06641,1.35262 -13.06641,0 0,-0.71361 -0.60025,-0.71361 -1.93359,0 -1.06383,0.56935 -4.43885,1.03516 -7.5,1.03516 -3.16997,0 -5.56641,-0.44559 -5.56641,-1.03516 0,-0.71361 -0.60025,-0.71361 -1.93359,0 -2.52745,1.35262 -13.06641,1.35262 -13.06641,0 0,-0.71361 -0.60025,-0.71361 -1.93359,0 -1.06383,0.56935 -4.43885,1.03516 -7.5,1.03516 -3.16997,0 -5.56641,-0.44559 -5.56641,-1.03516 0,-0.71361 -0.60025,-0.71361 -1.93359,0 -1.06383,0.56935 -4.43885,1.03516 -7.5,1.03516 -3.16997,0 -5.56641,-0.44559 -5.56641,-1.03516 0,-0.71361 -0.60025,-0.71361 -1.93359,0 -1.06383,0.56935 -4.43885,1.03516 -7.5,1.03516 -3.16997,0 -5.56641,-0.44559 -5.56641,-1.03516 0,-0.71361 -0.60025,-0.71361 -1.93359,0 -2.52745,1.35262 -13.06641,1.35262 -13.06641,0 0,-0.71361 -0.60025,-0.71361 -1.93359,0 -2.52745,1.35262 -13.06641,1.35262 -13.06641,0 0,-0.71361 -0.60025,-0.71361 -1.93359,0 -1.06383,0.56935 -4.43885,1.03516 -7.5,1.03516 -3.16997,0 -5.56641,-0.44559 -5.56641,-1.03516 0,-0.71361 -0.60025,-0.71361 -1.93359,0 -1.06383,0.56935 -4.43885,1.03516 -7.5,1.03516 -3.16997,0 -5.56641,-0.44559 -5.56641,-1.03516 0,-0.71361 -0.60025,-0.71361 -1.93359,0 -2.52745,1.35262 -13.06641,1.35262 -13.06641,0 0,-0.71361 -0.60025,-0.71361 -1.93359,0 -2.52745,1.35262 -13.06641,1.35262 -13.06641,0 0,-0.71361 -0.60025,-0.71361 -1.93359,0 -1.06383,0.56935 -4.43885,1.03516 -7.5,1.03516 -3.16997,0 -5.56641,-0.44559 -5.56641,-1.03516 0,-0.71361 -0.60025,-0.71361 -1.93359,0 -1.06383,0.56935 -4.43885,1.03516 -7.5,1.03516 -3.16997,0 -5.56641,-0.44559 -5.56641,-1.03516 0,-0.71361 -0.60025,-0.71361 -1.93359,0 -1.06383,0.56935 -4.43885,1.03516 -7.5,1.03516 -3.16997,0 -5.56641,-0.44559 -5.56641,-1.03516 0,-0.71361 -0.60025,-0.71361 -1.93359,0 -1.06383,0.56935 -4.43885,1.03516 -7.5,1.03516 -3.16997,0 -5.56641,-0.44559 -5.56641,-1.03516 0,-0.71361 -0.60025,-0.71361 -1.93359,0 -1.06383,0.56935 -4.43885,1.03516 -7.5,1.03516 -3.16997,0 -5.56641,-0.44559 -5.56641,-1.03516 0,-0.71361 -0.60025,-0.71361 -1.93359,0 -1.06383,0.56935 -4.43885,1.03516 -7.5,1.03516 -3.16997,0 -5.56641,-0.44559 -5.56641,-1.03516 0,-0.71361 -0.60025,-0.71361 -1.93359,0 -1.06383,0.56935 -4.43885,1.03516 -7.5,1.03516 -3.16997,0 -5.56641,-0.44559 -5.56641,-1.03516 0,-0.71361 -0.60025,-0.71361 -1.93359,0 -1.06383,0.56935 -4.43885,1.03516 -7.5,1.03516 -3.16997,0 -5.56641,-0.44559 -5.56641,-1.03516 0,-0.71361 -0.60025,-0.71361 -1.93359,0 -1.06383,0.56935 -4.43885,1.03516 -7.5,1.03516 -3.16997,0 -5.56641,-0.44559 -5.56641,-1.03516 0,-0.71361 -0.60025,-0.71361 -1.93359,0 -1.06383,0.56935 -4.43885,1.03516 -7.5,1.03516 -3.16997,0 -5.56641,-0.44559 -5.56641,-1.03516 0,-0.71361 -0.60025,-0.71361 -1.93359,0 -1.06383,0.56935 -4.43885,1.03516 -7.5,1.03516 -3.16997,0 -5.56641,-0.44559 -5.56641,-1.03516 0,-0.71361 -0.60025,-0.71361 -1.93359,0 -1.06383,0.56935 -4.43885,1.03516 -7.5,1.03516 -3.16997,0 -5.56641,-0.44559 -5.56641,-1.03516 0,-0.71361 -0.60025,-0.71361 -1.93359,0 -1.06383,0.56935 -4.43885,1.03516 -7.5,1.03516 -3.170001,0 -5.56641,-0.44559 -5.56641,-1.03516 0,-0.71361 -0.600252,-0.71361 -1.933594,0 C 94.502823,951.53419 91.127559,952 88.066406,952 84.896441,952 82.5,951.55441 82.5,950.96484 c 0,-0.71361 -0.600252,-0.71361 -1.933594,0 C 79.502583,951.53419 76.127559,952 73.066406,952 69.896441,952 67.5,951.55441 67.5,950.96484 c 0,-0.71361 -0.600252,-0.71361 -1.933594,0 C 64.502583,951.53419 61.127559,952 58.066406,952 54.896441,952 52.5,951.55441 52.5,950.96484 c 0,-0.71361 -0.600252,-0.71361 -1.933594,0 C 49.502583,951.53419 46.127559,952 43.066406,952 39.896441,952 37.5,951.55441 37.5,950.96484 c 0,-0.71361 -0.600252,-0.71361 -1.933594,0 C 34.502583,951.53419 31.127559,952 28.066406,952 24.896441,952 22.5,951.55441 22.5,950.96484 c 0,-0.71361 -0.600252,-0.71361 -1.933594,0 l 0.0039,0.002 c -1.063815,0.56934 -4.19804,1.03515 -6.964843,1.03515 -3.8392459,0 -5.2613805,-0.43089 -6.0039065,-1.81836 -0.5896063,-1.10169 -0.9580973,-18.92224 -0.9316406,-45.22851 0.038778,-41.4672 0.1251787,-43.46889 1.9375,-44.73828 1.0434519,-0.73085 1.8823051,-1.86521 1.8671871,-2.52149 -0.01674,-0.65635 -0.4954193,-0.39593 -1.0624996,0.57813 -0.5670803,0.97391 -1.4167223,1.53201 -1.8886719,1.24023 -0.472063,-0.29166 -0.8513091,-26.95047 -0.84375,-59.24219 0.012888,-56.60726 0.082089,-58.76155 1.9199219,-60.04882 1.0484031,-0.73433 1.9042966,-1.84483 1.9042966,-2.46875 0,-0.62393 -0.6420081,-0.26097 -1.4277341,0.80664 -1.2593764,1.71129 -1.5032922,1.74919 -2.0546875,0.32812 -0.343937,-0.8866 -0.4873676,-4.26159 -0.3203125,-7.5 0.2703496,-5.23551 0.5540702,-5.92281 2.5546875,-6.20703 l 2.2499996,-0.31836 v 111.06836 111.07031 h 6.605469 c 5.857663,0 6.538028,0.19843 5.998047,1.75 -0.580422,1.66666 -0.54387,1.66666 0.753906,0 1.058306,-1.35908 2.869703,-1.75 8.109375,-1.75 5.991043,0 6.677872,0.19605 6.136719,1.75 -0.580422,1.66666 -0.54387,1.66666 0.753906,0 1.184391,-1.52095 3.226849,-1.75 15.609375,-1.75 13.133858,0 14.198546,0.13671 13.636719,1.75 -0.580422,1.66666 -0.54387,1.66666 0.753906,0 1.058306,-1.35908 2.869703,-1.75 8.109375,-1.75 5.991043,0 6.677872,0.19605 6.136719,1.75 -0.580422,1.66666 -0.54387,1.66666 0.753906,0 1.058306,-1.35908 2.869703,-1.75 8.109375,-1.75 5.991043,0 6.677872,0.19605 6.136719,1.75 -0.580422,1.66666 -0.54387,1.66666 0.753906,0 1.058305,-1.35908 2.869695,-1.75 8.109375,-1.75 5.99104,0 6.67779,0.19605 6.13672,1.75 -0.58043,1.66666 -0.54391,1.66666 0.7539,0 1.05827,-1.35908 2.8697,-1.75 8.10938,-1.75 5.99104,0 6.67779,0.19605 6.13672,1.75 -0.58043,1.66666 -0.54391,1.66666 0.7539,0 1.05827,-1.35908 2.8697,-1.75 8.10938,-1.75 5.99104,0 6.67779,0.19605 6.13672,1.75 -0.58043,1.66666 -0.54391,1.66666 0.7539,0 1.05827,-1.35908 2.8697,-1.75 8.10938,-1.75 5.99104,0 6.67779,0.19605 6.13672,1.75 -0.58043,1.66666 -0.54391,1.66666 0.7539,0 1.18435,-1.52095 3.22685,-1.75 15.60938,-1.75 13.13385,0 14.19846,0.13671 13.63672,1.75 -0.58043,1.66666 -0.54391,1.66666 0.7539,0 1.05827,-1.35908 2.8697,-1.75 8.10938,-1.75 5.99104,0 6.67779,0.19605 6.13672,1.75 -0.58043,1.66666 -0.54391,1.66666 0.7539,0 1.05827,-1.35908 2.8697,-1.75 8.10938,-1.75 5.99104,0 6.67779,0.19605 6.13672,1.75 -0.58043,1.66666 -0.54391,1.66666 0.7539,0 1.05827,-1.35908 2.8697,-1.75 8.10938,-1.75 5.99104,0 6.67779,0.19605 6.13672,1.75 -0.58043,1.66666 -0.54391,1.66666 0.7539,0 1.05827,-1.35908 2.8697,-1.75 8.10938,-1.75 5.99104,0 6.67779,0.19605 6.13672,1.75 -0.58043,1.66666 -0.54391,1.66666 0.7539,0 1.05827,-1.35908 2.8697,-1.75 8.10938,-1.75 5.99104,0 6.67779,0.19605 6.13672,1.75 -0.58043,1.66666 -0.54391,1.66666 0.7539,0 1.05827,-1.35908 2.8697,-1.75 8.10938,-1.75 5.99104,0 6.67779,0.19605 6.13672,1.75 -0.58043,1.66666 -0.54391,1.66666 0.7539,0 1.18435,-1.52095 3.22685,-1.75 15.60938,-1.75 13.13385,0 14.19846,0.13671 13.63672,1.75 -0.58043,1.66666 -0.54391,1.66666 0.7539,0 1.05827,-1.35908 2.8697,-1.75 8.10938,-1.75 5.99104,0 6.67779,0.19605 6.13672,1.75 -0.58043,1.66666 -0.54391,1.66666 0.7539,0 1.05827,-1.35908 2.8697,-1.75 8.10938,-1.75 5.99104,0 6.67779,0.19605 6.13672,1.75 -0.58043,1.66666 -0.54391,1.66666 0.7539,0 1.05827,-1.35908 2.8697,-1.75 8.10938,-1.75 5.99104,0 6.67779,0.19605 6.13672,1.75 -0.58043,1.66666 -0.54391,1.66666 0.7539,0 1.05827,-1.35908 2.8697,-1.75 8.10938,-1.75 5.99104,0 6.67779,0.19605 6.13672,1.75 -0.58043,1.66666 -0.54391,1.66666 0.7539,0 1.05827,-1.35908 2.8697,-1.75 8.10938,-1.75 5.99104,0 6.67779,0.19605 6.13672,1.75 -0.58043,1.66666 -0.54391,1.66666 0.7539,0 1.05827,-1.35908 2.8697,-1.75 8.10938,-1.75 5.99104,0 6.67779,0.19605 6.13672,1.75 -0.58043,1.66666 -0.54391,1.66666 0.7539,0 1.18435,-1.52095 3.22685,-1.75 15.60938,-1.75 13.13385,0 14.19846,0.13671 13.63672,1.75 -0.58043,1.66666 -0.54391,1.66666 0.7539,0 1.05827,-1.35908 2.8697,-1.75 8.10938,-1.75 5.99104,0 6.67779,0.19605 6.13672,1.75 -0.58043,1.66666 -0.54391,1.66666 0.7539,0 1.05827,-1.35908 2.8697,-1.75 8.10938,-1.75 5.99104,0 6.67779,0.19605 6.13672,1.75 -0.58043,1.66666 -0.54391,1.66666 0.7539,0 1.05827,-1.35908 2.8697,-1.75 8.10938,-1.75 5.99104,0 6.67779,0.19605 6.13672,1.75 -0.58043,1.66666 -0.54391,1.66666 0.7539,0 0.74948,-0.96249 2.32509,-1.75 3.50195,-1.75 1.65729,0 2.14958,-0.62008 2.1836,-2.75 0.0249,-1.51253 0.047,-22.65407 0.0508,-46.98047 0.008,-40.26882 0.16041,-44.38264 1.70703,-45.94336 1.59833,-1.61283 1.59893,-1.67552 0,-1.07031 -1.58733,0.60083 -1.70054,-3.24305 -1.68164,-58.30469 0.0174,-53.8541 0.16409,-59.09522 1.69922,-60.64453 1.57402,-1.58834 1.57433,-1.65323 -0.0176,-1.05078 -1.58733,0.60083 -1.70054,-3.24305 -1.68164,-58.30469 0.0174,-53.8541 0.16604,-59.09522 1.70117,-60.64453 1.57399,-1.58853 1.57036,-1.65429 -0.0547,-1.03906 -1.60652,0.60835 -1.73108,-0.63598 -1.66796,-16.88867 0.0375,-9.65034 -0.119,-17.73228 -0.34766,-17.96094 -0.2287,-0.22862 -15.09132,-0.44437 -33.0293,-0.47461 -30.1708,-0.053 -32.57512,-0.18335 -32.09179,-1.75 0.46495,-1.50739 0.3979,-1.5005 -0.60352,0.0566 -0.89348,1.38981 -2.54882,1.75 -8.04297,1.75 -6.1299,0 -6.85708,-0.19952 -6.375,-1.75 0.51821,-1.66666 0.48958,-1.66666 -0.58203,0 -0.89348,1.38981 -2.54882,1.75 -8.04297,1.75 -6.1299,0 -6.85708,-0.19952 -6.375,-1.75 0.51281,-1.64953 0.47866,-1.64831 -0.58789,0.0117 -1.04765,1.63079 -3.83969,1.75825 -37.57617,1.71289 -20.04408,-0.0268 -36.44336,-0.42842 -36.44336,-0.89062 0,-0.46224 0.675,-1.39929 1.5,-2.08399 0.82499,-0.6847 1.5,-1.7267 1.5,-2.31445 0,-0.58779 -0.67542,-0.19456 -1.5,0.87305 -1.36906,1.77267 -1.47753,1.33387 -1.25,-5.0586 0.22258,-6.25024 0.46421,-7 2.25,-7 z M 258.5,568 v 4.41602 c 0,2.42917 0.44519,4.56669 0.99023,4.75 0.54505,0.1833 10.89505,0.20461 23,0.0469 L 304.5,576.92578 V 572.46289 568 h -23 z m -207.566406,2 c 3.169965,0 5.566406,0.44559 5.566406,1.03516 0,0.71361 0.600252,0.71361 1.933594,0 1.063823,-0.56935 4.438847,-1.03516 7.5,-1.03516 3.169965,0 5.566406,0.44559 5.566406,1.03516 0,0.71361 0.600252,0.71361 1.933594,0 1.063823,-0.56935 4.438847,-1.03516 7.5,-1.03516 3.169965,0 5.566406,0.44559 5.566406,1.03516 0,0.71361 0.600252,0.71361 1.933594,0 1.063823,-0.56935 3.088875,-1.03516 4.5,-1.03516 2.070123,0 2.566406,0.48294 2.566406,2.5 0,2.36209 -0.302211,2.49996 -5.46875,2.5 -4.74875,0 -5.396307,-0.23033 -4.923828,-1.75 0.511975,-1.64776 0.477058,-1.64813 -0.56836,-0.0254 -0.968155,1.503 -2.965361,1.72423 -15.529296,1.71289 -13.149203,-0.011 -14.371847,-0.16264 -13.888672,-1.72461 0.483023,-1.56079 0.430023,-1.55811 -0.595703,0.0371 -0.986155,1.53381 -2.906005,1.75 -15.542969,1.75 -11.769865,0 -14.323911,-0.24942 -13.896484,-1.36328 0.287991,-0.7505 1.644987,-1.87547 3.015624,-2.5 C 31.231918,569.71071 41.5,569.63231 41.5,571.03516 c 0,0.71361 0.600252,0.71361 1.933594,0 1.063823,-0.56935 4.438847,-1.03516 7.5,-1.03516 z m 213.197266,0 c 2.34731,0 2.36879,0.0712 0.77734,2.5 -1.59008,2.4268 -4.4082,3.43823 -4.4082,1.58203 0,-2.45639 1.44637,-4.08203 3.63086,-4.08203 z m 26.80273,0 c 3.16997,0 5.56641,0.44559 5.56641,1.03516 0,0.69845 0.65836,0.68281 2.02148,-0.0469 2.46135,-1.31724 3.97852,-0.52736 3.97852,2.07031 0,1.59515 -0.70702,1.94141 -3.96875,1.94141 -3.3202,0 -3.87903,-0.28589 -3.42383,-1.75 0.51821,-1.66666 0.48958,-1.66666 -0.58203,0 -0.98615,1.53381 -2.90597,1.75 -15.54297,1.75 -11.76982,0 -14.32391,-0.25137 -13.89648,-1.36523 0.288,-0.75051 1.64498,-1.87548 3.01562,-2.5 3.13036,-1.42617 13.39844,-1.50254 13.39844,-0.0996 0,0.71361 0.60025,0.71361 1.93359,0 1.06383,-0.56935 4.43885,-1.03516 7.5,-1.03516 z M 540.5,570 h 42.53516 42.5332 l -0.36719,2.75 -0.36914,2.75 -42.16601,0.26172 -42.16602,0.25976 v -3.00976 z m 174.61133,2.3418 c -0.35859,-0.0603 -0.61133,0.16081 -0.61133,0.59765 0,0.58247 0.45,1.0586 1,1.0586 0.55,0 1,-0.19681 1,-0.43946 0,-0.24253 -0.45,-0.72076 -1,-1.06054 -0.1375,-0.085 -0.26914,-0.13616 -0.38867,-0.15625 z m 120,0 c -0.35859,-0.0603 -0.61133,0.16081 -0.61133,0.59765 0,0.58247 0.45,1.0586 1,1.0586 0.55,0 1,-0.19681 1,-0.43946 0,-0.24253 -0.45,-0.72076 -1,-1.06054 -0.1375,-0.085 -0.26914,-0.13616 -0.38867,-0.15625 z M 487.5,577.99805 h 28 28 v 38 38 l 3.75,-0.0117 c 6.43177,-0.0225 21.44915,-3.59753 28.4375,-6.76953 16.88168,-7.66258 30.92059,-21.53603 38.77539,-38.32227 3.62162,-7.7396 7.03711,-20.62945 7.03711,-26.55469 V 578 H 785 948.5 v 40.48828 40.48828 L 908.25,659.23828 868,659.5 l 0.33984,6.44141 c 0.5009,9.4896 3.56213,20.38868 8.58399,30.55859 12.08746,24.47871 35.26109,41.02589 62.54297,44.6582 l 9.0332,1.20118 V 843.17969 943.99805 H 718 487.5 v -183 z m 57,0 h 38 c 31.49514,0 38,0.23449 38,1.36914 0,4.84747 -3.54118,20.07195 -6.09766,26.21289 -9.51269,22.85045 -31.27311,40.77668 -54.90234,45.22851 -8.08679,1.52372 -12.3419,1.97904 -13.75,1.47266 -0.96918,-0.34859 -1.25,-8.73834 -1.25,-37.36523 z m -534.464844,9.40039 c -0.3047111,0.0724 -0.6889391,0.56892 -0.9707029,1.30859 -0.5427023,1.42519 -0.4270814,1.54081 0.5605469,0.56055 0.683414,-0.67831 0.989672,-1.48689 0.681641,-1.79492 -0.07697,-0.077 -0.169913,-0.0984 -0.271485,-0.0742 z m 223.025394,28.07422 c 0.42974,0.0876 0.55682,0.0758 0.82031,0.0176 -0.21783,-0.0121 -0.62692,-0.003 -0.82031,-0.0176 z m -17.70508,10.50976 c -0.004,-0.002 -0.0215,2.1e-4 -0.0547,0.008 -0.0112,0.003 -0.022,0.007 -0.0332,0.01 0.002,0.003 0.005,0.007 0.008,0.01 0.009,-0.005 0.0828,-0.0258 0.0801,-0.0273 z m 0.24414,0.41406 c 0.0272,0.0301 0.0546,0.061 0.082,0.0898 1.50443,0.003 2.86713,0.28945 4.25391,1.25781 0.14505,-0.003 0.28069,-0.002 0.43554,-0.008 0.18936,-0.0325 0.47076,-0.0613 0.88282,-0.0996 1.08739,-0.10122 2.15761,-0.16905 3.24609,-0.18555 v -0.24219 c -2.96786,-0.2447 -5.93248,-0.55632 -8.90039,-0.8125 z m -4.24609,0.21094 c 0.0506,0.0274 0.094,0.0561 0.14453,0.084 v -0.082 c -0.0487,-10e-4 -0.0967,-6.7e-4 -0.14453,-0.002 z M 6.5,638.99805 h 2.4785156 2.4765624 l 0.273438,40.5625 c 0.149631,22.30938 -0.05249,41.43436 -0.447266,42.5 -0.394772,1.0656 -1.6322803,1.9375 -2.75,1.9375 -2.009537,0 -2.03125,-0.44203 -2.03125,-42.5 z m 944,20 h 3 3 v 42 42 h -3 -3 v -42 z m -81.25781,2 H 908.87109 948.5 v 39.4414 c 0,21.69256 -0.3375,39.60519 -0.75,39.80664 -1.80291,0.88007 -15.01337,-1.3132 -22.75195,-3.77734 -29.70448,-9.45849 -51.98368,-37.17906 -55.07227,-68.52344 z m -120.8418,50.84961 c 0.002,0.003 0.002,0.007 0.004,0.01 0.004,-10e-4 0.008,-0.004 0.0117,-0.006 -0.005,-0.001 -0.0104,-0.003 -0.0156,-0.004 z M 10.035156,767.39844 c -0.3047111,0.0724 -0.6889391,0.56892 -0.9707029,1.30859 -0.5427023,1.42519 -0.4270814,1.54081 0.5605469,0.56055 0.683414,-0.67831 0.989672,-1.48689 0.681641,-1.79492 -0.07697,-0.077 -0.169913,-0.0984 -0.271485,-0.0742 z m 0,60 c -0.3047111,0.0724 -0.6889391,0.56892 -0.9707029,1.30859 -0.5427023,1.42519 -0.4270814,1.54081 0.5605469,0.56055 0.683414,-0.67831 0.989672,-1.48689 0.681641,-1.79492 -0.07697,-0.077 -0.169913,-0.0984 -0.271485,-0.0742 z m 0,60 c -0.3047111,0.0724 -0.6889391,0.56892 -0.9707029,1.30859 -0.5427023,1.42519 -0.4270814,1.54081 0.5605469,0.56055 0.683414,-0.67831 0.989672,-1.48689 0.681641,-1.79492 -0.07697,-0.077 -0.169913,-0.0984 -0.271485,-0.0742 z"
       inkscape:connector-curvature="0" />
  </g>
</svg>
