<?xml version="1.0" encoding="UTF-8" standalone="no"?>
<!-- Created with Inkscape (http://www.inkscape.org/) -->

<svg
   xmlns:dc="http://purl.org/dc/elements/1.1/"
   xmlns:cc="http://creativecommons.org/ns#"
   xmlns:rdf="http://www.w3.org/1999/02/22-rdf-syntax-ns#"
   xmlns:svg="http://www.w3.org/2000/svg"
   xmlns="http://www.w3.org/2000/svg"
   xmlns:sodipodi="http://sodipodi.sourceforge.net/DTD/sodipodi-0.dtd"
   xmlns:inkscape="http://www.inkscape.org/namespaces/inkscape"
   width="252.41251mm"
   height="164.04166mm"
   viewBox="0 0 252.41251 164.04166"
   version="1.1"
   id="svg4097"
   inkscape:version="0.92.4 (5da689c313, 2019-01-14)"
   sodipodi:docname="speicher.svg">
  <defs
     id="defs4091" />
  <sodipodi:namedview
     id="base"
     pagecolor="#ffffff"
     bordercolor="#666666"
     borderopacity="1.0"
     inkscape:pageopacity="0.0"
     inkscape:pageshadow="2"
     inkscape:zoom="1.6306452"
     inkscape:cx="477"
     inkscape:cy="309.99997"
     inkscape:document-units="mm"
     inkscape:current-layer="layer1"
     showgrid="false"
     inkscape:window-width="1920"
     inkscape:window-height="1178"
     inkscape:window-x="-8"
     inkscape:window-y="1192"
     inkscape:window-maximized="1" />
  <metadata
     id="metadata4094">
    <rdf:RDF>
      <cc:Work
         rdf:about="">
        <dc:format>image/svg+xml</dc:format>
        <dc:type
           rdf:resource="http://purl.org/dc/dcmitype/StillImage" />
        <dc:title></dc:title>
      </cc:Work>
    </rdf:RDF>
  </metadata>
  <g
     inkscape:label="Ebene 1"
     inkscape:groupmode="layer"
     id="layer1"
     transform="translate(31.806701,-61.55864)">
    <path
       style="fill:#000000;stroke-width:0.26458332"
       d="m -30.88066,225.07114 c -0.09237,-0.29104 -0.338521,-0.52917 -0.546996,-0.52917 -0.328179,0 -0.379045,-10.86482 -0.379045,-80.9625 0,-70.097679 0.05087,-80.962496 0.379045,-80.962496 0.208475,0 0.454623,-0.238125 0.546996,-0.529167 0.167641,-0.528188 0.400324,-0.529167 125.827207,-0.529167 H 220.6058 v 82.02083 82.02083 H 94.946547 c -125.426883,0 -125.659566,-9.8e-4 -125.827207,-0.52916 z m 2.725209,-0.3175 c 0.246944,-0.24695 0.3175,-0.24695 0.3175,0 0,0.39991 2.726932,0.43431 3.456977,0.0436 0.352778,-0.18881 0.511773,-0.18881 0.511773,0 0,0.38802 3.25853,0.34911 3.65125,-0.0436 0.246944,-0.24695 0.3175,-0.24695 0.3175,0 0,0.21334 0.546806,0.3175 1.666875,0.3175 0.943681,0 1.804626,-0.13775 1.984375,-0.3175 0.246944,-0.24695 0.3175,-0.24695 0.3175,0 0,0.2134 0.547478,0.3175 1.669902,0.3175 1.365482,0 1.786724,-0.10853 2.310739,-0.59532 l 0.640837,-0.59531 -1.84143,-0.0796 c -1.520295,-0.0657 -1.906413,0.003 -2.214043,0.39688 -0.342546,0.43803 -0.359735,0.43911 -0.213029,0.0134 0.141907,-0.41174 -0.04319,-0.46302 -1.67105,-0.46302 -1.453657,0 -1.891938,0.0953 -2.12834,0.46302 -0.274096,0.42629 -0.286523,0.42691 -0.156691,0.008 0.128824,-0.41597 -0.182619,-0.45519 -3.602272,-0.45361 -2.539337,0.001 -3.871068,0.10507 -4.140578,0.32305 -0.313935,0.2539 -0.355602,0.25193 -0.198594,-0.009 0.148503,-0.24715 -0.139429,-0.3307 -1.139836,-0.3307 h -1.338532 v -4.39802 c 0,-4.1488 -0.02624,-4.3777 -0.463021,-4.03946 -0.440972,0.3415 -0.440972,0.3326 0,-0.18687 0.332031,-0.39113 0.463021,-1.00737 0.463021,-2.17825 0,-1.71485 -0.169686,-1.93941 -0.875853,-1.15911 -0.366253,0.40471 -0.427826,1.26224 -0.422704,5.88698 0.0064,5.77932 0.06426,6.33931 0.654928,6.33931 0.208475,0 0.379046,0.23813 0.379046,0.52917 0,0.42226 0.176389,0.52917 0.873125,0.52917 0.480219,0 1.016,-0.14288 1.190625,-0.3175 z m -2.592917,-5.22314 c 0,-0.13693 0.117699,-0.32171 0.261553,-0.41061 0.149982,-0.0927 0.194338,0.0135 0.103984,0.24896 -0.175893,0.45837 -0.365537,0.54224 -0.365537,0.16165 z m 22.436667,5.22314 c 0.2469436,-0.24695 0.3175,-0.24695 0.3175,0 0,0.21334 0.5468065,0.3175 1.666875,0.3175 0.9436815,0 1.8046251,-0.13775 1.9843751,-0.3175 0.2469435,-0.24695 0.3175,-0.24695 0.3175,0 0,0.39991 2.7269308,0.43431 3.45697706,0.0436 0.3527769,-0.18881 0.51177296,-0.18881 0.51177296,0 0,0.38802 3.25852898,0.34911 3.65125008,-0.0436 0.2469435,-0.24695 0.3175,-0.24695 0.3175,0 0,0.39991 2.7269308,0.43431 3.4569771,0.0436 0.3527769,-0.18881 0.5117729,-0.18881 0.5117729,0 0,0.38802 3.2585288,0.34911 3.6512498,-0.0436 0.246944,-0.24695 0.3175,-0.24695 0.3175,0 0,0.21334 0.546807,0.3175 1.666875,0.3175 0.943682,0 1.804625,-0.13775 1.984375,-0.3175 0.246944,-0.24695 0.3175,-0.24695 0.3175,0 0,0.2134 0.547479,0.3175 1.669902,0.3175 1.365483,0 1.786724,-0.10853 2.310739,-0.59532 l 0.640836,-0.59531 -1.841428,-0.0796 c -1.520296,-0.0657 -1.906413,0.003 -2.214044,0.39688 -0.342546,0.43803 -0.359736,0.43911 -0.213029,0.0134 0.141906,-0.41174 -0.04319,-0.46302 -1.671048,-0.46302 -1.453658,0 -1.89194,0.0953 -2.128343,0.46302 -0.274095,0.42629 -0.286522,0.42691 -0.156688,0.008 0.128822,-0.41597 -0.182621,-0.45519 -3.6022735,-0.45361 -2.5393359,0.001 -3.8710685,0.10507 -4.1405784,0.32305 -0.3139334,0.2539 -0.3556027,0.25193 -0.1985936,-0.009 0.1514104,-0.25203 -0.2426335,-0.33073 -1.6558552,-0.33073 -1.4764385,0 -1.91524994,0.0944 -2.15226104,0.46302 -0.28353015,0.44097 -0.29085117,0.44097 -0.15374144,0 0.12755033,-0.41023 -0.0647515,-0.46302 -1.68666582,-0.46302 -1.4536579,0 -1.8919402,0.0953 -2.1283428,0.46302 -0.2835301,0.44097 -0.2908512,0.44097 -0.1537414,0 0.1275503,-0.41023 -0.064751,-0.46302 -1.6866659,-0.46302 -1.4536579,0 -1.8919402,0.0953 -2.1283427,0.46302 -0.2835302,0.44097 -0.2908512,0.44097 -0.1537415,0 0.1274604,-0.40994 -0.063929,-0.46302 -1.6693846,-0.46302 -1.6422761,0 -1.8542371,0.0624 -2.2467541,0.66146 l -0.433404,0.66146 h 1.672975 c 0.9484242,0 1.8104806,-0.13751 1.990474,-0.3175 z m 31.75,0 c 0.246944,-0.24695 0.3175,-0.24695 0.3175,0 0,0.21334 0.546807,0.3175 1.666875,0.3175 0.943682,0 1.804625,-0.13775 1.984375,-0.3175 0.246944,-0.24695 0.3175,-0.24695 0.3175,0 0,0.39991 2.726931,0.43431 3.456978,0.0436 0.352776,-0.18881 0.511773,-0.18881 0.511773,0 0,0.38802 3.258529,0.34911 3.65125,-0.0436 0.246943,-0.24695 0.3175,-0.24695 0.3175,0 0,0.39991 2.72693,0.43431 3.456977,0.0436 0.352777,-0.18881 0.511773,-0.18881 0.511773,0 0,0.38802 3.258529,0.34911 3.65125,-0.0436 0.246943,-0.24695 0.3175,-0.24695 0.3175,0 0,0.21334 0.546806,0.3175 1.666875,0.3175 0.943681,0 1.804625,-0.13775 1.984375,-0.3175 0.246943,-0.24695 0.3175,-0.24695 0.3175,0 0,0.2134 0.547478,0.3175 1.669902,0.3175 1.365482,0 1.786723,-0.10853 2.310738,-0.59532 l 0.640837,-0.59531 -1.841429,-0.0796 c -1.520296,-0.0657 -1.906413,0.003 -2.214044,0.39688 -0.342545,0.43803 -0.359735,0.43911 -0.213029,0.0134 0.141907,-0.41174 -0.04319,-0.46302 -1.671047,-0.46302 -1.453658,0 -1.891941,0.0953 -2.128343,0.46302 -0.274095,0.42629 -0.286523,0.42691 -0.156689,0.008 0.128823,-0.41597 -0.182621,-0.45519 -3.602273,-0.45361 -2.539336,0.001 -3.871069,0.10507 -4.140579,0.32305 -0.313933,0.2539 -0.355602,0.25193 -0.198593,-0.009 0.15141,-0.25203 -0.242634,-0.33073 -1.655855,-0.33073 -1.476439,0 -1.91525,0.0944 -2.152261,0.46302 -0.28353,0.44097 -0.290852,0.44097 -0.153742,0 0.127551,-0.41023 -0.06475,-0.46302 -1.686666,-0.46302 -1.453658,0 -1.89194,0.0953 -2.128342,0.46302 -0.283531,0.44097 -0.290852,0.44097 -0.153742,0 0.127551,-0.41023 -0.06475,-0.46302 -1.686666,-0.46302 -1.453658,0 -1.89194,0.0953 -2.128342,0.46302 -0.283531,0.44097 -0.290852,0.44097 -0.153742,0 0.12746,-0.40994 -0.06393,-0.46302 -1.669383,-0.46302 -1.642277,0 -1.85424,0.0624 -2.246755,0.66146 l -0.433406,0.66146 h 1.672977 c 0.948423,0 1.81048,-0.13751 1.990473,-0.3175 z m 31.750001,0 c 0.246943,-0.24695 0.3175,-0.24695 0.3175,0 0,0.21334 0.546806,0.3175 1.666875,0.3175 0.943681,0 1.804625,-0.13775 1.984375,-0.3175 0.246943,-0.24695 0.3175,-0.24695 0.3175,0 0,0.39991 2.726931,0.43431 3.456977,0.0436 0.352777,-0.18881 0.511773,-0.18881 0.511773,0 0,0.38802 3.258529,0.34911 3.65125,-0.0436 0.246944,-0.24695 0.3175,-0.24695 0.3175,0 0,0.39991 2.726931,0.43431 3.456977,0.0436 0.352777,-0.18881 0.511773,-0.18881 0.511773,0 0,0.38802 3.258529,0.34911 3.65125,-0.0436 0.246944,-0.24695 0.3175,-0.24695 0.3175,0 0,0.21334 0.546807,0.3175 1.666875,0.3175 0.943682,0 1.804625,-0.13775 1.984375,-0.3175 0.246944,-0.24695 0.3175,-0.24695 0.3175,0 0,0.2134 0.547479,0.3175 1.669902,0.3175 1.365483,0 1.786723,-0.10853 2.310739,-0.59532 l 0.640836,-0.59531 -1.841428,-0.0796 c -1.520296,-0.0657 -1.906413,0.003 -2.214044,0.39688 -0.342546,0.43803 -0.359736,0.43911 -0.21303,0.0134 0.141907,-0.41174 -0.04318,-0.46302 -1.671047,-0.46302 -1.453658,0 -1.89194,0.0953 -2.128343,0.46302 -0.274095,0.42629 -0.286522,0.42691 -0.156689,0.008 0.128823,-0.41597 -0.18262,-0.45519 -3.602273,-0.45361 -2.539336,0.001 -3.871068,0.10507 -4.140578,0.32305 -0.313934,0.2539 -0.355603,0.25193 -0.198594,-0.009 0.151411,-0.25203 -0.242633,-0.33073 -1.655855,-0.33073 -1.476438,0 -1.91525,0.0944 -2.152261,0.46302 -0.28353,0.44097 -0.290851,0.44097 -0.153741,0 0.12755,-0.41023 -0.06475,-0.46302 -1.686666,-0.46302 -1.453658,0 -1.89194,0.0953 -2.128343,0.46302 -0.28353,0.44097 -0.290851,0.44097 -0.153741,0 0.12755,-0.41023 -0.06475,-0.46302 -1.686666,-0.46302 -1.453658,0 -1.89194,0.0953 -2.128343,0.46302 -0.28353,0.44097 -0.290851,0.44097 -0.153741,0 0.12746,-0.40994 -0.06393,-0.46302 -1.669384,-0.46302 -1.642276,0 -1.854239,0.0624 -2.246754,0.66146 l -0.433406,0.66146 h 1.672976 c 0.948423,0 1.81048,-0.13751 1.990474,-0.3175 z m 31.75,0 c 0.246944,-0.24695 0.3175,-0.24695 0.3175,0 0,0.21334 0.546807,0.3175 1.666875,0.3175 0.943682,0 1.804625,-0.13775 1.984375,-0.3175 0.246944,-0.24695 0.3175,-0.24695 0.3175,0 0,0.39991 2.726931,0.43431 3.456977,0.0436 0.352777,-0.18881 0.511773,-0.18881 0.511773,0 0,0.38802 3.258529,0.34911 3.65125,-0.0436 0.246944,-0.24695 0.3175,-0.24695 0.3175,0 0,0.39991 2.72693,0.43431 3.45698,0.0436 0.35277,-0.18881 0.51177,-0.18881 0.51177,0 0,0.38802 3.25853,0.34911 3.65125,-0.0436 0.24694,-0.24695 0.3175,-0.24695 0.3175,0 0,0.21334 0.54681,0.3175 1.66688,0.3175 0.94368,0 1.80462,-0.13775 1.98437,-0.3175 0.24694,-0.24695 0.3175,-0.24695 0.3175,0 0,0.2134 0.54748,0.3175 1.6699,0.3175 1.36549,0 1.78673,-0.10853 2.31074,-0.59532 l 0.64084,-0.59531 -1.84143,-0.0796 c -1.5203,-0.0657 -1.90641,0.003 -2.21404,0.39688 -0.34255,0.43803 -0.35974,0.43911 -0.21303,0.0134 0.1419,-0.41174 -0.0432,-0.46302 -1.67105,-0.46302 -1.45366,0 -1.89194,0.0953 -2.12834,0.46302 -0.2741,0.42629 -0.28653,0.42691 -0.15669,0.008 0.12882,-0.41597 -0.18262,-0.45519 -3.60228,-0.45361 -2.53933,0.001 -3.871065,0.10507 -4.140575,0.32305 -0.313933,0.2539 -0.355602,0.25193 -0.198593,-0.009 0.15141,-0.25203 -0.242634,-0.33073 -1.655855,-0.33073 -1.476439,0 -1.91525,0.0944 -2.152262,0.46302 -0.28353,0.44097 -0.290851,0.44097 -0.153741,0 0.12755,-0.41023 -0.06475,-0.46302 -1.686666,-0.46302 -1.453658,0 -1.89194,0.0953 -2.128343,0.46302 -0.28353,0.44097 -0.290851,0.44097 -0.153741,0 0.12755,-0.41023 -0.06475,-0.46302 -1.686666,-0.46302 -1.453658,0 -1.89194,0.0953 -2.128343,0.46302 -0.28353,0.44097 -0.290851,0.44097 -0.153741,0 0.12746,-0.40994 -0.06393,-0.46302 -1.669383,-0.46302 -1.642277,0 -1.85424,0.0624 -2.246755,0.66146 l -0.433406,0.66146 h 1.672977 c 0.948422,0 1.81048,-0.13751 1.990473,-0.3175 z m 31.75,0 c 0.24694,-0.24695 0.3175,-0.24695 0.3175,0 0,0.21334 0.54681,0.3175 1.66688,0.3175 0.94368,0 1.80462,-0.13775 1.98437,-0.3175 0.24694,-0.24695 0.3175,-0.24695 0.3175,0 0,0.39991 2.72693,0.43431 3.45698,0.0436 0.35277,-0.18881 0.51177,-0.18881 0.51177,0 0,0.38802 3.25853,0.34911 3.65125,-0.0436 0.24694,-0.24695 0.3175,-0.24695 0.3175,0 0,0.39991 2.72693,0.43431 3.45698,0.0436 0.35277,-0.18881 0.51177,-0.18881 0.51177,0 0,0.38802 3.25853,0.34911 3.65125,-0.0436 0.24694,-0.24695 0.3175,-0.24695 0.3175,0 0,0.21334 0.54681,0.3175 1.66688,0.3175 0.94368,0 1.80462,-0.13775 1.98437,-0.3175 0.24694,-0.24695 0.3175,-0.24695 0.3175,0 0,0.2134 0.54748,0.3175 1.6699,0.3175 1.36549,0 1.78673,-0.10853 2.31074,-0.59532 l 0.64084,-0.59531 -1.84143,-0.0796 c -1.5203,-0.0657 -1.90641,0.003 -2.21404,0.39688 -0.34255,0.43803 -0.35974,0.43911 -0.21303,0.0134 0.1419,-0.41174 -0.0432,-0.46302 -1.67105,-0.46302 -1.45366,0 -1.89194,0.0953 -2.12834,0.46302 -0.2741,0.42629 -0.28653,0.42691 -0.15669,0.008 0.12882,-0.41597 -0.18262,-0.45519 -3.60228,-0.45361 -2.53933,0.001 -3.87106,0.10507 -4.14057,0.32305 -0.31394,0.2539 -0.35561,0.25193 -0.1986,-0.009 0.15141,-0.25203 -0.24263,-0.33073 -1.65585,-0.33073 -1.47644,0 -1.91525,0.0944 -2.15226,0.46302 -0.28353,0.44097 -0.29086,0.44097 -0.15375,0 0.12755,-0.41023 -0.0648,-0.46302 -1.68666,-0.46302 -1.45366,0 -1.89194,0.0953 -2.12834,0.46302 -0.28353,0.44097 -0.29086,0.44097 -0.15375,0 0.12755,-0.41023 -0.0648,-0.46302 -1.68666,-0.46302 -1.45366,0 -1.89194,0.0953 -2.12834,0.46302 -0.28353,0.44097 -0.29086,0.44097 -0.15375,0 0.12746,-0.40994 -0.0639,-0.46302 -1.66938,-0.46302 -1.64228,0 -1.85424,0.0624 -2.24675,0.66146 l -0.43341,0.66146 h 1.67298 c 0.94842,0 1.81048,-0.13751 1.99047,-0.3175 z m 31.75,0 c 0.24694,-0.24695 0.3175,-0.24695 0.3175,0 0,0.21334 0.54681,0.3175 1.66688,0.3175 0.94368,0 1.80462,-0.13775 1.98437,-0.3175 0.24694,-0.24695 0.3175,-0.24695 0.3175,0 0,0.39991 2.72693,0.43431 3.45698,0.0436 0.35278,-0.18881 0.51177,-0.18881 0.51177,0 0,0.38802 3.25853,0.34911 3.65125,-0.0436 0.24694,-0.24695 0.3175,-0.24695 0.3175,0 0,0.39991 2.72693,0.43431 3.45698,0.0436 0.35278,-0.18881 0.51177,-0.18881 0.51177,0 0,0.38802 3.25853,0.34911 3.65125,-0.0436 0.24694,-0.24695 0.3175,-0.24695 0.3175,0 0,0.21334 0.54681,0.3175 1.66688,0.3175 0.94368,0 1.80462,-0.13775 1.98437,-0.3175 0.24694,-0.24695 0.3175,-0.24695 0.3175,0 0,0.2134 0.54748,0.3175 1.6699,0.3175 1.36549,0 1.78673,-0.10853 2.31074,-0.59532 l 0.64084,-0.59531 -1.84143,-0.0796 c -1.5203,-0.0657 -1.90641,0.003 -2.21404,0.39688 -0.34255,0.43803 -0.35974,0.43911 -0.21303,0.0134 0.1419,-0.41174 -0.0432,-0.46302 -1.67105,-0.46302 -1.45366,0 -1.89194,0.0953 -2.12834,0.46302 -0.2741,0.42629 -0.28653,0.42691 -0.15669,0.008 0.12882,-0.41597 -0.18262,-0.45519 -3.60228,-0.45361 -2.53933,0.001 -3.87106,0.10507 -4.14057,0.32305 -0.31394,0.2539 -0.35561,0.25193 -0.1986,-0.009 0.15141,-0.25203 -0.24263,-0.33073 -1.65585,-0.33073 -1.47644,0 -1.91525,0.0944 -2.15226,0.46302 -0.28353,0.44097 -0.29085,0.44097 -0.15375,0 0.12756,-0.41023 -0.0648,-0.46302 -1.68666,-0.46302 -1.45366,0 -1.89194,0.0953 -2.12834,0.46302 -0.28353,0.44097 -0.29085,0.44097 -0.15375,0 0.12756,-0.41023 -0.0648,-0.46302 -1.68666,-0.46302 -1.45366,0 -1.89194,0.0953 -2.12834,0.46302 -0.28353,0.44097 -0.29085,0.44097 -0.15375,0 0.12747,-0.40994 -0.0639,-0.46302 -1.66938,-0.46302 -1.64228,0 -1.85424,0.0624 -2.24675,0.66146 l -0.43341,0.66146 h 1.67298 c 0.94842,0 1.81048,-0.13751 1.99047,-0.3175 z m 31.75,0 c 0.24695,-0.24695 0.3175,-0.24695 0.3175,0 0,0.21334 0.54681,0.3175 1.66688,0.3175 0.94368,0 1.80462,-0.13775 1.98437,-0.3175 0.24695,-0.24695 0.3175,-0.24695 0.3175,0 0,0.39991 2.72693,0.43431 3.45698,0.0436 0.35278,-0.18881 0.51177,-0.18881 0.51177,0 0,0.38802 3.25853,0.34911 3.65125,-0.0436 0.24695,-0.24695 0.3175,-0.24695 0.3175,0 0,0.39991 2.72693,0.43431 3.45698,0.0436 0.35278,-0.18881 0.51177,-0.18881 0.51177,0 0,0.38802 3.25853,0.34911 3.65125,-0.0436 0.24695,-0.24695 0.3175,-0.24695 0.3175,0 0,0.21334 0.54681,0.3175 1.66688,0.3175 0.94368,0 1.80462,-0.13775 1.98437,-0.3175 0.24695,-0.24695 0.3175,-0.24695 0.3175,0 0,0.2134 0.54748,0.3175 1.6699,0.3175 1.36549,0 1.78673,-0.10853 2.31074,-0.59532 l 0.64084,-0.59531 -1.84143,-0.0796 c -1.5203,-0.0657 -1.90641,0.003 -2.21404,0.39688 -0.34255,0.43803 -0.35974,0.43911 -0.21303,0.0134 0.1419,-0.41174 -0.0432,-0.46302 -1.67105,-0.46302 -1.45366,0 -1.89194,0.0953 -2.12834,0.46302 -0.2741,0.42629 -0.28653,0.42691 -0.15669,0.008 0.12882,-0.41597 -0.18262,-0.45519 -3.60228,-0.45361 -2.53933,0.001 -3.87106,0.10507 -4.14057,0.32305 -0.31394,0.2539 -0.35561,0.25193 -0.1986,-0.009 0.15141,-0.25203 -0.24263,-0.33073 -1.65585,-0.33073 -1.47644,0 -1.91525,0.0944 -2.15226,0.46302 -0.28353,0.44097 -0.29085,0.44097 -0.15374,0 0.12755,-0.41023 -0.0648,-0.46302 -1.68667,-0.46302 -1.45366,0 -1.89194,0.0953 -2.12834,0.46302 -0.28353,0.44097 -0.29085,0.44097 -0.15374,0 0.12755,-0.41023 -0.0648,-0.46302 -1.68667,-0.46302 -1.45366,0 -1.89194,0.0953 -2.12834,0.46302 -0.28353,0.44097 -0.29085,0.44097 -0.15374,0 0.12746,-0.40994 -0.0639,-0.46302 -1.66939,-0.46302 -1.64227,0 -1.85424,0.0624 -2.24675,0.66146 l -0.43341,0.66146 h 1.67298 c 0.94842,0 1.81048,-0.13751 1.99047,-0.3175 z m 31.75,0 c 0.24695,-0.24695 0.3175,-0.24695 0.3175,0 0,0.21334 0.54681,0.3175 1.66688,0.3175 0.94368,0 1.80462,-0.13775 1.98437,-0.3175 0.24695,-0.24695 0.3175,-0.24695 0.3175,0 0,0.17639 0.35278,0.3175 0.79375,0.3175 0.74155,0 0.79348,-0.0653 0.7897,-0.99219 -0.003,-0.73802 -0.0697,-0.89052 -0.26053,-0.59531 -0.15411,0.23846 -0.2581,0.2711 -0.26053,0.0818 -0.002,-0.17331 0.11501,-0.3887 0.26053,-0.47864 0.1567,-0.0968 0.26458,-1.72774 0.26458,-3.99998 0,-2.72228 -0.0845,-3.78423 -0.29098,-3.65662 -0.21158,0.13077 -0.21158,0.0315 0,-0.36387 0.16004,-0.29903 0.29098,-1.27293 0.29098,-2.16421 0,-1.11097 -0.0915,-1.56396 -0.29098,-1.44067 -0.21158,0.13077 -0.21158,0.0315 0,-0.36387 0.16004,-0.29903 0.29098,-1.27293 0.29098,-2.16421 0,-1.11097 -0.0915,-1.56396 -0.29098,-1.44067 -0.21158,0.13077 -0.21158,0.0315 0,-0.36387 0.16004,-0.29903 0.29098,-1.27293 0.29098,-2.16421 0,-1.11097 -0.0915,-1.56396 -0.29098,-1.44067 -0.21158,0.13077 -0.21158,0.0315 0,-0.36387 0.16004,-0.29903 0.29098,-1.27293 0.29098,-2.16421 0,-1.11097 -0.0915,-1.56396 -0.29098,-1.44067 -0.21158,0.13077 -0.21158,0.0315 0,-0.36387 0.16004,-0.29903 0.29098,-1.27293 0.29098,-2.16421 0,-1.11097 -0.0915,-1.56396 -0.29098,-1.44067 -0.21158,0.13077 -0.21158,0.0315 0,-0.36387 0.42386,-0.79198 0.39003,-3.84422 -0.0397,-3.58602 -0.25852,0.15532 -0.26227,0.114 -0.0172,-0.18924 0.21911,-0.27108 0.31878,-2.13705 0.33091,-6.19517 0.0172,-5.7479 0.0121,-5.80192 -0.49527,-5.28526 -0.37812,0.38503 -0.52908,0.95539 -0.57534,2.17374 -0.0345,0.90846 0.007,1.7211 0.0914,1.80586 0.0848,0.0848 0.0611,0.47824 -0.0525,0.87441 -0.11362,0.39616 -0.12402,1.26433 -0.0231,1.92926 0.10091,0.66493 0.10897,1.43316 0.0179,1.70718 -0.0911,0.27402 -0.13976,0.79587 -0.10823,1.15967 0.0983,1.13443 0.11526,2.98034 0.0419,4.56436 -0.0387,0.8369 0.0159,1.52151 0.12145,1.52135 0.10554,-1.6e-4 0.0834,0.28512 -0.0493,0.63396 -0.13262,0.34884 -0.18442,0.69097 -0.1151,0.7603 0.0693,0.0693 0.11457,1.18289 0.10054,2.4746 -0.014,1.2917 -0.0215,2.58668 -0.0166,2.87772 0.005,0.29104 2.7e-4,1.36261 -0.0102,2.38125 -0.0105,1.01865 -0.0132,2.03068 -0.006,2.24896 0.0795,2.42109 0.0371,14.07477 -0.0517,14.22318 -0.0647,0.10814 -0.0314,0.75714 0.0742,1.44223 0.10644,0.69102 0.0824,1.39784 -0.054,1.5875 -0.17756,0.24687 -0.20451,0.2132 -0.097,-0.12114 0.13212,-0.41071 -0.0579,-0.46302 -1.68168,-0.46302 -1.45366,0 -1.89194,0.0953 -2.12834,0.46302 -0.28353,0.44097 -0.29085,0.44097 -0.15374,0 0.12746,-0.40994 -0.0639,-0.46302 -1.66939,-0.46302 -1.64227,0 -1.85424,0.0624 -2.24675,0.66146 l -0.43341,0.66146 h 1.67298 c 0.94842,0 1.81048,-0.13751 1.99047,-0.3175 z m 4.02167,-24.95114 v -23.41656 l -36.57865,0.0671 -36.57864,0.0671 v 1.52183 c 0,1.44607 -0.0329,1.522 -0.66146,1.52497 -0.3638,0.002 -0.90129,0.0676 -1.19442,0.14636 -0.47002,0.12632 -0.59148,-0.085 -1.02846,-1.78955 -0.27252,-1.06303 -0.54732,-2.07085 -0.61065,-2.23961 -0.0633,-0.16875 0.13158,-0.38513 0.43314,-0.48085 0.53564,-0.17 0.5483,-0.32857 0.5483,-6.86424 v -6.69022 l -1.99699,-0.16881 c -5.09539,-0.43072 -10.66346,-3.55332 -13.86124,-7.77345 -2.54063,-3.35289 -4.2501,-7.86889 -4.2501,-11.22771 v -1.54518 h 10.05417 10.05416 v -8.73125 -8.73125 h 37.83542 37.83542 V 93.837806 64.204474 H 94.267259 -29.425451 v 79.330896 c 0,43.632 0.07937,79.41028 0.176389,79.50729 0.09701,0.097 55.758732,0.17639 123.69271,0.17639 H 217.95997 Z m -248.086864,11.16164 c 0.09475,0.0948 0.172276,-0.69374 0.172276,-1.75221 0,-1.5719 -0.07024,-1.89754 -0.3834,-1.77737 -0.255748,0.0981 -0.33461,0.02 -0.236859,-0.23475 0.0806,-0.21004 0.253127,-0.31601 0.3834,-0.2355 0.13742,0.0849 0.236859,-3.19905 0.236859,-7.82234 0,-6.29818 -0.06933,-7.92959 -0.330729,-7.78201 -0.264583,0.14938 -0.264583,0.11546 0,-0.16959 0.393944,-0.42442 0.477251,-7.65882 0.08819,-7.65882 -0.133394,0 -0.302588,0.14883 -0.375986,0.33073 -0.104526,0.25905 -0.13798,0.25725 -0.154341,-0.008 -0.01149,-0.18647 0.157706,-0.40757 0.375987,-0.49133 0.340322,-0.13059 0.396875,-1.26047 0.396875,-7.92919 0,-6.98845 -0.137122,-8.63921 -0.618521,-7.44618 -0.104526,0.25905 -0.13798,0.25725 -0.154341,-0.008 -0.01149,-0.18647 0.157706,-0.40757 0.375987,-0.49133 0.340322,-0.13059 0.396875,-1.26047 0.396875,-7.92919 0,-6.98845 -0.137122,-8.63921 -0.618521,-7.44618 -0.104526,0.25905 -0.13798,0.25725 -0.154341,-0.008 -0.01149,-0.18647 0.157706,-0.40757 0.375987,-0.49133 0.340322,-0.13059 0.396875,-1.26047 0.396875,-7.92919 0,-6.98845 -0.137122,-8.63921 -0.618521,-7.44618 -0.104526,0.25905 -0.13798,0.25725 -0.154341,-0.008 -0.01149,-0.18647 0.157706,-0.40757 0.375987,-0.49133 0.34058,-0.1307 0.396875,-1.27877 0.396875,-8.09389 0,-7.52362 -0.02437,-7.92272 -0.463021,-7.58302 -0.440972,0.34149 -0.440972,0.33259 0,-0.18687 0.332031,-0.39114 0.463021,-1.00737 0.463021,-2.17826 0,-1.7086 -0.170582,-1.93929 -0.864988,-1.16979 -0.36746,0.4072 -0.417915,1.8774 -0.418492,12.1943 l -6.62e-4,11.73127 0.575923,-0.48459 0.575922,-0.48459 -0.576346,0.65957 -0.576346,0.65956 0.0023,15.69835 0.0023,15.69834 0.574069,-0.48291 0.574068,-0.48291 -0.578053,0.65956 -0.578052,0.65957 3.17e-4,19.30214 c 1.74e-4,10.61618 0.07011,19.41508 0.155419,19.5531 0.08531,0.13803 0.29753,0.0562 0.471606,-0.18188 0.174078,-0.23806 0.394028,-0.35532 0.48878,-0.26057 z m -0.472171,-7.66639 c 0.09936,-0.26094 0.247304,-0.40778 0.328765,-0.32632 0.08146,0.0815 1.68e-4,0.29495 -0.180653,0.47443 -0.261307,0.25936 -0.291698,0.22897 -0.148112,-0.14811 z m 0,-7.9375 c 0.09936,-0.26094 0.247304,-0.40778 0.328765,-0.32632 0.08146,0.0815 1.68e-4,0.29495 -0.180653,0.47443 -0.261307,0.25936 -0.291698,0.22897 -0.148112,-0.14811 z m -0.149303,-19.486 c 0,-0.13693 0.117699,-0.32171 0.261553,-0.41061 0.149982,-0.0927 0.194338,0.0135 0.103984,0.24896 -0.175893,0.45837 -0.365537,0.54224 -0.365537,0.16165 z m 0,-19.84375 c 0,-0.13693 0.117699,-0.32171 0.261553,-0.41061 0.149982,-0.0927 0.194338,0.0135 0.103984,0.24896 -0.175893,0.45837 -0.365537,0.54224 -0.365537,0.16165 z m 0,-11.90625 c 0,-0.13693 0.117699,-0.32171 0.261553,-0.41061 0.149982,-0.0927 0.194338,0.0135 0.103984,0.24896 -0.175893,0.45837 -0.365537,0.54224 -0.365537,0.16165 z m 0,-19.84375 c 0,-0.13693 0.117699,-0.32171 0.261553,-0.41061 0.149982,-0.0927 0.194338,0.0135 0.103984,0.24896 -0.175893,0.45837 -0.365537,0.54224 -0.365537,0.16165 z M 219.3282,179.65409 c 0.45217,-0.40921 0.48385,-1.08005 0.48385,-10.24526 v -9.80737 l -0.55832,0.55832 c -0.40394,0.40394 -0.55426,0.87744 -0.54365,1.71244 0.0209,1.64815 0.0257,3.09165 0.0148,4.46142 -0.005,0.65484 10e-4,1.42875 0.0144,1.71979 0.0132,0.29104 0.0258,1.28522 0.028,2.20929 0.002,0.92406 0.0142,1.7575 0.0266,1.85208 0.0124,0.0946 0.008,0.67798 -0.009,1.29644 -0.0301,1.08103 -0.0639,1.12448 -0.87418,1.12448 -0.4936,0 -1.12398,0.24503 -1.52135,0.59135 -0.37318,0.32524 -0.52968,0.42049 -0.34778,0.21167 0.58273,-0.66898 0.36539,-0.80302 -1.30208,-0.80302 -1.16318,0 -1.77526,0.12891 -2.12806,0.44819 -0.46541,0.42119 -0.48488,0.42119 -0.32325,0 0.15072,-0.39278 -0.0359,-0.44701 -1.50997,-0.43867 -1.38655,0.008 -1.82136,0.12378 -2.4757,0.66014 l -0.79375,0.65063 1.86531,0.001 c 1.12756,8e-4 2.00624,-0.12949 2.22163,-0.32941 0.2728,-0.25321 0.3133,-0.25443 0.1728,-0.005 -0.14111,0.25032 0.58439,0.3236 3.13945,0.31714 1.82764,-0.005 3.44578,0.0675 3.59588,0.16026 0.15009,0.0928 0.44628,0.0248 0.65818,-0.1511 0.22723,-0.18858 0.38529,-0.20954 0.38529,-0.0511 0,0.14777 -0.16853,0.33334 -0.3745,0.41238 -0.26138,0.1003 -0.40124,0.70843 -0.46302,2.01328 -0.0487,1.02826 -0.0384,1.8693 0.0229,1.86897 0.0613,-2.6e-4 0.3292,-0.19764 0.59532,-0.43848 z m -75.22625,-2.32098 c -0.0481,-0.93529 0.0197,-1.7985 0.15062,-1.91823 0.13644,-0.12477 0.15682,-0.0765 0.0477,0.11303 -0.1444,0.25093 0.24752,0.33073 1.62446,0.33073 1.0854,0 1.95799,-0.13293 2.1711,-0.33073 0.25513,-0.23681 0.30547,-0.24034 0.17727,-0.0124 -0.25818,0.45898 19.08655,0.45802 19.65425,-0.001 0.30845,-0.24938 0.34994,-0.24651 0.19379,0.0134 -0.15124,0.25175 0.23468,0.33073 1.61609,0.33073 1.0854,0 1.95799,-0.13293 2.1711,-0.33073 0.28505,-0.26458 0.31897,-0.26458 0.16959,0 -0.33094,0.58617 3.28748,0.42066 4.0117,-0.1835 0.32742,-0.27315 0.59531,-0.56685 0.59531,-0.65266 0,-0.35366 -3.0812,-0.13926 -3.64181,0.25341 -0.52758,0.36953 -0.56924,0.36953 -0.42744,0 0.13083,-0.34094 -0.10335,-0.40944 -1.39982,-0.40944 -0.97696,0 -1.77469,0.15252 -2.14149,0.40944 -0.51014,0.35732 -0.56514,0.35882 -0.43199,0.0118 0.23769,-0.6194 -6.95363,-0.58029 -7.64075,0.0416 -0.44477,0.40251 -0.46675,0.40146 -0.30707,-0.0146 0.14962,-0.38981 -0.0305,-0.4481 -1.38495,-0.4481 -0.97696,0 -1.77469,0.15252 -2.14149,0.40944 -0.52758,0.36953 -0.56924,0.36953 -0.42744,0 0.23736,-0.61855 -2.97159,-0.58458 -3.66037,0.0388 -0.44998,0.40722 -0.47993,0.4083 -0.3278,0.0118 0.15063,-0.39251 -0.1999,-0.43606 -3.48968,-0.43354 -3.01425,0.002 -3.74135,0.079 -4.1362,0.43635 -0.44477,0.40251 -0.46675,0.40146 -0.30707,-0.0146 0.11765,-0.3066 0.0377,-0.44818 -0.2532,-0.44818 -0.33383,0 -0.42518,-0.28423 -0.42518,-1.32292 0,-0.8708 -0.11303,-1.33005 -0.33073,-1.3438 -0.26458,-0.0167 -0.26458,-0.0476 0,-0.15434 0.43537,-0.17568 0.44644,-3.30739 0.0132,-3.74061 -0.24695,-0.24694 -0.245,-0.3175 0.009,-0.3175 0.23848,0 0.31205,-0.64406 0.27343,-2.39387 -0.0499,-2.2607 -0.0835,-2.3895 -0.60408,-2.31511 -0.38734,0.0553 -0.57718,0.30594 -0.63848,0.84278 -0.0695,0.6085 -0.002,0.73111 0.33385,0.60242 0.37852,-0.14525 0.38215,-0.0863 0.0359,0.58325 -0.51881,1.00327 -0.51065,3.56767 0.0107,3.36761 0.31283,-0.12005 0.30863,-0.0164 -0.0255,0.62981 -0.53095,1.02675 -0.55214,3.56061 -0.0281,3.35952 0.31917,-0.12248 0.3194,-0.0421 0.002,0.567 -0.20366,0.39035 -0.37101,1.1562 -0.37191,1.70191 -0.001,0.70483 -0.11657,0.99218 -0.3985,0.99218 -0.4374,0 -0.46469,0.11693 -0.2309,0.98922 0.0873,0.32578 0.26293,0.52796 0.39024,0.44927 0.12731,-0.0787 0.16046,0.042 0.0737,0.26816 -0.0868,0.22616 -0.0832,0.7086 0.008,1.07207 0.1231,0.49048 0.34133,0.66087 0.84638,0.66087 0.66945,0 0.67909,-0.0277 0.59306,-1.70053 z m -1.01907,-0.66511 c 0,-0.13693 0.1177,-0.32171 0.26156,-0.41061 0.14998,-0.0927 0.19433,0.0135 0.10398,0.24896 -0.17589,0.45837 -0.36554,0.54224 -0.36554,0.16165 z m 36.76299,-1.14009 c 0.25513,-0.23681 0.30547,-0.24034 0.17727,-0.0124 -0.25818,0.45898 19.08655,0.45802 19.65425,-0.001 0.30845,-0.24938 0.34994,-0.24651 0.19379,0.0134 -0.15124,0.25175 0.23468,0.33073 1.61609,0.33073 1.0854,0 1.95799,-0.13293 2.1711,-0.33073 0.28505,-0.26458 0.31897,-0.26458 0.16959,0 -0.33094,0.58617 3.28748,0.42066 4.0117,-0.1835 0.32742,-0.27315 0.59531,-0.56685 0.59531,-0.65266 0,-0.35366 -3.0812,-0.13926 -3.64181,0.25341 -0.52758,0.36953 -0.56924,0.36953 -0.42744,0 0.13083,-0.34094 -0.10335,-0.40944 -1.39982,-0.40944 -0.97696,0 -1.77469,0.15252 -2.14149,0.40944 -0.51014,0.35732 -0.56514,0.35882 -0.43199,0.0118 0.23769,-0.6194 -6.95362,-0.58029 -7.64075,0.0416 -0.44477,0.40251 -0.46675,0.40146 -0.30707,-0.0146 0.14962,-0.38981 -0.0305,-0.4481 -1.38495,-0.4481 -0.97696,0 -1.77469,0.15252 -2.14149,0.40944 -0.52758,0.36953 -0.56924,0.36953 -0.42744,0 0.13154,-0.3428 -0.11387,-0.40944 -1.50779,-0.40944 -1.34448,0 -1.79548,0.11381 -2.34341,0.59135 -0.37318,0.32524 -0.52968,0.42049 -0.34778,0.21167 0.58273,-0.66898 0.36539,-0.80302 -1.30208,-0.80302 -1.16318,0 -1.77526,0.12891 -2.12806,0.44819 -0.46541,0.42119 -0.48488,0.42119 -0.32325,0 0.15072,-0.39278 -0.0359,-0.44701 -1.50997,-0.43867 -1.38655,0.008 -1.82136,0.12378 -2.4757,0.66014 l -0.79375,0.65063 1.86531,10e-4 c 1.12756,8e-4 2.00624,-0.12949 2.22163,-0.32941 z m 37.98181,-25.7969 c 0,-14.07941 0.0996,-24.40783 0.23541,-24.40782 0.12948,2e-5 0.40394,-0.20833 0.60991,-0.46299 0.34657,-0.42849 0.35591,-0.42356 0.12526,0.0661 -0.13707,0.29104 -0.21837,0.82682 -0.18065,1.19062 0.0377,0.3638 0.0838,1.06687 0.10234,1.56236 0.0331,0.88366 0.0439,0.89174 0.56294,0.42202 0.43535,-0.39399 0.52844,-0.81169 0.52511,-2.35611 -0.003,-1.3097 -0.0816,-1.75724 -0.26053,-1.48035 -0.15411,0.23847 -0.2581,0.2711 -0.26053,0.0818 -0.002,-0.17331 0.11501,-0.3887 0.26053,-0.47864 0.14552,-0.0899 0.26458,-0.99695 0.26458,-2.0156 0,-1.27936 -0.09,-1.79647 -0.29098,-1.67225 -0.21158,0.13077 -0.21158,0.0315 0,-0.36386 0.16004,-0.29904 0.29098,-1.27294 0.29098,-2.16422 0,-1.11097 -0.0915,-1.56396 -0.29098,-1.44067 -0.21158,0.13077 -0.21158,0.0315 0,-0.36386 0.16004,-0.29904 0.29098,-1.27294 0.29098,-2.16422 0,-1.11097 -0.0915,-1.56396 -0.29098,-1.44067 -0.21158,0.13077 -0.21158,0.0315 0,-0.36386 0.16004,-0.29904 0.29098,-1.27294 0.29098,-2.16422 0,-1.11097 -0.0915,-1.56396 -0.29098,-1.44067 -0.21158,0.13077 -0.21158,0.0315 0,-0.36386 0.39218,-0.7328 0.39218,-3.84727 0,-3.60489 -0.21158,0.13077 -0.21158,0.0315 0,-0.36386 0.39218,-0.7328 0.39218,-3.84727 0,-3.60489 -0.21158,0.13077 -0.21158,0.0315 0,-0.363864 0.42386,-0.791982 0.39003,-3.844223 -0.0397,-3.586024 -0.26012,0.156278 -0.26286,0.114755 -0.0128,-0.194506 0.41615,-0.514691 0.45458,-8.010321 0.0397,-7.75394 -0.18448,0.114009 -0.18016,-0.01122 0.0128,-0.371779 0.39218,-0.732793 0.39218,-3.847264 0,-3.604885 -0.21158,0.130768 -0.21158,0.03148 0,-0.363865 0.39218,-0.732792 0.39218,-3.847264 0,-3.604885 -0.21158,0.130767 -0.21158,0.03149 0,-0.363865 0.39218,-0.732792 0.39218,-3.847264 0,-3.604884 -0.21158,0.130766 -0.21158,0.03148 0,-0.363866 0.39218,-0.732792 0.39218,-3.847264 0,-3.604884 -0.21158,0.130766 -0.21158,0.03148 0,-0.363866 0.39218,-0.732792 0.39218,-3.847264 0,-3.604884 -0.21158,0.130766 -0.21158,0.03148 0,-0.363866 0.42386,-0.791983 0.39003,-3.844223 -0.0397,-3.586024 -0.2415,0.145089 -0.23663,0.08258 0.018,-0.231685 0.19183,-0.236709 0.31089,-0.823459 0.26458,-1.303888 -0.079,-0.819982 -0.14094,-0.869688 -1.01024,-0.811158 -0.50932,0.03429 -1.86182,0.05749 -3.00555,0.05155 -1.69357,-0.0088 -2.14791,0.07716 -2.44805,0.463144 -0.31043,0.399226 -0.34451,0.404596 -0.21616,0.03406 0.19186,-0.553888 -0.34195,-0.669184 -2.26703,-0.48965 -0.80076,0.07468 -2.05123,0.07404 -2.77883,-0.0014 -0.72761,-0.07545 -1.64138,-0.05657 -2.03061,0.04197 -0.38923,0.09854 -0.77863,0.108218 -0.86533,0.02151 -0.0867,-0.0867 -0.89256,-0.139014 -1.79079,-0.116244 -1.15867,0.02937 -1.69899,0.159064 -1.85979,0.446408 -0.12466,0.222754 -0.36957,0.403185 -0.54424,0.400956 -0.19738,-0.0025 -0.17026,-0.09721 0.0716,-0.250197 0.21407,-0.13538 0.32755,-0.307811 0.25218,-0.38318 -0.16322,-0.163224 -2.41121,-0.203071 -5.60251,-0.09931 -1.2734,0.0414 -2.31495,0.01575 -2.31454,-0.05701 5.3e-4,-0.07276 -0.80319,-0.09458 -1.78576,-0.0485 -1.27717,0.05991 -1.89093,0.210768 -2.15282,0.529167 -0.34129,0.414943 -0.35542,0.413737 -0.20674,-0.01765 0.13783,-0.399907 -0.0286,-0.467292 -1.22117,-0.494353 -0.75942,-0.01723 -1.49983,-0.0046 -1.64535,0.02806 -0.14552,0.03267 -1.20036,0.04185 -2.3441,0.02041 -1.71511,-0.03215 -2.14409,0.04407 -2.44804,0.434962 -0.31043,0.399226 -0.34451,0.404596 -0.21616,0.03406 0.19186,-0.553887 -0.34195,-0.669183 -2.26703,-0.48965 -0.80076,0.07468 -2.05123,0.07404 -2.77883,-0.0014 -0.72761,-0.07546 -1.64138,-0.05657 -2.03061,0.04197 -0.38923,0.09854 -0.77863,0.108217 -0.86533,0.02151 -0.0867,-0.0867 -0.89256,-0.139013 -1.79079,-0.116244 -1.15867,0.02937 -1.69899,0.159065 -1.85979,0.446408 -0.12466,0.222755 -0.36957,0.403185 -0.54424,0.400957 -0.19738,-0.0025 -0.17026,-0.09722 0.0716,-0.250197 0.21407,-0.13538 0.32755,-0.307812 0.25218,-0.38318 -0.16322,-0.163224 -2.41121,-0.203072 -5.60251,-0.09931 -1.2734,0.0414 -2.31495,0.01575 -2.31454,-0.05701 5.2e-4,-0.07276 -0.80319,-0.09458 -1.78576,-0.0485 -1.27717,0.0599 -1.89093,0.210768 -2.15282,0.529166 -0.3413,0.414943 -0.35542,0.413737 -0.20674,-0.01765 0.13783,-0.399907 -0.0286,-0.467292 -1.22118,-0.494353 -0.75941,-0.01723 -1.49982,-0.0046 -1.64534,0.02806 -0.14552,0.03267 -1.20036,0.04185 -2.3441,0.02041 -1.71511,-0.03215 -2.14409,0.04407 -2.44804,0.434962 -0.31043,0.399226 -0.34451,0.404596 -0.21616,0.03406 0.19186,-0.553888 -0.34195,-0.669184 -2.26703,-0.48965 -0.80076,0.07468 -2.05123,0.07404 -2.77884,-0.0014 -0.7276,-0.07546 -1.64137,-0.05657 -2.0306,0.04196 -0.38923,0.09854 -0.77863,0.108218 -0.86533,0.02151 -0.0867,-0.0867 -0.89256,-0.139014 -1.79079,-0.116244 -1.15867,0.02937 -1.69899,0.159064 -1.85979,0.446408 -0.12466,0.222754 -0.36957,0.403185 -0.54424,0.400956 -0.19738,-0.0025 -0.17026,-0.09721 0.0716,-0.250197 0.21407,-0.13538 0.32755,-0.307811 0.25218,-0.38318 -0.16322,-0.163223 -2.41121,-0.203071 -5.60251,-0.09931 -1.2734,0.0414 -2.31495,0.01575 -2.31454,-0.05701 5.2e-4,-0.07276 -0.80319,-0.09458 -1.78576,-0.0485 -1.27717,0.05991 -1.89093,0.210769 -2.15282,0.529167 -0.3413,0.414943 -0.35542,0.413737 -0.20674,-0.01765 0.13783,-0.399907 -0.0286,-0.467292 -1.22118,-0.494353 -0.75941,-0.01723 -1.49982,-0.0046 -1.64534,0.02806 -0.14552,0.03267 -1.20036,0.04185 -2.3441,0.02041 -1.71511,-0.03215 -2.14409,0.04407 -2.44804,0.434962 -0.31043,0.399226 -0.34451,0.404596 -0.21616,0.03406 0.19186,-0.553888 -0.34195,-0.669184 -2.26703,-0.48965 -0.80076,0.07468 -2.05123,0.07404 -2.77884,-0.0014 -0.7276,-0.07545 -1.64137,-0.05657 -2.0306,0.04196 -0.38923,0.09854 -0.77863,0.108217 -0.86533,0.02151 -0.0867,-0.0867 -0.89256,-0.139013 -1.79079,-0.116244 -1.15867,0.02937 -1.69899,0.159065 -1.85979,0.446408 -0.12466,0.222755 -0.36957,0.403185 -0.54424,0.400957 -0.19738,-0.0025 -0.17026,-0.09722 0.0716,-0.250197 0.21407,-0.13538 0.32755,-0.307811 0.25218,-0.38318 -0.16322,-0.163224 -2.41121,-0.203071 -5.60251,-0.09931 -1.273402,0.0414 -2.314947,0.01575 -2.314545,-0.05701 5.29e-4,-0.07276 -0.803188,-0.09458 -1.785758,-0.0485 -1.27717,0.05991 -1.890929,0.210768 -2.152816,0.529166 -0.341297,0.414943 -0.355423,0.413738 -0.206743,-0.01765 0.137832,-0.399907 -0.02863,-0.467292 -1.221174,-0.494353 -0.759418,-0.01723 -1.499822,-0.0046 -1.645343,0.02806 -0.145521,0.03266 -1.200365,0.04185 -2.344098,0.02041 -1.715116,-0.03215 -2.14409,0.04407 -2.448044,0.434962 -0.310433,0.399226 -0.344511,0.404596 -0.216164,0.03406 0.19186,-0.553888 -0.341948,-0.669183 -2.26703,-0.48965 -0.800753,0.07468 -2.051227,0.07404 -2.778831,-0.0014 -0.727604,-0.07546 -1.641377,-0.05657 -2.030606,0.04196 -0.389228,0.09854 -0.778626,0.108217 -0.86533,0.02151 -0.0867,-0.0867 -0.892556,-0.139014 -1.790785,-0.116244 -1.158671,0.02937 -1.69899,0.159065 -1.859793,0.446408 -0.124661,0.222754 -0.369568,0.403185 -0.544238,0.400957 -0.197379,-0.0025 -0.170267,-0.09722 0.07163,-0.250198 0.214067,-0.13538 0.327546,-0.307811 0.252177,-0.38318 -0.163224,-0.163223 -2.411214,-0.203071 -5.602507,-0.09931 -1.273405,0.0414 -2.314951,0.01575 -2.314549,-0.05701 5.3e-4,-0.07276 -0.803187,-0.09458 -1.785757,-0.0485 -1.27717,0.0599 -1.89093,0.210769 -2.152817,0.529167 -0.341297,0.414943 -0.355423,0.413737 -0.206743,-0.01765 0.137832,-0.399907 -0.02863,-0.467291 -1.221173,-0.494353 -0.759418,-0.01723 -1.499823,-0.0046 -1.645344,0.02806 -0.145521,0.03267 -1.200364,0.04185 -2.344097,0.02041 -1.715116,-0.03215 -2.144091,0.04407 -2.448044,0.434962 -0.310433,0.399226 -0.344511,0.404596 -0.216165,0.03406 0.19186,-0.553888 -0.341947,-0.669184 -2.267029,-0.48965 -0.800754,0.07468 -2.051227,0.07404 -2.778832,-0.0014 -0.727604,-0.07545 -1.641377,-0.05657 -2.030605,0.04197 -0.389229,0.09854 -0.778627,0.108218 -0.865331,0.02151 -0.0867,-0.0867 -0.892556,-0.139013 -1.790784,-0.116243 -1.158672,0.02937 -1.69899,0.159064 -1.859794,0.446407 -0.124661,0.222755 -0.369567,0.403185 -0.544237,0.400957 -0.197379,-0.0025 -0.170267,-0.09722 0.07163,-0.250197 0.214066,-0.13538 0.327546,-0.307811 0.252177,-0.38318 -0.163224,-0.163224 -2.411214,-0.203071 -5.602507,-0.09931 -1.273406,0.0414 -2.314951,0.01575 -2.314549,-0.05701 5.29e-4,-0.07276 -0.803188,-0.09458 -1.785758,-0.0485 -1.27717,0.05991 -1.890929,0.210768 -2.152816,0.529167 -0.341297,0.414942 -0.355423,0.413737 -0.206743,-0.01765 0.137832,-0.399907 -0.02863,-0.467292 -1.221174,-0.494353 -0.759418,-0.01723 -1.499822,-0.0046 -1.645343,0.02806 -0.145521,0.03267 -1.200364,0.04185 -2.344097,0.02041 -1.715117,-0.03215 -2.144091,0.04407 -2.448044,0.434962 -0.310433,0.399226 -0.344512,0.404596 -0.216165,0.03406 0.19186,-0.553887 -0.341948,-0.669183 -2.267029,-0.48965 -0.800754,0.07468 -2.051228,0.07404 -2.778832,-0.0014 -0.727604,-0.07546 -1.641377,-0.05657 -2.030606,0.04197 -0.389228,0.09854 -0.778626,0.108217 -0.86533,0.02151 -0.0867,-0.0867 -0.892556,-0.139013 -1.790785,-0.116244 -1.158671,0.02937 -1.69899,0.159065 -1.859793,0.446408 -0.124661,0.222755 -0.369567,0.403185 -0.544237,0.400957 -0.197379,-0.0025 -0.170268,-0.09722 0.07163,-0.250197 0.214067,-0.135381 0.327547,-0.307812 0.252177,-0.383181 -0.163224,-0.163223 -2.4112137,-0.203071 -5.6025068,-0.09931 -1.2734052,0.0414 -2.3149508,0.01575 -2.3145486,-0.05701 5.292e-4,-0.07276 -0.8031877,-0.09458 -1.7857576,-0.0485 -1.27717023,0.05991 -1.89092949,0.210768 -2.1528167,0.529166 -0.3412967,0.414943 -0.3554228,0.413737 -0.2067428,-0.01765 0.137832,-0.399906 -0.028628,-0.467291 -1.2211738,-0.494353 -0.7594177,-0.01723 -1.4998224,-0.0046 -1.6453432,0.02806 -0.1455209,0.03266 -1.2003644,0.04185 -2.3440973,0.02041 -1.7151165,-0.03215 -2.1440907,0.04407 -2.4480441,0.434962 -0.3104343,0.399227 -0.3445118,0.404597 -0.216164,0.03406 0.1918594,-0.553888 -0.3419489,-0.669184 -2.2670301,-0.48965 -0.800745,0.0746 -2.051219,0.07397 -2.778823,-0.0015 -0.727605,-0.07546 -1.641377,-0.05657 -2.030605,0.04196 -0.389229,0.09854 -0.778628,0.108218 -0.865332,0.02151 -0.0867,-0.0867 -0.892556,-0.139013 -1.790784,-0.116243 -1.158672,0.02937 -1.698989,0.159064 -1.859795,0.446407 -0.12466,0.222755 -0.369566,0.403185 -0.544236,0.400957 -0.19738,-0.0025 -0.170268,-0.09721 0.07163,-0.250197 0.214067,-0.13538 0.327547,-0.307811 0.252178,-0.38318 -0.163224,-0.163224 -2.411215,-0.203071 -5.602507,-0.09931 -1.273406,0.0414 -2.315203,0.0059 -2.315104,-0.07894 4.23e-4,-0.37371 -1.199187,-0.02165 -1.275993,0.374479 -0.04705,0.24266 -0.306143,0.4412 -0.57576,0.4412 -0.468985,0 -0.490399,0.458071 -0.494465,10.577176 -0.0039,9.713162 0.129783,11.847304 0.656198,10.475488 0.08698,-0.226669 0.264733,-0.346251 0.395006,-0.265738 0.131006,0.08097 0.236859,-0.700941 0.236859,-1.749619 0,-1.54702 -0.07057,-1.868925 -0.3834,-1.748881 -0.255748,0.09814 -0.33461,0.01998 -0.236859,-0.234756 0.0806,-0.210034 0.251447,-0.317045 0.379665,-0.237802 0.132023,0.0816 0.263431,-3.494656 0.303005,-8.246279 l 0.06988,-8.390358 2.068121,0.06047 c 1.396457,0.04083 2.207793,-0.05272 2.498185,-0.288053 0.314452,-0.254828 0.376649,-0.259611 0.231368,-0.01779 -0.158066,0.263101 3.012804,0.33073 15.5067111,0.33073 12.1979022,0 15.7849829,-0.07386 16.0617212,-0.33073 0.2850541,-0.264583 0.318971,-0.264583 0.1695952,0 -0.2734151,0.484282 31.0586605,0.484282 31.5804055,0 0.285054,-0.264583 0.318971,-0.264583 0.169595,0 -0.273415,0.484282 31.05866,0.484282 31.580405,0 0.285054,-0.264583 0.318971,-0.264583 0.169595,0 -0.273415,0.484282 31.058668,0.484282 31.580408,0 0.28506,-0.264583 0.31897,-0.264583 0.1696,0 -0.27342,0.484282 31.05866,0.484282 31.5804,0 0.28506,-0.264583 0.31897,-0.264583 0.1696,0 -0.14847,0.262966 3.03116,0.33073 15.51868,0.33073 12.1979,0 15.78498,-0.07386 16.06172,-0.33073 0.28506,-0.264583 0.31897,-0.264583 0.1696,0 -0.14847,0.262966 3.03116,0.33073 15.51868,0.33073 12.1979,0 15.78498,-0.07386 16.06172,-0.33073 0.28506,-0.264583 0.31897,-0.264583 0.1696,0 -0.14804,0.262213 2.0332,0.33073 10.5289,0.33073 7.3026,0 10.77116,0.08986 10.88999,0.282128 0.1751,0.283323 0.18152,0.677901 0.0567,3.488478 -0.0372,0.836907 0.0188,1.521517 0.12433,1.521355 0.10554,-1.62e-4 0.0834,0.285119 -0.0493,0.633958 -0.13263,0.34884 -0.18442,0.690973 -0.1151,0.760296 0.0693,0.06932 0.11457,1.182894 0.10054,2.474601 -0.014,1.291707 -0.0215,2.586683 -0.0166,2.877725 0.005,0.291042 2.6e-4,1.362604 -0.0102,2.38125 -0.0105,1.018646 -0.0128,2.030677 -0.005,2.248958 0.0148,0.421354 8e-4,9.645708 -0.0156,10.31875 -0.005,0.218281 0.003,0.932656 0.018,1.5875 0.0152,0.654844 0.017,1.607344 0.004,2.116667 -0.0131,0.509323 -0.01,1.461823 0.007,2.116666 0.0171,0.654844 -5.3e-4,1.875367 -0.0393,2.712273 -0.0387,0.836906 0.0159,1.521515 0.12144,1.521355 0.10554,-1.6e-4 0.0834,0.28512 -0.0493,0.63396 -0.13263,0.34884 -0.18442,0.69098 -0.1151,0.7603 0.0693,0.0693 0.11457,1.18289 0.10054,2.4746 -0.014,1.29171 -0.0215,2.58668 -0.0166,2.87772 0.005,0.29105 2.6e-4,1.36261 -0.0102,2.38125 -0.0105,1.01865 -0.0121,2.03068 -0.004,2.24896 0.0674,1.73702 0.0247,12.00439 -0.0503,12.07936 -0.0526,0.0526 -15.05686,0.0956 -33.34284,0.0956 -24.26794,0 -33.24724,0.0797 -33.24724,0.29491 0,0.20924 -0.0981,0.21347 -0.33784,0.0145 -0.21255,-0.1764 -1.89706,-0.26201 -4.54214,-0.23083 -3.34955,0.0395 -4.22955,0.12535 -4.32847,0.42243 -0.0857,0.25722 0.0111,0.32098 0.31193,0.20555 0.39874,-0.15301 0.40183,-0.1011 0.0361,0.60615 -0.22,0.42543 -0.4,1.38747 -0.4,2.13787 0,1.1088 0.0749,1.33561 0.4,1.21087 0.35693,-0.13697 0.35693,-0.0702 0,0.62001 -0.22,0.42543 -0.4,1.38747 -0.4,2.13787 0,1.1088 0.0749,1.33561 0.4,1.21087 0.35424,-0.13593 0.35593,-0.0683 0.0148,0.59134 -0.51882,1.00328 -0.51066,3.56768 0.0107,3.36761 0.31283,-0.12004 0.30863,-0.0164 -0.0255,0.62981 -0.22,0.42543 -0.4,1.13661 -0.4,1.5804 0,0.68429 0.1005,0.80689 0.66146,0.80689 0.62953,0 0.66146,-0.0741 0.66146,-1.53459 0,-0.84402 -0.14287,-1.67745 -0.3175,-1.85208 -0.23334,-0.23334 -0.23647,-0.3175 -0.0118,-0.3175 0.22093,0 0.30206,-1.38992 0.29256,-5.01201 -0.007,-2.7566 0.0646,-5.13785 0.15969,-5.29166 0.0951,-0.15382 0.71824,-0.27966 1.38483,-0.27966 0.84054,0 1.32249,-0.14191 1.57254,-0.46302 0.34338,-0.44098 0.35287,-0.44098 0.19929,0 -0.14318,0.41115 0.0387,0.46302 1.62383,0.46302 1.38634,0 1.86562,-0.10343 2.14563,-0.46302 0.34338,-0.44098 0.35287,-0.44098 0.19929,0 -0.12669,0.3638 -0.0134,0.46302 0.52852,0.46302 0.43118,0 0.68977,0.14613 0.68977,0.3898 0,0.32242 -0.67462,0.40246 -3.90261,0.46302 l -3.90262,0.0732 v 23.87211 23.87211 l 3.96875,0.0806 c 2.18281,0.0443 18.61343,0.0771 36.5125,0.0727 l 32.54375,-0.008 V 149.73101 Z M -30.599065,76.29775 c 0.09936,-0.260938 0.247304,-0.407782 0.328765,-0.326319 0.08146,0.08146 1.68e-4,0.294955 -0.180653,0.474431 -0.261307,0.259363 -0.291698,0.228971 -0.148112,-0.148112 z m 0,-7.9375 c 0.09936,-0.260938 0.247304,-0.407781 0.328765,-0.326319 0.08146,0.08146 1.68e-4,0.294956 -0.180653,0.474431 -0.261307,0.259363 -0.291698,0.228972 -0.148112,-0.148112 z m 174.941595,82.95828 0.069,-11.17864 h -0.79663 -0.79662 v 11.26236 11.26237 l 0.72761,-0.0837 0.7276,-0.0837 z m -2.0534,-0.0661 v -10.05417 h -9.79788 c -8.24555,0 -9.82086,0.0599 -9.94287,0.37782 -0.0797,0.2078 -0.004,1.30913 0.16815,2.4474 1.29274,8.54391 7.82103,15.32352 16.26531,16.89146 1.01865,0.18914 2.17951,0.35464 2.57969,0.36778 l 0.7276,0.0239 z m 77.52292,2.28144 c 0,-5.77834 -0.005,-5.83323 -0.51244,-5.3168 -0.38023,0.38718 -0.52235,0.93142 -0.55084,2.10932 -0.0211,0.87312 -0.022,1.70656 -0.002,1.85208 0.0462,0.33672 0.0145,5.15977 -0.0374,5.68854 -0.0214,0.21828 -0.0202,0.86181 0.003,1.43007 0.041,1.01575 0.0506,1.02511 0.57084,0.55431 0.49872,-0.45133 0.52917,-0.81491 0.52917,-6.31752 z m -0.48385,-5.62974 c 0.45217,-0.40921 0.48385,-1.08005 0.48385,-10.24525 v -9.80738 l -0.55832,0.55832 c -0.40394,0.40394 -0.55426,0.87744 -0.54365,1.71244 0.016,1.26027 0.0236,2.58633 0.0257,4.52756 7.9e-4,0.69123 0.003,1.55443 0.004,1.91823 0.002,0.36381 -0.001,0.86982 -0.006,1.12448 -0.005,0.25466 -7.9e-4,1.87509 0.01,3.60096 0.0173,2.93678 0.0479,3.11515 0.47752,2.78268 0.4315,-0.33394 0.43264,-0.32379 0.0192,0.16936 -0.2883,0.34383 -0.47065,1.14023 -0.52917,2.3111 -0.0491,0.98257 -0.0391,1.78624 0.0222,1.78594 0.0613,-2.7e-4 0.3292,-0.1976 0.59532,-0.43844 z M -30.126894,115.71414 c 0.09475,0.0948 0.172276,-0.69374 0.172276,-1.75221 0,-1.5719 -0.07024,-1.89753 -0.3834,-1.77737 -0.255748,0.0981 -0.33461,0.02 -0.236859,-0.23475 0.0806,-0.21003 0.253127,-0.31601 0.3834,-0.23549 0.13742,0.0849 0.236859,-3.19906 0.236859,-7.82235 0,-6.298178 -0.06933,-7.929583 -0.330729,-7.782004 -0.264583,0.149376 -0.264583,0.115459 0,-0.169595 0.232825,-0.250836 0.330729,-1.485927 0.330729,-4.172252 0,-3.594436 -0.02688,-3.795125 -0.463021,-3.457374 -0.440972,0.341493 -0.440972,0.332595 0,-0.186872 0.332031,-0.391134 0.463021,-1.00737 0.463021,-2.178254 0,-1.712106 -0.16993,-1.939139 -0.871318,-1.164114 -0.37902,0.418812 -0.42362,2.100316 -0.419037,15.798465 0.0028,8.43137 0.07435,15.44178 0.158962,15.57868 0.08461,0.13689 0.29626,0.0541 0.470337,-0.18394 0.174077,-0.23807 0.394028,-0.35532 0.48878,-0.26057 z m -0.472171,-7.66639 c 0.09936,-0.26094 0.247304,-0.40778 0.328765,-0.32632 0.08146,0.0815 1.68e-4,0.29495 -0.180653,0.47443 -0.261307,0.25936 -0.291698,0.22897 -0.148112,-0.14811 z m 0,-7.9375 c 0.09936,-0.260939 0.247304,-0.407782 0.328765,-0.32632 0.08146,0.08146 1.68e-4,0.29496 -0.180653,0.47443 -0.261307,0.25936 -0.291698,0.22897 -0.148112,-0.14811 z"
       id="path4110"
       inkscape:connector-curvature="0" />
  </g>
</svg>
