<?xml version="1.0" encoding="UTF-8" standalone="no"?>
<!-- Created with Inkscape (http://www.inkscape.org/) -->

<svg
   xmlns:dc="http://purl.org/dc/elements/1.1/"
   xmlns:cc="http://creativecommons.org/ns#"
   xmlns:rdf="http://www.w3.org/1999/02/22-rdf-syntax-ns#"
   xmlns:svg="http://www.w3.org/2000/svg"
   xmlns="http://www.w3.org/2000/svg"
   xmlns:sodipodi="http://sodipodi.sourceforge.net/DTD/sodipodi-0.dtd"
   xmlns:inkscape="http://www.inkscape.org/namespaces/inkscape"
   width="152.72591mm"
   height="125.7752mm"
   viewBox="0 0 152.7259 125.7752"
   version="1.1"
   id="svg8"
   inkscape:version="0.92.4 (5da689c313, 2019-01-14)"
   sodipodi:docname="unten.svg">
  <defs
     id="defs2" />
  <sodipodi:namedview
     id="base"
     pagecolor="#ffffff"
     bordercolor="#666666"
     borderopacity="1.0"
     inkscape:pageopacity="0.0"
     inkscape:pageshadow="2"
     inkscape:zoom="1.4"
     inkscape:cx="233.04737"
     inkscape:cy="167.9544"
     inkscape:document-units="mm"
     inkscape:current-layer="layer1"
     showgrid="false"
     inkscape:window-width="1920"
     inkscape:window-height="1178"
     inkscape:window-x="-8"
     inkscape:window-y="1192"
     inkscape:window-maximized="1" />
  <metadata
     id="metadata5">
    <rdf:RDF>
      <cc:Work
         rdf:about="">
        <dc:format>image/svg+xml</dc:format>
        <dc:type
           rdf:resource="http://purl.org/dc/dcmitype/StillImage" />
        <dc:title></dc:title>
      </cc:Work>
    </rdf:RDF>
  </metadata>
  <g
     inkscape:label="Ebene 1"
     inkscape:groupmode="layer"
     id="layer1"
     transform="translate(49.386716,102.38823)">
    <path
       id="path3724"
       transform="matrix(0.26458333,0,0,0.26458333,-49.386716,-102.38823)"
       style="fill:#000000;stroke-width:0.99999994"
       d="m 576.73047,0 -18.75,0.01171875 c -10.31248,0.0068032 -36.74998,0.11922835 -58.75,0.25 l -40,0.23632813 V 126.49805 c 0,92.49668 -0.29907,126 -1.12305,126 -0.79941,0 -0.78175,0.41226 0.0645,1.43164 0.81356,0.98044 1.14533,6.09766 1.05273,16.25 -0.0729,8.15036 -0.10325,23.70584 -0.0644,34.56836 l 0.0684,19.74804 h 59 c 32.44996,0 59.00262,-0.3375 59.0039,-0.75 0.001,-0.41344 -3.3737,-0.60096 -7.5,-0.41992 -4.90435,0.21509 -7.5039,-0.0446 -7.5039,-0.75 0,-0.65208 2.37379,-1.08008 6,-1.08008 3.30001,0 6.00187,-0.3375 6.00195,-0.75 1.1e-4,-0.41253 -24.89324,-0.62906 -55.31836,-0.48242 L 463.59375,320.5293 463.35156,162.51367 463.10938,4.4960938 h 4.06054 4.06055 v 17.3515622 17.34961 l 4.95117,-0.78125 c 9.21162,-1.456177 17.9127,-6.501459 23.14844,-13.419922 1.24868,-1.649991 0.0506,-0.788413 -2.66406,1.914062 -5.51464,5.489953 -13.51485,9.615475 -20.08008,10.355469 l -4.35547,0.492187 V 21.125 4.4941406 l 50.56055,0.023437 50.55859,0.023437 -0.125,16.2285154 c -0.15961,20.581159 -0.21342,19.617172 1.00586,17.73047 0.53318,-0.825033 0.97681,-4.31252 0.98437,-7.75 0.009,-3.489789 0.45724,-6.25 1.01563,-6.25 0.55,0 1,-0.476131 1,-1.058594 0,-0.582349 -0.45,-0.781186 -1,-0.441406 -0.6387,0.394658 -1,-2.656688 -1,-8.441406 0,-5.7488516 0.38964,-9.058594 1.06641,-9.058594 0.5863,0 0.9238,-1.2375087 0.75,-2.75 z m -116.5,1.4980469 h 5.05859 c 3.11804,0 4.82235,0.3836724 4.44141,1 -0.33989,0.5499968 -2.28053,1 -4.31055,1 h -3.68945 l 0.2207,123.0000031 c 0.14196,79.03434 -0.12611,123 -0.75,123 -0.6229,0 -0.9707,-44.47069 -0.9707,-124 z m 29,0 c 11.33333,0 18,0.3703685 18,1 0,0.6295937 -6.66667,1 -18,1 -11.33333,0 -18,-0.3703685 -18,-1 0,-0.6296315 6.66667,-1 18,-1 z m 34.55859,0 c 10.11802,0 15.34332,0.3496945 14.94141,1 -0.36737,0.5944441 -6.67858,1 -15.56055,1 -9.29401,0 -14.93945,-0.3779654 -14.93945,-1 0,-0.6239622 5.85258,-1 15.55859,-1 z m 34.44141,0 c 11.33334,0 18,0.3703685 18,1 0,0.6295937 -6.66666,1 -18,1 -11.33333,0 -18,-0.3703685 -18,-1 0,-0.6296315 6.66667,-1 18,-1 z M 505.59375,8.84375 c -0.15157,-0.022949 -0.25516,0.3441869 -0.28516,1.0722656 -0.0434,1.0539964 0.19317,1.6447204 0.52539,1.3125004 0.33222,-0.332296 0.36704,-1.196079 0.0781,-1.9179691 -0.11969,-0.2991544 -0.22742,-0.4530274 -0.31836,-0.4667969 z m -1,4 c -0.15157,-0.02295 -0.25516,0.344163 -0.28516,1.072266 -0.0434,1.053959 0.19317,1.64472 0.52539,1.3125 0.33222,-0.332296 0.36704,-1.196079 0.0781,-1.917969 -0.11969,-0.29914 -0.22742,-0.453028 -0.31836,-0.466797 z m 41.71094,7.943359 c -0.0488,-0.01138 -0.0742,0.0064 -0.0742,0.05469 0,0.386268 1.88831,2.75094 4.19726,5.255859 4.16255,4.515818 7.52002,6.804965 13.30274,9.072266 1.65,0.646942 4.12501,1.179941 5.5,1.1875 1.37503,0.0056 0.14541,-0.623899 -2.73047,-1.398438 -6.69106,-1.802116 -12.03242,-5.195172 -16.625,-10.560546 -1.75471,-2.049997 -3.22884,-3.531685 -3.57031,-3.611329 z M 363.23047,38.5 l -2.75,0.134766 c -2.40257,0.118979 -2.46286,0.192146 -0.4707,0.574218 2.24375,0.430337 2.2759,0.631877 2,12.613282 l -0.2793,12.175781 -12.11914,0.28125 -12.11914,0.279297 -0.80664,-3.279297 -0.80664,-3.28125 -0.38868,3.25 -0.38671,3.25 h -11.9375 -11.93555 V 52.072266 c 0,-10.994041 0.20175,-12.480168 1.75,-12.884766 1.3169,-0.344277 1.19319,-0.484959 -0.5,-0.572266 -2.22354,-0.11467 -2.25,0.03363 -2.25,12.882813 v 13 H 198.9707 87.712891 l -21.236329,21.253906 -21.234374,21.251957 -0.02148,86.74804 -0.02344,86.7461 h -2.78711 c -4.339615,0 -12.811453,-4.74743 -16.27539,-9.1211 -1.727055,-2.18052 -3.729988,-5.85816 -4.453125,-8.17187 -0.723175,-2.31394 -1.345018,-3.40401 -1.382813,-2.42383 -0.109304,2.91197 2.458129,8.10666 6,12.14063 3.379011,3.84845 13.697244,9.57617 17.25,9.57617 1.926274,0 1.948398,0.7198 1.337891,40.25 -0.341859,22.13748 -0.62916,49.58752 -0.636719,61 l -0.01953,20.75 h -16 -16 l 0.148437,3.25 c 0.139465,3.02494 0.180618,3.05953 0.56836,0.5 l 0.416015,-2.75 h 15.47461 15.476562 l -0.08594,16.25 c -0.04611,8.93748 -0.06565,24.66032 -0.04297,34.9375 l 0.04297,18.68554 206.000004,-0.10742 206,-0.10742 v -29.82813 c 0,-16.4054 -0.33751,-29.82808 -0.75,-29.82812 -0.41265,-8e-5 -0.69707,13.04799 -0.63282,28.99805 L 454.96289,473.5 H 421.5957 c -21.26551,0 -33.36718,-0.35783 -33.36718,-0.98633 0,-0.62207 11.90673,-1.09025 32.25,-1.26562 l 32.25,-0.27735 -32.75,-0.23632 -32.75,-0.23438 v -12.80078 c 0,-8.6222 0.39284,-13.19167 1.20117,-14 0.93339,-0.93317 0.90916,-1.19922 -0.10742,-1.19922 -0.71876,0 -1.09358,-0.5625 -0.83204,-1.25 0.6991,-1.83753 -0.99263,-5.75523 -2.47851,-5.73633 -0.88199,0.0106 -0.93731,0.24453 -0.17774,0.75 0.71819,0.47792 1.17235,6.58988 1.30274,17.48633 l 0.20117,16.75 H 369.2832 c -16.97869,0 -17.05376,-0.01 -17.18945,-2.25 l -0.13672,-2.25 -0.43359,2.25 c -0.41288,2.14379 -0.87863,2.25 -9.86328,2.25 h -9.42969 v -18.46875 c 0,-16.00569 -0.20003,-18.39335 -1.5,-17.89453 -1.29517,0.49697 -1.5,-1.62478 -1.5,-15.53125 V 402.5 h -7.5 c -4.33334,0 -7.5,-0.42222 -7.5,-1 0,-0.57778 3.16666,-1 7.5,-1 h 7.5 V 388 c 0,-7.66666 0.38669,-12.5 1,-12.5 0.61085,0 1.09075,5.73991 1.23437,14.75 0.12919,8.11249 0.46654,-5.94999 0.75,-31.25 l 0.51563,-46 58.88672,-0.25977 c 46.14523,-0.2022 59.21728,0.0142 60.41211,1 1.25646,1.03665 1.43786,0.99575 1.02929,-0.24023 -0.43226,-1.3076 -8.27703,-1.53331 -61.16211,-1.75781 l -60.66601,-0.25781 v 13.00781 c 0,8.00519 -0.38458,13.00781 -1,13.00781 -0.6189,0 -1,-5.32035 -1,-13.95898 v -13.95704 l 7.75,-0.34179 7.75,-0.33985 -8.25,-0.20312 -8.25,-0.20117 v 15.47656 15.47461 l -16.16797,0.27539 c -13.31637,0.22632 -16.25644,0.53798 -16.66406,1.77344 -0.4108,1.24509 -0.23023,1.28296 1.05468,0.22265 1.13863,-0.93951 5.47938,-1.20409 16.41211,-1 l 14.86524,0.27735 0.27539,15.75 0.27539,15.75 h -2.98828 c -9.20678,0 -21.07303,-8.53119 -25.70703,-18.48243 -1.285,-2.75942 -2.33571,-4.34257 -2.33594,-3.51757 -6.8e-4,2.6516 5.70786,11.55396 9.60156,14.97265 4.42001,3.88086 10.70166,6.8462 16.64844,7.85938 l 4.23047,0.7207 0.2793,12.72461 0.27929,12.72266 h -45.52929 -45.5293 v -84.5 -84.5 h 47 c 44.05103,0 47.00638,0.10976 47.11523,1.75 0.10659,1.60845 0.1523,1.61277 0.56446,0.0469 0.34764,-1.32091 1.83971,-1.78262 6.63476,-2.05664 3.40203,-0.19434 -18.33947,-0.44067 -48.31445,-0.54687 l -54.5,-0.19336 0.19726,57 c 0.12231,35.3529 -0.16254,57.00195 -0.75,57.00195 -0.52093,0 -0.94726,-1.12501 -0.94726,-2.5 v -2.5 h -93 -93.000001 v 32 c 0,20.66665 -0.354155,32 -1,32 -0.652649,0 -1,-16.33333 -1,-47 0,-30.66667 0.34754,-47 1,-47 0.619049,0 1,5.33332 1,14 v 14 h 93.000001 93 V 282 227.5 h 108.5 c 95.77776,0 108.49805,0.17588 108.49805,1.5 0,0.82503 0.33945,1.5 0.75195,1.5 0.51779,0 0.74831,-141.014913 0.26562,-162.25 -0.009,-0.41246 -19.81561,-0.75 -44.01562,-0.75 -28.36774,0 -44,-0.352023 -44,-0.990234 0,-0.634848 16.4096,-1.088239 45.75,-1.261719 l 45.75,-0.269531 -46.25,-0.240235 L 363.23047,64.5 V 51.498047 Z m -6.93555,1.068359 c -2.42388,-0.119055 -9.59907,3.800498 -12.14844,6.634766 -2.14427,2.383899 -1.94724,2.323086 1.76172,-0.537109 2.29841,-1.77241 5.89843,-3.854015 8,-4.625 2.10146,-0.770986 3.17558,-1.433727 2.38672,-1.472657 z m -36.17969,1.097657 c -0.23192,-0.0196 -0.40505,0.02029 -0.50976,0.125 -0.24155,0.241549 0.86548,0.979774 2.46094,1.640625 1.59541,0.66085 4.39843,2.746551 6.22851,4.634765 1.83012,1.888177 3.55298,3.431641 3.82813,3.431641 0.275,0 -1.05187,-1.612054 -2.94727,-3.583985 -2.99996,-3.121091 -7.43708,-6.110884 -9.06055,-6.248046 z m 12.48438,10.9375 c -0.22707,-0.08041 -0.14385,0.296759 0.19531,1.1875 0.37554,0.986154 0.93416,1.542406 1.24219,1.234375 0.30788,-0.307881 -1.4e-4,-1.114657 -0.68359,-1.792969 -0.37035,-0.367597 -0.61767,-0.58066 -0.75391,-0.628906 z m 4.99414,5.240234 c -0.15158,-0.02295 -0.25516,0.344187 -0.28516,1.072266 -0.0434,1.053996 0.19317,1.64472 0.52539,1.3125 0.33222,-0.332296 0.36704,-1.196079 0.0781,-1.917969 -0.11971,-0.299154 -0.22741,-0.453027 -0.31836,-0.466797 z m -334.3632812,0.306641 0.099609,3.923828 c 0.07782,3.063609 0.2434188,3.411108 0.7578125,1.580078 l 0.6582032,-2.345703 1.8964843,2.095703 c 2.7324095,3.019313 3.6057552,2.599271 3.4511722,-1.65625 -0.08432,-2.321348 -0.3019663,-2.892832 -0.5703128,-1.5 -0.5386205,2.796435 -1.0714547,2.807193 -3.9785156,0.07617 z M 87.646484,65.498047 H 198.49805 c 73.64587,0 110.64303,0.335635 110.23242,1 -0.40592,0.656806 -38.24809,1 -110.27149,1 H 88.804688 l -4.097657,4.023437 c -5.480617,5.378873 -6.683985,3.782165 -1.291015,-1.71289 z m 249.083986,0 c 17.00001,0 26.5,0.358501 26.5,1 0,0.64131 -9.49999,1 -26.5,1 -16.99998,0 -26.5,-0.358501 -26.5,-1 0,-0.64131 9.50002,-1 26.5,-1 z M 6.5253906,66.244141 c -0.021592,-0.02319 -0.038285,-0.01795 -0.050781,0.01953 C 6.27471,66.863408 4.6670427,76.161194 2.902344,86.92578 c -1.7646993,10.764586 -3.06397864,19.57227 -2.8867188,19.57227 0.17714646,0 1.7537704,-1.33689 3.5019531,-2.97071 l 3.1777344,-2.9707 3.3906253,3.2207 3.392578,3.22071 -0.576172,-3.5 C 12.585582,101.57306 11.091121,92.162764 9.5820312,82.585938 8.1672601,73.607623 6.8492749,66.591977 6.5253906,66.244141 Z M 89.654297,68.498047 H 270.44141 451.23047 v 79.000003 79 H 342.6582 c -92.76192,0 -108.77944,0.20912 -110,1.42968 -1.20219,1.2022 -1.42773,9.83812 -1.42773,54.5 v 53.07032 h -90.5 -90.500001 v -113.8125 -113.8125 l 2.75,-2.61914 2.75,-2.6211 11.796875,11.51172 11.796875,11.50977 2.914062,-3.66602 c 8.941947,-11.25195 9.151626,-28.752169 0.484375,-40.499999 l -2.511718,-3.402343 4.722656,-4.792969 z M 6.3671875,72.837891 c 0.4215977,0.291647 4.7323125,24.925008 4.8007815,27.566409 0.05877,2.26722 -0.04359,2.31022 -1.7675784,0.75 -1.0058078,-0.91023 -2.2143159,-1.656253 -2.6855468,-1.656253 -0.4712693,0 -1.9039592,0.983393 -3.1835938,2.185543 l -2.3261719,2.1875 0.515625,-2.9375 c 0.7204158,-4.097967 4.4849041,-26.964452 4.6171875,-28.046871 0.00523,-0.04281 0.015697,-0.05824 0.029297,-0.04883 z m 72.5292965,2.99414 c 0.404296,0.404296 -4.861436,6.344996 -11.701172,13.201172 -11.62688,11.654667 -13.964843,13.614847 -13.964843,11.701177 0,-1.447098 24.93154,-25.636824 25.666015,-24.902349 z m 0.431641,3.166016 2.361328,2.701172 c 3.569688,4.083741 6.541016,13.038199 6.541016,19.710941 0,6.68076 -1.935398,12.92987 -5.677735,18.33789 -1.427263,2.06249 -2.879601,3.75 -3.226562,3.75 -0.347074,0 -5.567169,-4.95272 -11.601563,-11.00586 L 56.751953,101.48633 68.041016,90.242188 Z M 52.136719,102.125 c 0.21596,-0.0287 0.373566,0.0177 0.453125,0.14648 0.318387,0.51515 -0.532565,1.98005 -1.890625,3.25586 l -2.46875,2.32032 v 73.32422 c 0,48.21708 -0.342438,73.32617 -1,73.32617 -0.657562,0 -1,-25.27056 -1,-73.8125 v -73.8125 l 2.890625,-2.76953 c 1.192223,-1.1422 2.367743,-1.89252 3.015625,-1.97852 z m 216.140621,97.55469 c -0.0562,0.003 -0.11189,0.006 -0.16796,0.01 0.046,0.0155 0.0923,0.0304 0.13867,0.0449 0.01,-0.0184 0.0192,-0.0356 0.0293,-0.0547 z m -29.375,2.22851 c -0.20668,0.0134 -0.41443,0.025 -0.625,0.0234 0.0583,0.16513 0.10328,0.34842 0.14063,0.54102 0.021,0.007 0.041,0.0254 0.0625,0.0254 0.15969,0 0.29989,-0.2461 0.42187,-0.58985 z m 217.35938,35.32422 -3.76758,0.6211 c -2.07133,0.34242 -8.82812,0.6272 -15.01562,0.63476 l -11.25,0.01 v 3.43554 c 0,9.05575 8.57113,19.97532 17.63281,22.46289 2.84492,0.78101 2.82728,0.80336 -2.39063,3.07032 -8.33881,3.62279 -15.16823,13.05818 -15.22265,21.03125 l -0.0215,3.5 11.90821,-0.30664 c 9.39898,-0.24257 12.18899,-0.003 13.25,1.13867 h 0.002 c 0.80008,0.86123 1.58857,1.05333 1.95312,0.47265 0.3365,-0.53616 1.01154,-0.82506 1.5,-0.64062 0.50049,0.18901 1.00425,-11.83508 1.1543,-27.54688 z m -2.03125,1.26563 c 0.64172,0 1,9.49998 1,26.5 0,16.99997 -0.35846,26.5 -1,26.5 -0.64169,0 -1,-9.50003 -1,-26.5 0,-17.00002 0.3585,-26.5 1,-26.5 z m -27,0.9375 11.75,0.28125 11.75,0.28125 0.29297,7.25 c 0.18467,4.5572 -0.0939,7.25 -0.75,7.25 -0.57411,0 -1.04297,0.47808 -1.04297,1.06054 0,0.58235 0.45,0.77924 1,0.43946 0.61081,-0.3775 1,1.15669 1,3.9414 0,3.70798 -0.32667,4.54453 -1.75,4.47461 -5.22879,-0.25682 -12.14861,-3.82085 -15.78516,-8.1289 -3.52596,-4.17702 -6.4169,-10.48446 -6.44336,-14.06836 z m -194.38672,11.04687 c 0.0402,-0.29266 0.086,1.72619 0.13477,6.33594 0.15579,14.75119 0.15609,38.60121 0,53 -0.1561,14.39879 -0.28336,2.32967 -0.28321,-26.82031 2.6e-4,-20.04064 0.0601,-31.87178 0.14844,-32.51563 z m 229.38672,0.0156 c 0.62959,0 1,6.66667 1,18 0,11.33333 -0.37037,18 -1,18 -0.62959,0 -1,-6.66667 -1,-18 0,-11.33333 0.37037,-18 1,-18 z m -442.031251,5 c -0.532725,0 -0.96875,0.67496 -0.96875,1.5 0,0.82499 0.176389,1.5 0.392578,1.5 0.216151,0 0.652025,-0.67501 0.96875,-1.5 0.316611,-0.82504 0.140146,-1.5 -0.392578,-1.5 z m 27.03125,0 c 0.64097,0 1,9.33334 1,26 0,16.66669 -0.358955,26 -1,26 -0.640933,0 -1,-9.33331 -1,-26 0,-16.66666 0.358992,-26 1,-26 z m 401.675781,11.00781 c 2.32044,-0.0618 2.32422,1.95845 2.32422,8.41016 0,5.75557 -0.39519,8.6011 -1.25,9 -0.99999,0.46665 -0.99999,0.69935 0,1.16601 0.68749,0.32085 1.25,1.67085 1.25,3 v 2.41602 h -12.11133 -12.11133 l 0.69336,-3.70313 c 1.61284,-8.59721 8.65381,-16.81791 16.38672,-19.13476 2.22938,-0.66783 3.76362,-1.12622 4.81836,-1.1543 z M 35.441406,283.57227 c -0.388639,-0.0114 -0.969753,0.29014 -1.478515,0.80273 -0.980259,0.98759 -0.864676,1.10126 0.560547,0.55859 0.986149,-0.37553 1.540453,-0.93415 1.232421,-1.24218 -0.07698,-0.077 -0.184906,-0.11533 -0.314453,-0.11914 z m -4.201172,2.52734 c -0.02401,-0.0142 -0.06575,-0.0121 -0.126953,0.006 -0.163206,0.0467 -0.458397,0.20638 -0.884765,0.47656 -2.681802,1.69947 -9.028023,10.40133 -8.955078,12.2793 0.0243,0.62536 0.930345,-0.54192 2.013671,-2.59375 1.083364,-2.05183 3.65083,-5.42686 5.705079,-7.5 1.672794,-1.68821 2.416134,-2.5684 2.248046,-2.66797 z m 430.041016,1.39844 c 0.68171,0 1.01448,4.13123 0.94531,11.75 -0.0593,6.4625 -0.083,14.11248 -0.0527,17 l 0.0566,5.25 h 7.05859 c 4.45134,0 6.83115,0.36942 6.44141,1 -0.33993,0.54999 -3.9661,1 -8.05859,1 h -7.44141 v -18 c 0,-11.92222 0.35425,-18 1.05078,-18 z m -440.6875,13.3457 c -0.15157,-0.0229 -0.255156,0.34416 -0.285156,1.07227 -0.04343,1.05395 0.19317,1.64472 0.52539,1.3125 0.332221,-0.3323 0.366856,-1.19608 0.07813,-1.91797 -0.119693,-0.29914 -0.227417,-0.45303 -0.318359,-0.4668 z m -1.041016,4.85937 c -0.206135,-0.0261 -0.322265,0.11639 -0.322265,0.42969 0,0.56833 0.299401,1.33261 0.666015,1.69922 0.366652,0.36662 0.899374,0.43461 1.183594,0.15039 0.284145,-0.28418 -0.01518,-1.05034 -0.666016,-1.70117 -0.358785,-0.35881 -0.655192,-0.55199 -0.861328,-0.57813 z m 246.080076,9.13086 c -0.13096,0.18704 -0.18936,0.26847 -0.19336,0.28907 0.005,-0.002 0.01,-0.002 0.0137,-0.004 l 0.002,-0.002 c 0.0598,-0.094 0.11663,-0.19011 0.17773,-0.28321 z m -0.55859,0.88282 c -0.0147,0.001 -0.0295,0.003 -0.043,0.004 0.004,0.0149 0.008,0.0265 0.0117,0.041 0.01,-0.0154 0.0215,-0.0295 0.0312,-0.0449 z m 13.52148,0.29297 c 0.0894,0.28373 0.17528,0.48828 0.24414,0.48828 0.0614,0 0.11811,-0.15424 0.16993,-0.38282 -0.14046,-0.0248 -0.27826,-0.0612 -0.41407,-0.10546 z m 240.63477,5.48828 c 27.33332,0 42,0.3492 42,1 0,0.65079 -14.66668,1 -42,1 -27.33332,0 -42,-0.34921 -42,-1 0,-0.65076 14.66668,-1 42,-1 z m -66.63672,3.3457 c -0.15158,-0.0229 -0.25516,0.34416 -0.28516,1.07227 -0.0434,1.05395 0.19317,1.64472 0.52539,1.3125 0.33222,-0.3323 0.36704,-1.19608 0.0781,-1.91797 -0.11971,-0.29914 -0.22741,-0.45303 -0.31836,-0.4668 z m 0.30469,7.16016 c -0.21448,0.0216 -0.52588,0.21649 -0.91797,0.58203 -0.92897,0.86725 -1.17625,5.60907 -0.95703,18.53906 l 0.29492,17.37305 -3.29297,0.15039 -3.29492,0.15039 3,0.43555 c 1.64999,0.24025 3.33492,1.03168 3.74609,1.75781 0.41447,0.73198 1.64007,1.08714 2.75,0.79687 1.91392,-0.50052 2.00391,-1.35651 2.00391,-19.40625 0,-16.11855 -0.21961,-18.88476 -1.5,-18.88476 -0.825,0 -1.5,-0.46737 -1.5,-1.03907 0,-0.32607 -0.11755,-0.47667 -0.33203,-0.45507 z m 1.33203,2.49414 c 0.62963,0 1,6.66667 1,18 0,11.33333 -0.37037,18 -1,18 -0.62959,0 -1,-6.66667 -1,-18 0,-11.33333 0.37037,-18 1,-18 z m -36.48242,1.17968 c -0.0194,-0.0142 -0.0387,-0.0124 -0.0566,0.006 -0.11932,0.11885 -0.2019,0.93946 -0.20899,2.31446 -0.0111,2.20006 0.18534,3.21782 0.43555,2.26172 0.24907,-0.95607 0.25892,-2.75609 0.0195,-4 -0.0673,-0.34986 -0.1312,-0.53934 -0.18945,-0.58204 z m -87.51758,2.82032 c 0.62963,0 1,6.66667 1,18 0,11.33333 -0.37037,18 -1,18 -0.62959,0 -1,-6.66667 -1,-18 0,-11.33333 0.37037,-18 1,-18 z m -99,1.99023 v 2.50586 2.50391 h -16.12891 -16.1289 l 0.69531,5.25 c 0.94662,7.15408 3.58603,12.73719 8.59375,18.16992 5.48326,5.94863 9.35263,8.25986 16.56836,9.89844 l 5.90039,1.33984 0.25976,45.17187 0.25977,45.16993 h -14.50977 -14.50976 v -17.63867 -17.64063 l -5.61719,0.58008 c -14.81182,1.5287 -27.33885,13.44598 -30.63086,29.14062 l -1.16406,5.5586 H 107.11523 49.412109 l 0.160157,-64.75 0.158203,-64.75 90.750001,-0.25391 z m 187.12109,2.81641 c -0.0291,0.0265 -0.045,0.0902 -0.0469,0.19336 -0.11962,5.95185 10.40025,18.87762 18.42578,22.63867 2.75002,1.28874 5.67497,2.33568 6.5,2.32812 0.82499,-0.008 -1.19998,-1.11087 -4.5,-2.45117 -7.54235,-3.06327 -15.43907,-11.1116 -18.36133,-18.71679 -0.97956,-2.54944 -1.81394,-4.17795 -2.01758,-3.99219 z m -37.78125,0.68359 c -0.14416,0.0281 -0.19133,0.21333 -0.14648,0.54102 0.1002,-0.20519 0.1851,-0.37692 0.25976,-0.53125 -0.0413,-0.009 -0.081,-0.0158 -0.11328,-0.01 z m 0.25977,0.0684 c 0.0782,-0.13297 -0.17595,0.25403 -0.38672,0.56641 0.001,0.007 0.005,0.0163 0.006,0.0234 0.12644,-0.19691 0.25994,-0.38941 0.38086,-0.58984 z m -84.17188,0.23828 c -0.12965,0.0698 -0.22061,0.67188 -0.23242,1.70313 h -0.002 c -0.0204,1.64999 0.18692,2.44655 0.46094,1.76953 0.27477,-0.67703 0.29071,-2.02704 0.0371,-3 -0.0951,-0.36486 -0.18588,-0.51452 -0.26368,-0.47266 z m -61.42773,0.20313 c 0.62959,0 1,6.66667 1,18 0,11.33333 -0.37037,18 -1,18 -0.62963,0 -1,-6.66667 -1,-18 0,-11.33333 0.37037,-18 1,-18 z m -34.26172,3 h 15.13086 15.13086 v 15.5 c 0,8.52499 -0.11243,15.45109 -0.25,15.39062 -0.1375,-0.0602 -2.12032,-0.47938 -4.40625,-0.93164 -12.19268,-2.41224 -22.98527,-13.8018 -25.0332,-26.42187 z m 34.26172,34 c 0.59834,0 0.99861,3.91603 0.99805,9.75 v 9.75 l 21.6621,-0.28711 c 14.03044,-0.18701 22.02838,0.0772 22.70118,0.75 0.71837,0.71826 -5.96396,1.03711 -21.66211,1.03711 h -22.69922 l -0.0391,3 c -0.0227,1.64999 -0.0371,13.35 -0.0371,26 0,12.65 0.0182,26.82499 0.0371,31.5 l 0.0391,8.5 h 23.5 c 15,0 23.5,0.36171 23.5,1 v 0.002 c 0,0.65004 -14.16667,1 -40.5,1 -27.46723,0 -40.5,-0.33698 -40.5,-1.04492 0,-0.57423 0.5625,-0.97006 1.25,-0.88086 0.68749,0.0892 7.88751,0.10783 16,0.043 l 14.75,-0.11914 v -45 c 0,-29.33333 0.34814,-45 1,-45 z m 217.36328,7.3457 c -0.15158,-0.0229 -0.25516,0.34419 -0.28516,1.07227 -0.0434,1.05437 0.19317,1.64472 0.52539,1.3125 0.33222,-0.3323 0.36704,-1.19612 0.0781,-1.91797 -0.11971,-0.29916 -0.22741,-0.45303 -0.31836,-0.4668 z m -295.62305,10.6543 c -0.215,0 -0.40843,0.0559 -0.58203,0.15429 0.41717,0.002 0.83389,-0.007 1.25195,0.006 -0.17351,-0.10323 -0.39315,-0.16015 -0.66992,-0.16015 z m 140.75977,1 c 9.66667,0 15.5,0.37634 15.5,1 0,0.62354 -5.83333,1 -15.5,1 -9.66663,0 -15.5,-0.37634 -15.5,-1 0,-0.62359 5.83337,-1 15.5,-1 z m 154.86328,1.3457 c -0.15158,-0.0229 -0.25516,0.34419 -0.28516,1.07227 -0.0434,1.05399 0.19317,1.64472 0.52539,1.3125 0.33222,-0.3323 0.36704,-1.19608 0.0781,-1.91797 -0.11971,-0.29914 -0.22741,-0.45303 -0.31836,-0.4668 z m -215.36328,1.62695 45.25,0.26368 45.25,0.26367 0.28711,14 c 0.3312,16.12595 -0.0291,18.5 -2.80664,18.5 -1.08953,0 -1.98047,-0.49264 -1.98047,-1.09571 0,-0.73451 -1.73387,-0.89327 -5.25,-0.48046 -2.88752,0.33897 -9.46697,0.87789 -14.61914,1.19726 l -9.36719,0.58008 0.47656,4.94726 c 0.35486,3.69287 0.0393,5.50284 -1.24218,7.14844 -2.00784,2.57836 -5.00863,8.25139 -4.97461,9.4043 0.0128,0.43982 1.25036,-1.42028 2.75,-4.13281 1.49964,-2.71257 3.17656,-5.06814 3.72656,-5.23633 0.55003,-0.16808 1.84427,1.45785 2.87695,3.61328 1.03264,2.15543 3.73266,5.81013 6,8.12305 4.00381,4.08427 12.58427,8.95689 15.62305,8.87109 0.82499,-0.0233 -0.81563,-0.93359 -3.64453,-2.02148 -6.66478,-2.56313 -13.81283,-8.90897 -16.9043,-15.00977 -1.34899,-2.66203 -2.45117,-5.06299 -2.45117,-5.33398 0,-1.07982 5.71307,-5.81992 9.20898,-7.64063 2.56241,-1.33447 5.73335,-1.93359 10.25,-1.93359 h 6.54102 v 15.89453 c 0,13.56986 -0.23146,15.98171 -1.58203,16.5 -0.86997,0.33373 -8.93377,0.60547 -17.91797,0.60547 -12.13221,0 -16.46334,-0.3216 -16.83789,-1.25 -0.40343,-1.00003 -0.52087,-1.00003 -0.58399,0 v 0.002 c -0.0608,0.96314 -5.5869,1.25 -24.07812,1.25 h -24 v -33.51562 z m -190.000001,0.0273 c 0.629631,0 1,6.66667 1,18 0,11.33332 -0.370369,18 -1,18 -0.629594,0 -1,-6.66668 -1,-18 0,-11.33333 0.370368,-18 1,-18 z m -33.914063,8.82031 c -0.03348,0.0181 -0.05179,0.0766 -0.05273,0.17969 -0.02888,3.10503 4.820674,11.65477 8.933594,15.75 2.347578,2.33752 4.536352,4.25 4.863281,4.25 0.327118,0 -1.543942,-2.17201 -4.158203,-4.82617 -2.872857,-2.9167 -5.717479,-7.16948 -7.189453,-10.75 -1.172032,-2.85101 -2.162106,-4.73058 -2.396485,-4.60352 z m 378.914064,2.67969 c -57.00416,0 -60.99993,0.11271 -61,1.71875 -8e-5,1.11654 0.52522,1.5167 1.5,1.14258 0.82499,-0.31658 1.5,-0.0776 1.5,0.53124 0,0.79975 16.45339,1.03985 59.25,0.86524 l 59.25,-0.24024 -58.75,-0.26757 c -38.00553,-0.17216 -58.75,-0.61609 -58.75,-1.25782 0,-0.64467 20.65027,-0.99218 59,-0.99218 32.44996,0 58.99996,-0.33751 59,-0.75 4e-5,-0.4125 -27.45,-0.75 -61,-0.75 z m -60.63672,5.8457 c -0.15157,-0.0229 -0.25516,0.34416 -0.28516,1.07227 -0.0434,1.05395 0.19317,1.64472 0.52539,1.3125 0.33222,-0.33226 0.36704,-1.19608 0.0781,-1.91797 -0.11969,-0.29914 -0.22742,-0.45303 -0.31836,-0.4668 z M 28.380859,432.79102 c -0.07385,0.0482 0.37586,0.41915 1.291016,1.15234 1.067603,0.85534 2.379474,1.55469 2.916016,1.55469 1.270526,0 0.703579,-0.46212 -2.357422,-1.91993 -1.178646,-0.56119 -1.775762,-0.8353 -1.84961,-0.7871 z m 300.849611,2.70703 c 0.62959,0 1,6.66667 1,18 0,11.33333 -0.37037,18 -1,18 -0.62959,0 -1,-6.66667 -1,-18 0,-11.33333 0.37037,-18 1,-18 z m -11,0.11718 c 0.81563,0 1.63123,0.0585 2.25,0.17774 1.23749,0.23834 0.22502,0.43359 -2.25,0.43359 -2.47487,0 -3.48749,-0.1951 -2.25,-0.43359 0.61875,-0.11925 1.43437,-0.17774 2.25,-0.17774 z m 61.5,0.9961 c -1.09999,-0.012 -3.35001,0.596 -5,1.35156 -3.94398,1.80578 -3.05205,1.83727 2.5,0.0879 2.47355,-0.77983 3.59999,-1.42811 2.5,-1.43945 z m -340.500001,0.0176 c -0.453123,0 -0.906252,0.0683 -1.25,0.20703 -0.687496,0.27723 -0.12503,0.5039 1.25,0.5039 1.375105,0 1.937496,-0.22649 1.25,-0.5039 -0.343767,-0.13871 -0.796877,-0.20703 -1.25,-0.20703 z M 295.23047,437.5 h 5 c 2.75002,0 5,0.14828 5,0.33008 0,0.18176 -1.98666,1.75677 -4.41406,3.5 -2.42744,1.74323 -4.67723,3.16992 -5,3.16992 -0.3227,0 -0.58594,-1.57501 -0.58594,-3.5 z m 29.46484,0.15234 c 0.0894,0.004 0.18466,0.0159 0.28516,0.0352 1.56404,0.30032 1.77934,2.00908 2.02539,16.07422 0.26649,15.22707 0.20976,15.73633 -1.75,15.73633 -1.94978,0 -2.02539,-0.59843 -2.02539,-16.07227 0,-13.84618 0.12429,-15.8335 1.46484,-15.77344 z m -124.96484,0.34571 0.27344,16.25 0.27539,16.25 h -16.66016 -16.66211 l 0.63672,-4.64063 c 1.84146,-13.43482 16.22767,-27.41885 28.55664,-27.75976 z m 179.73828,0.92187 c -0.0631,-0.007 -0.12781,0.009 -0.19531,0.0508 -0.52604,0.32508 -0.7025,1.25317 -0.39258,2.06055 0.36393,0.9484 -0.0952,1.50915 -1.29492,1.58398 -1.67554,0.10466 -1.68448,0.15962 -0.10547,0.57227 0.96253,0.25153 1.75,0.8751 1.75,1.38477 0,0.50966 0.22485,0.92578 0.5,0.92578 0.27511,0 0.5,-1.60114 0.5,-3.5586 0,-1.75847 -0.32026,-2.96832 -0.76172,-3.01953 z m -9.19531,1.35938 c -0.18936,0.0416 -0.71798,0.27473 -1.54297,0.68554 -3.37833,1.68223 -5.85038,3.78283 -9.5,8.07422 -1.37499,1.61681 -0.005,0.69369 3.04492,-2.05078 3.04959,-2.74446 6.42457,-5.55864 7.5,-6.2539 0.53771,-0.34759 0.6874,-0.49672 0.49805,-0.45508 z M 47.230469,440.5 c 0.623584,0 1,5.83333 1,15.5 v 15.5 l 7.75,0.0332 c 4.262475,0.02 30.362502,0.0432 58.000001,0.0508 31.0467,0.009 50.25,0.37811 50.25,0.96485 v 0.002 c 0,0.5887 -22.41845,0.94922 -59,0.94922 H 46.230469 V 457 c 0,-10.33334 0.373732,-16.5 1,-16.5 z m 240.685551,19.48438 c -0.0209,-0.007 -0.0446,-0.005 -0.0703,0.006 -0.13687,0.0584 -0.34148,0.37076 -0.61523,1.00782 -0.47248,1.09999 -0.8452,2.9 -0.83008,4 0.0236,1.60777 0.18646,1.50972 0.83008,-0.5 0.76992,-2.40407 0.99841,-4.41601 0.68555,-4.51367 z m 64.67773,1.85937 c -0.15158,-0.0229 -0.25516,0.34419 -0.28516,1.07227 -0.0434,1.05399 0.19317,1.64472 0.52539,1.3125 0.33222,-0.3323 0.36704,-1.19608 0.0781,-1.91797 -0.11971,-0.29914 -0.22741,-0.45303 -0.31836,-0.4668 z m -169.36328,9.6543 c 11.33333,0 18,0.37037 18,1 0,0.62963 -6.66667,1 -18,1 -11.33333,0 -18,-0.37037 -18,-1 0,-0.6296 6.66667,-1 18,-1 z m 121,0 c 12.66667,0 20,0.36666 20,1 0,0.63341 -7.33333,1 -20,1 -12.66667,0 -20,-0.36667 -20,-1 0,-0.63338 7.33333,-1 20,-1 z m 65,0 c 11.33333,0 18,0.37037 18,1 0,0.62963 -6.66667,1 -18,1 -11.33333,0 -18,-0.37037 -18,-1 0,-0.6296 6.66667,-1 18,-1 z m -25.9043,0.0586 c 4.72879,-10e-4 6.9043,0.27209 6.9043,0.8418 0,0.74105 -4.07774,1.09961 -12.5,1.09961 -6.875,0 -12.49903,-0.33751 -12.49805,-0.75 0.001,-0.4125 5.62648,-0.90723 12.5,-1.09961 2.15807,-0.0604 4.01749,-0.0914 5.59375,-0.0918 z"
       inkscape:connector-curvature="0" />
    <text
       xml:space="preserve"
       style="font-style:normal;font-weight:normal;font-size:4.23333311px;line-height:1.25;font-family:sans-serif;letter-spacing:0px;word-spacing:0px;fill:#000000;fill-opacity:1;stroke:none;stroke-width:0.26458332"
       x="80.448105"
       y="-56.932976"
       id="text3770"><tspan
         sodipodi:role="line"
         id="tspan3768"
         x="80.448105"
         y="-56.932976"
         style="font-size:4.23333311px;stroke-width:0.26458332">Garage</tspan></text>
    <text
       xml:space="preserve"
       style="font-style:normal;font-weight:normal;font-size:4.23333311px;line-height:1.25;font-family:sans-serif;letter-spacing:0px;word-spacing:0px;fill:#000000;fill-opacity:1;stroke:none;stroke-width:0.26458332"
       x="-24.251299"
       y="-2.8823783"
       id="text3774"><tspan
         sodipodi:role="line"
         id="tspan3772"
         x="-24.251299"
         y="-2.8823783"
         style="font-size:4.23333311px;stroke-width:0.26458332">Küche</tspan></text>
    <text
       xml:space="preserve"
       style="font-style:normal;font-weight:normal;font-size:4.23333311px;line-height:1.25;font-family:sans-serif;letter-spacing:0px;word-spacing:0px;fill:#000000;fill-opacity:1;stroke:none;stroke-width:0.26458332"
       x="-11.211123"
       y="-64.303513"
       id="text3778"><tspan
         sodipodi:role="line"
         id="tspan3776"
         x="-11.211123"
         y="-64.303513"
         style="font-size:4.23333311px;stroke-width:0.26458332">Wohnzimmer</tspan></text>
    <text
       xml:space="preserve"
       style="font-style:normal;font-weight:normal;font-size:4.23333311px;line-height:1.25;font-family:sans-serif;letter-spacing:0px;word-spacing:0px;fill:#000000;fill-opacity:1;stroke:none;stroke-width:0.26458332"
       x="59.470421"
       y="13.559585"
       id="text3782"><tspan
         sodipodi:role="line"
         id="tspan3780"
         x="59.470421"
         y="13.559585"
         style="font-size:4.23333311px;stroke-width:0.26458332">WC</tspan></text>
    <text
       xml:space="preserve"
       style="font-style:normal;font-weight:normal;font-size:4.23333333px;line-height:1.25;font-family:sans-serif;letter-spacing:0px;word-spacing:0px;fill:#000000;fill-opacity:1;stroke:none;stroke-width:0.26458332;"
       x="45.863281"
       y="-14.410655"
       id="text3786"><tspan
         sodipodi:role="line"
         id="tspan3784"
         x="45.863281"
         y="-14.410655"
         style="stroke-width:0.26458332;font-size:4.23333333px;">Vorrat</tspan></text>
  </g>
</svg>
